G04 EAGLE Gerber X2 export*
%TF.Part,Single*%
%TF.FileFunction,Copper,L2,Bot,Mixed*%
%TF.FilePolarity,Positive*%
%TF.GenerationSoftware,Autodesk,EAGLE,9.0.1*%
%TF.CreationDate,2018-05-13T22:07:24Z*%
G75*
%MOMM*%
%FSLAX34Y34*%
%LPD*%
%AMOC8*
5,1,8,0,0,1.08239X$1,22.5*%
G01*
%ADD10P,1.429621X8X22.500000*%
%ADD11P,1.429621X8X202.500000*%
%ADD12C,1.524000*%
%ADD13C,1.320800*%
%ADD14R,1.676400X1.676400*%
%ADD15C,1.676400*%
%ADD16P,1.649562X8X22.500000*%
%ADD17C,1.778000*%
%ADD18R,1.300000X1.500000*%
%ADD19P,1.429621X8X292.500000*%
%ADD20C,0.152400*%
%ADD21C,0.508000*%
%ADD22C,0.756400*%


D10*
X409956Y616102D03*
X435356Y616102D03*
D11*
X377952Y614578D03*
X352552Y614578D03*
D12*
X251460Y614477D02*
X251460Y599237D01*
X276860Y599237D02*
X276860Y614477D01*
X302260Y614477D02*
X302260Y599237D01*
X355600Y83820D02*
X355600Y68580D01*
X381000Y68580D02*
X381000Y83820D01*
X406400Y83820D02*
X406400Y68580D01*
X45720Y457200D02*
X30480Y457200D01*
X30480Y431800D02*
X45720Y431800D01*
X45720Y406400D02*
X30480Y406400D01*
X30480Y381000D02*
X45720Y381000D01*
X45720Y355600D02*
X30480Y355600D01*
X30480Y330200D02*
X45720Y330200D01*
D10*
X228600Y444500D03*
X215900Y463550D03*
X203200Y444500D03*
D11*
X381000Y457200D03*
X304800Y457200D03*
D10*
X152400Y444500D03*
X139700Y463550D03*
X127000Y444500D03*
D11*
X381000Y419100D03*
X304800Y419100D03*
D10*
X228600Y381000D03*
X215900Y400050D03*
X203200Y381000D03*
D11*
X381000Y381000D03*
X304800Y381000D03*
D10*
X152400Y381000D03*
X139700Y400050D03*
X127000Y381000D03*
D11*
X381000Y342900D03*
X304800Y342900D03*
D10*
X177800Y317500D03*
X165100Y336550D03*
X152400Y317500D03*
D11*
X381000Y304800D03*
X304800Y304800D03*
D13*
X493014Y616407D03*
X541274Y616407D03*
D10*
X30175Y151587D03*
X131775Y151587D03*
D11*
X134722Y196698D03*
X33122Y196698D03*
D14*
X457200Y546100D03*
D15*
X457200Y520700D03*
X457200Y495300D03*
X457200Y469900D03*
X457200Y444500D03*
X457200Y419100D03*
X457200Y393700D03*
X457200Y368300D03*
X457200Y342900D03*
X457200Y317500D03*
X457200Y292100D03*
X457200Y266700D03*
X457200Y241300D03*
X457200Y215900D03*
X533400Y215900D03*
X533400Y241300D03*
X533400Y266700D03*
X533400Y292100D03*
X533400Y317500D03*
X533400Y342900D03*
X533400Y368300D03*
X533400Y393700D03*
X533400Y419100D03*
X533400Y444500D03*
X533400Y469900D03*
X533400Y495300D03*
X533400Y520700D03*
X533400Y546100D03*
D16*
X41250Y51105D03*
X41250Y76505D03*
X66650Y51105D03*
X66650Y76505D03*
X92050Y51105D03*
X92050Y76505D03*
X117450Y51105D03*
X117450Y76505D03*
D17*
X77000Y575310D02*
X77000Y593090D01*
X137000Y593090D02*
X137000Y575310D01*
X116390Y535200D02*
X98610Y535200D01*
D18*
X507035Y343408D03*
X488035Y343408D03*
D19*
X349809Y169875D03*
D13*
X349809Y190195D03*
D19*
X385877Y530352D03*
D13*
X385877Y550672D03*
D18*
X480618Y392786D03*
X499618Y392786D03*
D20*
X228600Y444500D02*
X215900Y444500D01*
X114300Y482600D02*
X88900Y457200D01*
X38100Y457200D01*
X177800Y482600D02*
X215900Y444500D01*
X177800Y482600D02*
X114300Y482600D01*
X152400Y444500D02*
X139700Y431800D01*
X38100Y431800D01*
X215900Y381000D02*
X228600Y381000D01*
X215900Y381000D02*
X177800Y419100D01*
X101600Y419100D01*
X88900Y406400D01*
X38100Y406400D01*
X139700Y368300D02*
X152400Y381000D01*
X50800Y368300D02*
X38100Y381000D01*
X50800Y368300D02*
X139700Y368300D01*
X165100Y317500D02*
X177800Y317500D01*
X165100Y317500D02*
X127000Y355600D01*
X38100Y355600D01*
D21*
X482092Y343408D02*
X488035Y343408D01*
X482092Y343408D02*
X457200Y368300D01*
X499618Y392786D02*
X532486Y392786D01*
X533400Y393700D01*
D22*
X479654Y558190D03*
X478942Y195478D03*
D21*
X507035Y223571D01*
X480618Y392786D02*
X479654Y393750D01*
X479654Y417678D02*
X479654Y558190D01*
X479654Y417678D02*
X479654Y393750D01*
X480618Y392786D02*
X480618Y369825D01*
X487299Y363144D01*
X495471Y354972D01*
X496219Y354972D01*
X498599Y352591D01*
X498599Y351844D01*
X507035Y343408D01*
X513156Y363144D02*
X487299Y363144D01*
X513156Y363144D02*
X533400Y342900D01*
X507035Y343408D02*
X507035Y223571D01*
X457200Y395224D02*
X479654Y417678D01*
X457200Y395224D02*
X457200Y393700D01*
D20*
X41250Y51105D02*
X25400Y50800D01*
X12700Y63500D01*
X12700Y114300D01*
X25400Y127000D01*
X508000Y127000D01*
X533400Y165100D01*
X533400Y215900D01*
D22*
X424688Y204622D03*
D20*
X372466Y204521D01*
X318516Y203911D01*
D22*
X318516Y203911D03*
X396443Y223825D03*
D21*
X428650Y240995D01*
X429768Y491642D01*
X431292Y499872D01*
D22*
X431292Y499872D03*
M02*
