M48
;GenerationSoftware,Autodesk,EAGLE,9.0.1*%
;CreationDate,2018-05-13T22:07:24Z*%
FMAT,2
ICI,OFF
METRIC,TZ,000.000
T4C0.350
T3C0.813
T2C1.016
T1C1.118
%
G90
M71
T1
X45720Y26670
X45720Y41910
X45720Y44450
X45720Y46990
X45720Y49530
X45720Y52070
X53340Y29210
X45720Y29210
X45720Y54610
X45720Y36830
X45720Y39370
X45720Y34290
X45720Y31750
X45720Y24130
X45720Y21590
X53340Y21590
X53340Y24130
X53340Y26670
X53340Y31750
X53340Y34290
X53340Y36830
X53340Y39370
X53340Y41910
X53340Y44450
X53340Y46990
X53340Y49530
X53340Y52070
X53340Y54610
T2
X27686Y60686
X6665Y5110
X3810Y40640
X35560Y7620
X38100Y7620
X40640Y7620
X3810Y45720
X3810Y43180
X3810Y38100
X3810Y35560
X30226Y60686
X3810Y33020
X25146Y60686
X4125Y5110
X4125Y7650
X6665Y7650
X9205Y5110
X9205Y7650
X11745Y5110
X11745Y7650
T3
X20320Y44450
X3018Y15159
X13178Y15159
X13472Y19670
X3312Y19670
X40996Y61610
X54127Y61641
X43536Y61610
X37795Y61458
X35255Y61458
X22860Y44450
X21590Y46355
X38100Y45720
X30480Y45720
X15240Y44450
X13970Y46355
X12700Y44450
X38100Y41910
X30480Y41910
X22860Y38100
X21590Y40005
X20320Y38100
X38100Y38100
X15240Y38100
X13970Y40005
X12700Y38100
X38100Y34290
X30480Y34290
X17780Y31750
X30480Y38100
X16510Y33655
X15240Y31750
X38100Y30480
X30480Y30480
X49301Y61641
X7700Y58420
X13700Y58420
X10750Y53520
X34981Y16988
X34981Y19020
X38588Y53035
X38588Y55067
T4
X43129Y49987
X39644Y22382
X31852Y20391
X42469Y20462
X47894Y19548
X47965Y55819
M30