G04 EAGLE Gerber X2 export*
%TF.Part,Single*%
%TF.FileFunction,Legend,Bot,1*%
%TF.FilePolarity,Positive*%
%TF.GenerationSoftware,Autodesk,EAGLE,9.0.1*%
%TF.CreationDate,2018-05-13T22:07:24Z*%
G75*
%MOMM*%
%FSLAX34Y34*%
%LPD*%
%AMOC8*
5,1,8,0,0,1.08239X$1,22.5*%
G01*
%ADD10C,0.101600*%


D10*
X504534Y356616D02*
X507131Y356616D01*
X507131Y356617D02*
X507230Y356619D01*
X507330Y356625D01*
X507429Y356634D01*
X507527Y356647D01*
X507625Y356664D01*
X507723Y356685D01*
X507819Y356710D01*
X507914Y356738D01*
X508008Y356770D01*
X508101Y356805D01*
X508193Y356844D01*
X508283Y356887D01*
X508371Y356932D01*
X508458Y356982D01*
X508542Y357034D01*
X508625Y357090D01*
X508705Y357148D01*
X508783Y357210D01*
X508858Y357275D01*
X508931Y357343D01*
X509001Y357413D01*
X509069Y357486D01*
X509134Y357561D01*
X509196Y357639D01*
X509254Y357719D01*
X509310Y357802D01*
X509362Y357886D01*
X509412Y357973D01*
X509457Y358061D01*
X509500Y358151D01*
X509539Y358243D01*
X509574Y358336D01*
X509606Y358430D01*
X509634Y358525D01*
X509659Y358621D01*
X509680Y358719D01*
X509697Y358817D01*
X509710Y358915D01*
X509719Y359014D01*
X509725Y359114D01*
X509727Y359213D01*
X509727Y365704D01*
X509725Y365803D01*
X509719Y365903D01*
X509710Y366002D01*
X509697Y366100D01*
X509680Y366198D01*
X509659Y366296D01*
X509634Y366392D01*
X509606Y366487D01*
X509574Y366581D01*
X509539Y366674D01*
X509500Y366766D01*
X509457Y366856D01*
X509412Y366944D01*
X509362Y367031D01*
X509310Y367115D01*
X509254Y367198D01*
X509196Y367278D01*
X509134Y367356D01*
X509069Y367431D01*
X509001Y367504D01*
X508931Y367574D01*
X508858Y367642D01*
X508783Y367707D01*
X508705Y367769D01*
X508625Y367827D01*
X508542Y367883D01*
X508458Y367935D01*
X508371Y367985D01*
X508283Y368030D01*
X508193Y368073D01*
X508101Y368112D01*
X508008Y368147D01*
X507914Y368179D01*
X507819Y368207D01*
X507723Y368232D01*
X507625Y368253D01*
X507527Y368270D01*
X507429Y368283D01*
X507330Y368292D01*
X507230Y368298D01*
X507131Y368300D01*
X504534Y368300D01*
X500170Y359862D02*
X500168Y359975D01*
X500162Y360088D01*
X500152Y360201D01*
X500138Y360314D01*
X500121Y360426D01*
X500099Y360537D01*
X500074Y360647D01*
X500044Y360757D01*
X500011Y360865D01*
X499974Y360972D01*
X499934Y361078D01*
X499889Y361182D01*
X499841Y361285D01*
X499790Y361386D01*
X499735Y361485D01*
X499677Y361582D01*
X499615Y361677D01*
X499550Y361770D01*
X499482Y361860D01*
X499411Y361948D01*
X499336Y362034D01*
X499259Y362117D01*
X499179Y362197D01*
X499096Y362274D01*
X499010Y362349D01*
X498922Y362420D01*
X498832Y362488D01*
X498739Y362553D01*
X498644Y362615D01*
X498547Y362673D01*
X498448Y362728D01*
X498347Y362779D01*
X498244Y362827D01*
X498140Y362872D01*
X498034Y362912D01*
X497927Y362949D01*
X497819Y362982D01*
X497709Y363012D01*
X497599Y363037D01*
X497488Y363059D01*
X497376Y363076D01*
X497263Y363090D01*
X497150Y363100D01*
X497037Y363106D01*
X496924Y363108D01*
X496811Y363106D01*
X496698Y363100D01*
X496585Y363090D01*
X496472Y363076D01*
X496360Y363059D01*
X496249Y363037D01*
X496139Y363012D01*
X496029Y362982D01*
X495921Y362949D01*
X495814Y362912D01*
X495708Y362872D01*
X495604Y362827D01*
X495501Y362779D01*
X495400Y362728D01*
X495301Y362673D01*
X495204Y362615D01*
X495109Y362553D01*
X495016Y362488D01*
X494926Y362420D01*
X494838Y362349D01*
X494752Y362274D01*
X494669Y362197D01*
X494589Y362117D01*
X494512Y362034D01*
X494437Y361948D01*
X494366Y361860D01*
X494298Y361770D01*
X494233Y361677D01*
X494171Y361582D01*
X494113Y361485D01*
X494058Y361386D01*
X494007Y361285D01*
X493959Y361182D01*
X493914Y361078D01*
X493874Y360972D01*
X493837Y360865D01*
X493804Y360757D01*
X493774Y360647D01*
X493749Y360537D01*
X493727Y360426D01*
X493710Y360314D01*
X493696Y360201D01*
X493686Y360088D01*
X493680Y359975D01*
X493678Y359862D01*
X493680Y359749D01*
X493686Y359636D01*
X493696Y359523D01*
X493710Y359410D01*
X493727Y359298D01*
X493749Y359187D01*
X493774Y359077D01*
X493804Y358967D01*
X493837Y358859D01*
X493874Y358752D01*
X493914Y358646D01*
X493959Y358542D01*
X494007Y358439D01*
X494058Y358338D01*
X494113Y358239D01*
X494171Y358142D01*
X494233Y358047D01*
X494298Y357954D01*
X494366Y357864D01*
X494437Y357776D01*
X494512Y357690D01*
X494589Y357607D01*
X494669Y357527D01*
X494752Y357450D01*
X494838Y357375D01*
X494926Y357304D01*
X495016Y357236D01*
X495109Y357171D01*
X495204Y357109D01*
X495301Y357051D01*
X495400Y356996D01*
X495501Y356945D01*
X495604Y356897D01*
X495708Y356852D01*
X495814Y356812D01*
X495921Y356775D01*
X496029Y356742D01*
X496139Y356712D01*
X496249Y356687D01*
X496360Y356665D01*
X496472Y356648D01*
X496585Y356634D01*
X496698Y356624D01*
X496811Y356618D01*
X496924Y356616D01*
X497037Y356618D01*
X497150Y356624D01*
X497263Y356634D01*
X497376Y356648D01*
X497488Y356665D01*
X497599Y356687D01*
X497709Y356712D01*
X497819Y356742D01*
X497927Y356775D01*
X498034Y356812D01*
X498140Y356852D01*
X498244Y356897D01*
X498347Y356945D01*
X498448Y356996D01*
X498547Y357051D01*
X498644Y357109D01*
X498739Y357171D01*
X498832Y357236D01*
X498922Y357304D01*
X499010Y357375D01*
X499096Y357450D01*
X499179Y357527D01*
X499259Y357607D01*
X499336Y357690D01*
X499411Y357776D01*
X499482Y357864D01*
X499550Y357954D01*
X499615Y358047D01*
X499677Y358142D01*
X499735Y358239D01*
X499790Y358338D01*
X499841Y358439D01*
X499889Y358542D01*
X499934Y358646D01*
X499974Y358752D01*
X500011Y358859D01*
X500044Y358967D01*
X500074Y359077D01*
X500099Y359187D01*
X500121Y359298D01*
X500138Y359410D01*
X500152Y359523D01*
X500162Y359636D01*
X500168Y359749D01*
X500170Y359862D01*
X499520Y365704D02*
X499518Y365805D01*
X499512Y365905D01*
X499502Y366005D01*
X499489Y366105D01*
X499471Y366204D01*
X499450Y366303D01*
X499425Y366400D01*
X499396Y366497D01*
X499363Y366592D01*
X499327Y366686D01*
X499287Y366778D01*
X499244Y366869D01*
X499197Y366958D01*
X499147Y367045D01*
X499093Y367131D01*
X499036Y367214D01*
X498976Y367294D01*
X498913Y367373D01*
X498846Y367449D01*
X498777Y367522D01*
X498705Y367592D01*
X498631Y367660D01*
X498554Y367725D01*
X498474Y367786D01*
X498392Y367845D01*
X498308Y367900D01*
X498222Y367952D01*
X498134Y368001D01*
X498044Y368046D01*
X497952Y368088D01*
X497859Y368126D01*
X497764Y368160D01*
X497669Y368191D01*
X497572Y368218D01*
X497474Y368241D01*
X497375Y368261D01*
X497275Y368276D01*
X497175Y368288D01*
X497075Y368296D01*
X496974Y368300D01*
X496874Y368300D01*
X496773Y368296D01*
X496673Y368288D01*
X496573Y368276D01*
X496473Y368261D01*
X496374Y368241D01*
X496276Y368218D01*
X496179Y368191D01*
X496084Y368160D01*
X495989Y368126D01*
X495896Y368088D01*
X495804Y368046D01*
X495714Y368001D01*
X495626Y367952D01*
X495540Y367900D01*
X495456Y367845D01*
X495374Y367786D01*
X495294Y367725D01*
X495217Y367660D01*
X495143Y367592D01*
X495071Y367522D01*
X495002Y367449D01*
X494935Y367373D01*
X494872Y367294D01*
X494812Y367214D01*
X494755Y367131D01*
X494701Y367045D01*
X494651Y366958D01*
X494604Y366869D01*
X494561Y366778D01*
X494521Y366686D01*
X494485Y366592D01*
X494452Y366497D01*
X494423Y366400D01*
X494398Y366303D01*
X494377Y366204D01*
X494359Y366105D01*
X494346Y366005D01*
X494336Y365905D01*
X494330Y365805D01*
X494328Y365704D01*
X494330Y365603D01*
X494336Y365503D01*
X494346Y365403D01*
X494359Y365303D01*
X494377Y365204D01*
X494398Y365105D01*
X494423Y365008D01*
X494452Y364911D01*
X494485Y364816D01*
X494521Y364722D01*
X494561Y364630D01*
X494604Y364539D01*
X494651Y364450D01*
X494701Y364363D01*
X494755Y364277D01*
X494812Y364194D01*
X494872Y364114D01*
X494935Y364035D01*
X495002Y363959D01*
X495071Y363886D01*
X495143Y363816D01*
X495217Y363748D01*
X495294Y363683D01*
X495374Y363622D01*
X495456Y363563D01*
X495540Y363508D01*
X495626Y363456D01*
X495714Y363407D01*
X495804Y363362D01*
X495896Y363320D01*
X495989Y363282D01*
X496084Y363248D01*
X496179Y363217D01*
X496276Y363190D01*
X496374Y363167D01*
X496473Y363147D01*
X496573Y363132D01*
X496673Y363120D01*
X496773Y363112D01*
X496874Y363108D01*
X496974Y363108D01*
X497075Y363112D01*
X497175Y363120D01*
X497275Y363132D01*
X497375Y363147D01*
X497474Y363167D01*
X497572Y363190D01*
X497669Y363217D01*
X497764Y363248D01*
X497859Y363282D01*
X497952Y363320D01*
X498044Y363362D01*
X498134Y363407D01*
X498222Y363456D01*
X498308Y363508D01*
X498392Y363563D01*
X498474Y363622D01*
X498554Y363683D01*
X498631Y363748D01*
X498705Y363816D01*
X498777Y363886D01*
X498846Y363959D01*
X498913Y364035D01*
X498976Y364114D01*
X499036Y364194D01*
X499093Y364277D01*
X499147Y364363D01*
X499197Y364450D01*
X499244Y364539D01*
X499287Y364630D01*
X499327Y364722D01*
X499363Y364816D01*
X499396Y364911D01*
X499425Y365008D01*
X499450Y365105D01*
X499471Y365204D01*
X499489Y365303D01*
X499502Y365403D01*
X499512Y365503D01*
X499518Y365603D01*
X499520Y365704D01*
X506461Y407619D02*
X509058Y407619D01*
X509058Y407620D02*
X509157Y407622D01*
X509257Y407628D01*
X509356Y407637D01*
X509454Y407650D01*
X509552Y407667D01*
X509650Y407688D01*
X509746Y407713D01*
X509841Y407741D01*
X509935Y407773D01*
X510028Y407808D01*
X510120Y407847D01*
X510210Y407890D01*
X510298Y407935D01*
X510385Y407985D01*
X510469Y408037D01*
X510552Y408093D01*
X510632Y408151D01*
X510710Y408213D01*
X510785Y408278D01*
X510858Y408346D01*
X510928Y408416D01*
X510996Y408489D01*
X511061Y408564D01*
X511123Y408642D01*
X511181Y408722D01*
X511237Y408805D01*
X511289Y408889D01*
X511339Y408976D01*
X511384Y409064D01*
X511427Y409154D01*
X511466Y409246D01*
X511501Y409339D01*
X511533Y409433D01*
X511561Y409528D01*
X511586Y409624D01*
X511607Y409722D01*
X511624Y409820D01*
X511637Y409918D01*
X511646Y410017D01*
X511652Y410117D01*
X511654Y410216D01*
X511654Y416707D01*
X511652Y416806D01*
X511646Y416906D01*
X511637Y417005D01*
X511624Y417103D01*
X511607Y417201D01*
X511586Y417299D01*
X511561Y417395D01*
X511533Y417490D01*
X511501Y417584D01*
X511466Y417677D01*
X511427Y417769D01*
X511384Y417859D01*
X511339Y417947D01*
X511289Y418034D01*
X511237Y418118D01*
X511181Y418201D01*
X511123Y418281D01*
X511061Y418359D01*
X510996Y418434D01*
X510928Y418507D01*
X510858Y418577D01*
X510785Y418645D01*
X510710Y418710D01*
X510632Y418772D01*
X510552Y418830D01*
X510469Y418886D01*
X510385Y418938D01*
X510298Y418988D01*
X510210Y419033D01*
X510120Y419076D01*
X510028Y419115D01*
X509935Y419150D01*
X509841Y419182D01*
X509746Y419210D01*
X509650Y419235D01*
X509552Y419256D01*
X509454Y419273D01*
X509356Y419286D01*
X509257Y419295D01*
X509157Y419301D01*
X509058Y419303D01*
X506461Y419303D01*
X502096Y419303D02*
X502096Y418005D01*
X502096Y419303D02*
X495605Y419303D01*
X498850Y407619D01*
M02*
