G04 EAGLE Gerber X2 export*
%TF.Part,Single*%
%TF.FileFunction,Legend,Top,1*%
%TF.FilePolarity,Positive*%
%TF.GenerationSoftware,Autodesk,EAGLE,9.0.1*%
%TF.CreationDate,2018-05-13T22:07:24Z*%
G75*
%MOMM*%
%FSLAX34Y34*%
%LPD*%
%AMOC8*
5,1,8,0,0,1.08239X$1,22.5*%
G01*
%ADD10C,0.152400*%
%ADD11C,0.254000*%
%ADD12C,0.127000*%
%ADD13R,10.668000X0.762000*%
%ADD14R,1.905000X0.508000*%
%ADD15R,0.762000X0.508000*%
%ADD16R,0.381000X0.508000*%
%ADD17C,0.406400*%
%ADD18R,0.863600X0.609600*%
%ADD19C,0.076200*%
%ADD20C,0.203200*%
%ADD21C,0.101600*%
%ADD22R,0.300000X0.150000*%
%ADD23R,0.300000X0.300000*%


D10*
X0Y254000D02*
X152400Y254000D01*
X152400Y12700D01*
X401066Y635152D02*
X444246Y635152D01*
X444246Y597052D02*
X401066Y597052D01*
X446786Y599592D02*
X446786Y632612D01*
X398526Y632612D02*
X398526Y599592D01*
X444246Y635152D02*
X444346Y635150D01*
X444445Y635144D01*
X444545Y635134D01*
X444643Y635121D01*
X444742Y635103D01*
X444839Y635082D01*
X444935Y635057D01*
X445031Y635028D01*
X445125Y634995D01*
X445218Y634959D01*
X445309Y634919D01*
X445399Y634875D01*
X445487Y634828D01*
X445573Y634778D01*
X445657Y634724D01*
X445739Y634667D01*
X445818Y634607D01*
X445896Y634543D01*
X445970Y634477D01*
X446042Y634408D01*
X446111Y634336D01*
X446177Y634262D01*
X446241Y634184D01*
X446301Y634105D01*
X446358Y634023D01*
X446412Y633939D01*
X446462Y633853D01*
X446509Y633765D01*
X446553Y633675D01*
X446593Y633584D01*
X446629Y633491D01*
X446662Y633397D01*
X446691Y633301D01*
X446716Y633205D01*
X446737Y633108D01*
X446755Y633009D01*
X446768Y632911D01*
X446778Y632811D01*
X446784Y632712D01*
X446786Y632612D01*
X401066Y635152D02*
X400966Y635150D01*
X400867Y635144D01*
X400767Y635134D01*
X400669Y635121D01*
X400570Y635103D01*
X400473Y635082D01*
X400377Y635057D01*
X400281Y635028D01*
X400187Y634995D01*
X400094Y634959D01*
X400003Y634919D01*
X399913Y634875D01*
X399825Y634828D01*
X399739Y634778D01*
X399655Y634724D01*
X399573Y634667D01*
X399494Y634607D01*
X399416Y634543D01*
X399342Y634477D01*
X399270Y634408D01*
X399201Y634336D01*
X399135Y634262D01*
X399071Y634184D01*
X399011Y634105D01*
X398954Y634023D01*
X398900Y633939D01*
X398850Y633853D01*
X398803Y633765D01*
X398759Y633675D01*
X398719Y633584D01*
X398683Y633491D01*
X398650Y633397D01*
X398621Y633301D01*
X398596Y633205D01*
X398575Y633108D01*
X398557Y633009D01*
X398544Y632911D01*
X398534Y632811D01*
X398528Y632712D01*
X398526Y632612D01*
X444246Y597052D02*
X444346Y597054D01*
X444445Y597060D01*
X444545Y597070D01*
X444643Y597083D01*
X444742Y597101D01*
X444839Y597122D01*
X444935Y597147D01*
X445031Y597176D01*
X445125Y597209D01*
X445218Y597245D01*
X445309Y597285D01*
X445399Y597329D01*
X445487Y597376D01*
X445573Y597426D01*
X445657Y597480D01*
X445739Y597537D01*
X445818Y597597D01*
X445896Y597661D01*
X445970Y597727D01*
X446042Y597796D01*
X446111Y597868D01*
X446177Y597942D01*
X446241Y598020D01*
X446301Y598099D01*
X446358Y598181D01*
X446412Y598265D01*
X446462Y598351D01*
X446509Y598439D01*
X446553Y598529D01*
X446593Y598620D01*
X446629Y598713D01*
X446662Y598807D01*
X446691Y598903D01*
X446716Y598999D01*
X446737Y599096D01*
X446755Y599195D01*
X446768Y599293D01*
X446778Y599393D01*
X446784Y599492D01*
X446786Y599592D01*
X401066Y597052D02*
X400966Y597054D01*
X400867Y597060D01*
X400767Y597070D01*
X400669Y597083D01*
X400570Y597101D01*
X400473Y597122D01*
X400377Y597147D01*
X400281Y597176D01*
X400187Y597209D01*
X400094Y597245D01*
X400003Y597285D01*
X399913Y597329D01*
X399825Y597376D01*
X399739Y597426D01*
X399655Y597480D01*
X399573Y597537D01*
X399494Y597597D01*
X399416Y597661D01*
X399342Y597727D01*
X399270Y597796D01*
X399201Y597868D01*
X399135Y597942D01*
X399071Y598020D01*
X399011Y598099D01*
X398954Y598181D01*
X398900Y598265D01*
X398850Y598351D01*
X398803Y598439D01*
X398759Y598529D01*
X398719Y598620D01*
X398683Y598713D01*
X398650Y598807D01*
X398621Y598903D01*
X398596Y598999D01*
X398575Y599096D01*
X398557Y599195D01*
X398544Y599293D01*
X398534Y599393D01*
X398528Y599492D01*
X398526Y599592D01*
X425196Y616102D02*
X426466Y616102D01*
D11*
X425196Y616102D02*
X425196Y623722D01*
X425196Y616102D02*
X425196Y608482D01*
X420116Y616102D02*
X420116Y623722D01*
X420116Y616102D02*
X420116Y608482D01*
D10*
X420116Y616102D02*
X418846Y616102D01*
D12*
X405511Y638327D02*
X402971Y638327D01*
X402871Y638329D01*
X402772Y638335D01*
X402672Y638345D01*
X402574Y638358D01*
X402475Y638376D01*
X402378Y638397D01*
X402282Y638422D01*
X402186Y638451D01*
X402092Y638484D01*
X401999Y638520D01*
X401908Y638560D01*
X401818Y638604D01*
X401730Y638651D01*
X401644Y638701D01*
X401560Y638755D01*
X401478Y638812D01*
X401399Y638872D01*
X401321Y638936D01*
X401247Y639002D01*
X401175Y639071D01*
X401106Y639143D01*
X401040Y639217D01*
X400976Y639295D01*
X400916Y639374D01*
X400859Y639456D01*
X400805Y639540D01*
X400755Y639626D01*
X400708Y639714D01*
X400664Y639804D01*
X400624Y639895D01*
X400588Y639988D01*
X400555Y640082D01*
X400526Y640178D01*
X400501Y640274D01*
X400480Y640371D01*
X400462Y640470D01*
X400449Y640568D01*
X400439Y640668D01*
X400433Y640767D01*
X400431Y640867D01*
X400431Y647217D01*
X400433Y647317D01*
X400439Y647416D01*
X400449Y647516D01*
X400462Y647614D01*
X400480Y647713D01*
X400501Y647810D01*
X400526Y647906D01*
X400555Y648002D01*
X400588Y648096D01*
X400624Y648189D01*
X400664Y648280D01*
X400708Y648370D01*
X400755Y648458D01*
X400805Y648544D01*
X400859Y648628D01*
X400916Y648710D01*
X400976Y648789D01*
X401040Y648867D01*
X401106Y648941D01*
X401175Y649013D01*
X401247Y649082D01*
X401321Y649148D01*
X401399Y649212D01*
X401478Y649272D01*
X401560Y649329D01*
X401644Y649383D01*
X401730Y649433D01*
X401818Y649480D01*
X401908Y649524D01*
X401999Y649564D01*
X402092Y649600D01*
X402186Y649633D01*
X402282Y649662D01*
X402378Y649687D01*
X402475Y649708D01*
X402574Y649726D01*
X402672Y649739D01*
X402772Y649749D01*
X402871Y649755D01*
X402971Y649757D01*
X405511Y649757D01*
X409993Y647217D02*
X413168Y649757D01*
X413168Y638327D01*
X409993Y638327D02*
X416343Y638327D01*
D10*
X386842Y595528D02*
X343662Y595528D01*
X343662Y633628D02*
X386842Y633628D01*
X341122Y631088D02*
X341122Y598068D01*
X389382Y598068D02*
X389382Y631088D01*
X343662Y595528D02*
X343562Y595530D01*
X343463Y595536D01*
X343363Y595546D01*
X343265Y595559D01*
X343166Y595577D01*
X343069Y595598D01*
X342973Y595623D01*
X342877Y595652D01*
X342783Y595685D01*
X342690Y595721D01*
X342599Y595761D01*
X342509Y595805D01*
X342421Y595852D01*
X342335Y595902D01*
X342251Y595956D01*
X342169Y596013D01*
X342090Y596073D01*
X342012Y596137D01*
X341938Y596203D01*
X341866Y596272D01*
X341797Y596344D01*
X341731Y596418D01*
X341667Y596496D01*
X341607Y596575D01*
X341550Y596657D01*
X341496Y596741D01*
X341446Y596827D01*
X341399Y596915D01*
X341355Y597005D01*
X341315Y597096D01*
X341279Y597189D01*
X341246Y597283D01*
X341217Y597379D01*
X341192Y597475D01*
X341171Y597572D01*
X341153Y597671D01*
X341140Y597769D01*
X341130Y597869D01*
X341124Y597968D01*
X341122Y598068D01*
X386842Y595528D02*
X386942Y595530D01*
X387041Y595536D01*
X387141Y595546D01*
X387239Y595559D01*
X387338Y595577D01*
X387435Y595598D01*
X387531Y595623D01*
X387627Y595652D01*
X387721Y595685D01*
X387814Y595721D01*
X387905Y595761D01*
X387995Y595805D01*
X388083Y595852D01*
X388169Y595902D01*
X388253Y595956D01*
X388335Y596013D01*
X388414Y596073D01*
X388492Y596137D01*
X388566Y596203D01*
X388638Y596272D01*
X388707Y596344D01*
X388773Y596418D01*
X388837Y596496D01*
X388897Y596575D01*
X388954Y596657D01*
X389008Y596741D01*
X389058Y596827D01*
X389105Y596915D01*
X389149Y597005D01*
X389189Y597096D01*
X389225Y597189D01*
X389258Y597283D01*
X389287Y597379D01*
X389312Y597475D01*
X389333Y597572D01*
X389351Y597671D01*
X389364Y597769D01*
X389374Y597869D01*
X389380Y597968D01*
X389382Y598068D01*
X343662Y633628D02*
X343562Y633626D01*
X343463Y633620D01*
X343363Y633610D01*
X343265Y633597D01*
X343166Y633579D01*
X343069Y633558D01*
X342973Y633533D01*
X342877Y633504D01*
X342783Y633471D01*
X342690Y633435D01*
X342599Y633395D01*
X342509Y633351D01*
X342421Y633304D01*
X342335Y633254D01*
X342251Y633200D01*
X342169Y633143D01*
X342090Y633083D01*
X342012Y633019D01*
X341938Y632953D01*
X341866Y632884D01*
X341797Y632812D01*
X341731Y632738D01*
X341667Y632660D01*
X341607Y632581D01*
X341550Y632499D01*
X341496Y632415D01*
X341446Y632329D01*
X341399Y632241D01*
X341355Y632151D01*
X341315Y632060D01*
X341279Y631967D01*
X341246Y631873D01*
X341217Y631777D01*
X341192Y631681D01*
X341171Y631584D01*
X341153Y631485D01*
X341140Y631387D01*
X341130Y631287D01*
X341124Y631188D01*
X341122Y631088D01*
X386842Y633628D02*
X386942Y633626D01*
X387041Y633620D01*
X387141Y633610D01*
X387239Y633597D01*
X387338Y633579D01*
X387435Y633558D01*
X387531Y633533D01*
X387627Y633504D01*
X387721Y633471D01*
X387814Y633435D01*
X387905Y633395D01*
X387995Y633351D01*
X388083Y633304D01*
X388169Y633254D01*
X388253Y633200D01*
X388335Y633143D01*
X388414Y633083D01*
X388492Y633019D01*
X388566Y632953D01*
X388638Y632884D01*
X388707Y632812D01*
X388773Y632738D01*
X388837Y632660D01*
X388897Y632581D01*
X388954Y632499D01*
X389008Y632415D01*
X389058Y632329D01*
X389105Y632241D01*
X389149Y632151D01*
X389189Y632060D01*
X389225Y631967D01*
X389258Y631873D01*
X389287Y631777D01*
X389312Y631681D01*
X389333Y631584D01*
X389351Y631485D01*
X389364Y631387D01*
X389374Y631287D01*
X389380Y631188D01*
X389382Y631088D01*
X362712Y614578D02*
X361442Y614578D01*
D11*
X362712Y614578D02*
X362712Y606958D01*
X362712Y614578D02*
X362712Y622198D01*
X367792Y614578D02*
X367792Y606958D01*
X367792Y614578D02*
X367792Y622198D01*
D10*
X367792Y614578D02*
X369062Y614578D01*
D12*
X374105Y580923D02*
X376645Y580923D01*
X374105Y580923D02*
X374005Y580925D01*
X373906Y580931D01*
X373806Y580941D01*
X373708Y580954D01*
X373609Y580972D01*
X373512Y580993D01*
X373416Y581018D01*
X373320Y581047D01*
X373226Y581080D01*
X373133Y581116D01*
X373042Y581156D01*
X372952Y581200D01*
X372864Y581247D01*
X372778Y581297D01*
X372694Y581351D01*
X372612Y581408D01*
X372533Y581468D01*
X372455Y581532D01*
X372381Y581598D01*
X372309Y581667D01*
X372240Y581739D01*
X372174Y581813D01*
X372110Y581891D01*
X372050Y581970D01*
X371993Y582052D01*
X371939Y582136D01*
X371889Y582222D01*
X371842Y582310D01*
X371798Y582400D01*
X371758Y582491D01*
X371722Y582584D01*
X371689Y582678D01*
X371660Y582774D01*
X371635Y582870D01*
X371614Y582967D01*
X371596Y583066D01*
X371583Y583164D01*
X371573Y583264D01*
X371567Y583363D01*
X371565Y583463D01*
X371565Y589813D01*
X371567Y589913D01*
X371573Y590012D01*
X371583Y590112D01*
X371596Y590210D01*
X371614Y590309D01*
X371635Y590406D01*
X371660Y590502D01*
X371689Y590598D01*
X371722Y590692D01*
X371758Y590785D01*
X371798Y590876D01*
X371842Y590966D01*
X371889Y591054D01*
X371939Y591140D01*
X371993Y591224D01*
X372050Y591306D01*
X372110Y591385D01*
X372174Y591463D01*
X372240Y591537D01*
X372309Y591609D01*
X372381Y591678D01*
X372455Y591744D01*
X372533Y591808D01*
X372612Y591868D01*
X372694Y591925D01*
X372778Y591979D01*
X372864Y592029D01*
X372952Y592076D01*
X373042Y592120D01*
X373133Y592160D01*
X373226Y592196D01*
X373320Y592229D01*
X373416Y592258D01*
X373512Y592283D01*
X373609Y592304D01*
X373708Y592322D01*
X373806Y592335D01*
X373906Y592345D01*
X374005Y592351D01*
X374105Y592353D01*
X376645Y592353D01*
X384620Y592354D02*
X384724Y592352D01*
X384829Y592346D01*
X384933Y592337D01*
X385036Y592324D01*
X385139Y592306D01*
X385241Y592286D01*
X385343Y592261D01*
X385443Y592233D01*
X385543Y592201D01*
X385641Y592165D01*
X385738Y592126D01*
X385833Y592084D01*
X385927Y592038D01*
X386019Y591988D01*
X386109Y591936D01*
X386197Y591880D01*
X386283Y591820D01*
X386367Y591758D01*
X386448Y591693D01*
X386527Y591625D01*
X386604Y591553D01*
X386677Y591480D01*
X386749Y591403D01*
X386817Y591324D01*
X386882Y591243D01*
X386944Y591159D01*
X387004Y591073D01*
X387060Y590985D01*
X387112Y590895D01*
X387162Y590803D01*
X387208Y590709D01*
X387250Y590614D01*
X387289Y590517D01*
X387325Y590419D01*
X387357Y590319D01*
X387385Y590219D01*
X387410Y590117D01*
X387430Y590015D01*
X387448Y589912D01*
X387461Y589809D01*
X387470Y589705D01*
X387476Y589600D01*
X387478Y589496D01*
X384620Y592353D02*
X384502Y592351D01*
X384383Y592345D01*
X384265Y592336D01*
X384148Y592323D01*
X384031Y592305D01*
X383914Y592285D01*
X383798Y592260D01*
X383683Y592232D01*
X383570Y592199D01*
X383457Y592164D01*
X383345Y592124D01*
X383235Y592082D01*
X383126Y592035D01*
X383018Y591985D01*
X382913Y591932D01*
X382809Y591875D01*
X382707Y591815D01*
X382607Y591752D01*
X382509Y591685D01*
X382413Y591616D01*
X382320Y591543D01*
X382229Y591467D01*
X382140Y591389D01*
X382054Y591307D01*
X381971Y591223D01*
X381890Y591137D01*
X381813Y591047D01*
X381738Y590956D01*
X381666Y590862D01*
X381597Y590765D01*
X381532Y590667D01*
X381469Y590566D01*
X381410Y590463D01*
X381354Y590359D01*
X381302Y590253D01*
X381253Y590145D01*
X381208Y590036D01*
X381166Y589925D01*
X381128Y589813D01*
X386525Y587274D02*
X386601Y587349D01*
X386676Y587428D01*
X386747Y587509D01*
X386816Y587593D01*
X386881Y587679D01*
X386943Y587767D01*
X387003Y587857D01*
X387059Y587949D01*
X387112Y588044D01*
X387161Y588140D01*
X387207Y588238D01*
X387250Y588337D01*
X387289Y588438D01*
X387324Y588540D01*
X387356Y588643D01*
X387384Y588747D01*
X387409Y588852D01*
X387430Y588959D01*
X387447Y589065D01*
X387460Y589172D01*
X387469Y589280D01*
X387475Y589388D01*
X387477Y589496D01*
X386525Y587273D02*
X381127Y580923D01*
X387477Y580923D01*
X326390Y591617D02*
X327660Y620827D01*
X326390Y591617D02*
X323850Y589077D01*
X229870Y589077D01*
X227330Y591617D01*
X226060Y620827D01*
X229362Y595173D02*
X229364Y595273D01*
X229370Y595374D01*
X229380Y595473D01*
X229394Y595573D01*
X229411Y595672D01*
X229433Y595770D01*
X229459Y595867D01*
X229488Y595963D01*
X229521Y596057D01*
X229558Y596151D01*
X229598Y596243D01*
X229642Y596333D01*
X229690Y596421D01*
X229741Y596508D01*
X229795Y596592D01*
X229853Y596674D01*
X229914Y596754D01*
X229978Y596831D01*
X230045Y596906D01*
X230115Y596978D01*
X230188Y597047D01*
X230263Y597113D01*
X230341Y597177D01*
X230421Y597237D01*
X230504Y597294D01*
X230589Y597347D01*
X230676Y597397D01*
X230765Y597444D01*
X230855Y597487D01*
X230947Y597527D01*
X231041Y597563D01*
X231136Y597595D01*
X231232Y597623D01*
X231330Y597648D01*
X231428Y597668D01*
X231527Y597685D01*
X231627Y597698D01*
X231726Y597707D01*
X231827Y597712D01*
X231927Y597713D01*
X232027Y597710D01*
X232128Y597703D01*
X232227Y597692D01*
X232327Y597677D01*
X232425Y597659D01*
X232523Y597636D01*
X232620Y597609D01*
X232715Y597579D01*
X232810Y597545D01*
X232903Y597507D01*
X232994Y597466D01*
X233084Y597421D01*
X233172Y597373D01*
X233258Y597321D01*
X233342Y597266D01*
X233423Y597207D01*
X233502Y597145D01*
X233579Y597081D01*
X233653Y597013D01*
X233724Y596942D01*
X233793Y596869D01*
X233858Y596793D01*
X233921Y596714D01*
X233980Y596633D01*
X234036Y596550D01*
X234089Y596465D01*
X234138Y596377D01*
X234184Y596288D01*
X234226Y596197D01*
X234265Y596104D01*
X234300Y596010D01*
X234331Y595915D01*
X234359Y595818D01*
X234382Y595721D01*
X234402Y595622D01*
X234418Y595523D01*
X234430Y595424D01*
X234438Y595323D01*
X234442Y595223D01*
X234442Y595123D01*
X234438Y595023D01*
X234430Y594922D01*
X234418Y594823D01*
X234402Y594724D01*
X234382Y594625D01*
X234359Y594528D01*
X234331Y594431D01*
X234300Y594336D01*
X234265Y594242D01*
X234226Y594149D01*
X234184Y594058D01*
X234138Y593969D01*
X234089Y593881D01*
X234036Y593796D01*
X233980Y593713D01*
X233921Y593632D01*
X233858Y593553D01*
X233793Y593477D01*
X233724Y593404D01*
X233653Y593333D01*
X233579Y593265D01*
X233502Y593201D01*
X233423Y593139D01*
X233342Y593080D01*
X233258Y593025D01*
X233172Y592973D01*
X233084Y592925D01*
X232994Y592880D01*
X232903Y592839D01*
X232810Y592801D01*
X232715Y592767D01*
X232620Y592737D01*
X232523Y592710D01*
X232425Y592687D01*
X232327Y592669D01*
X232227Y592654D01*
X232128Y592643D01*
X232027Y592636D01*
X231927Y592633D01*
X231827Y592634D01*
X231726Y592639D01*
X231627Y592648D01*
X231527Y592661D01*
X231428Y592678D01*
X231330Y592698D01*
X231232Y592723D01*
X231136Y592751D01*
X231041Y592783D01*
X230947Y592819D01*
X230855Y592859D01*
X230765Y592902D01*
X230676Y592949D01*
X230589Y592999D01*
X230504Y593052D01*
X230421Y593109D01*
X230341Y593169D01*
X230263Y593233D01*
X230188Y593299D01*
X230115Y593368D01*
X230045Y593440D01*
X229978Y593515D01*
X229914Y593592D01*
X229853Y593672D01*
X229795Y593754D01*
X229741Y593838D01*
X229690Y593925D01*
X229642Y594013D01*
X229598Y594103D01*
X229558Y594195D01*
X229521Y594289D01*
X229488Y594383D01*
X229459Y594479D01*
X229433Y594576D01*
X229411Y594674D01*
X229394Y594773D01*
X229380Y594873D01*
X229370Y594972D01*
X229364Y595073D01*
X229362Y595173D01*
X227965Y583870D02*
X227965Y572440D01*
X226695Y572440D02*
X229235Y572440D01*
X229235Y583870D02*
X226695Y583870D01*
X236437Y572440D02*
X238977Y572440D01*
X236437Y572440D02*
X236337Y572442D01*
X236238Y572448D01*
X236138Y572458D01*
X236040Y572471D01*
X235941Y572489D01*
X235844Y572510D01*
X235748Y572535D01*
X235652Y572564D01*
X235558Y572597D01*
X235465Y572633D01*
X235374Y572673D01*
X235284Y572717D01*
X235196Y572764D01*
X235110Y572814D01*
X235026Y572868D01*
X234944Y572925D01*
X234865Y572985D01*
X234787Y573049D01*
X234713Y573115D01*
X234641Y573184D01*
X234572Y573256D01*
X234506Y573330D01*
X234442Y573408D01*
X234382Y573487D01*
X234325Y573569D01*
X234271Y573653D01*
X234221Y573739D01*
X234174Y573827D01*
X234130Y573917D01*
X234090Y574008D01*
X234054Y574101D01*
X234021Y574195D01*
X233992Y574291D01*
X233967Y574387D01*
X233946Y574484D01*
X233928Y574583D01*
X233915Y574681D01*
X233905Y574781D01*
X233899Y574880D01*
X233897Y574980D01*
X233897Y581330D01*
X233899Y581430D01*
X233905Y581529D01*
X233915Y581629D01*
X233928Y581727D01*
X233946Y581826D01*
X233967Y581923D01*
X233992Y582019D01*
X234021Y582115D01*
X234054Y582209D01*
X234090Y582302D01*
X234130Y582393D01*
X234174Y582483D01*
X234221Y582571D01*
X234271Y582657D01*
X234325Y582741D01*
X234382Y582823D01*
X234442Y582902D01*
X234506Y582980D01*
X234572Y583054D01*
X234641Y583126D01*
X234713Y583195D01*
X234787Y583261D01*
X234865Y583325D01*
X234944Y583385D01*
X235026Y583442D01*
X235110Y583496D01*
X235196Y583546D01*
X235284Y583593D01*
X235374Y583637D01*
X235465Y583677D01*
X235558Y583713D01*
X235652Y583746D01*
X235748Y583775D01*
X235844Y583800D01*
X235941Y583821D01*
X236040Y583839D01*
X236138Y583852D01*
X236238Y583862D01*
X236337Y583868D01*
X236437Y583870D01*
X238977Y583870D01*
X246951Y583870D02*
X247055Y583868D01*
X247160Y583862D01*
X247264Y583853D01*
X247367Y583840D01*
X247470Y583822D01*
X247572Y583802D01*
X247674Y583777D01*
X247774Y583749D01*
X247874Y583717D01*
X247972Y583681D01*
X248069Y583642D01*
X248164Y583600D01*
X248258Y583554D01*
X248350Y583504D01*
X248440Y583452D01*
X248528Y583396D01*
X248614Y583336D01*
X248698Y583274D01*
X248779Y583209D01*
X248858Y583141D01*
X248935Y583069D01*
X249008Y582996D01*
X249080Y582919D01*
X249148Y582840D01*
X249213Y582759D01*
X249275Y582675D01*
X249335Y582589D01*
X249391Y582501D01*
X249443Y582411D01*
X249493Y582319D01*
X249539Y582225D01*
X249581Y582130D01*
X249620Y582033D01*
X249656Y581935D01*
X249688Y581835D01*
X249716Y581735D01*
X249741Y581633D01*
X249761Y581531D01*
X249779Y581428D01*
X249792Y581325D01*
X249801Y581221D01*
X249807Y581116D01*
X249809Y581012D01*
X246951Y583870D02*
X246833Y583868D01*
X246714Y583862D01*
X246596Y583853D01*
X246479Y583840D01*
X246362Y583822D01*
X246245Y583802D01*
X246129Y583777D01*
X246014Y583749D01*
X245901Y583716D01*
X245788Y583681D01*
X245676Y583641D01*
X245566Y583599D01*
X245457Y583552D01*
X245349Y583502D01*
X245244Y583449D01*
X245140Y583392D01*
X245038Y583332D01*
X244938Y583269D01*
X244840Y583202D01*
X244744Y583133D01*
X244651Y583060D01*
X244560Y582984D01*
X244471Y582906D01*
X244385Y582824D01*
X244302Y582740D01*
X244221Y582654D01*
X244144Y582564D01*
X244069Y582473D01*
X243997Y582379D01*
X243928Y582282D01*
X243863Y582184D01*
X243800Y582083D01*
X243741Y581980D01*
X243685Y581876D01*
X243633Y581770D01*
X243584Y581662D01*
X243539Y581553D01*
X243497Y581442D01*
X243459Y581330D01*
X248857Y578790D02*
X248933Y578865D01*
X249008Y578944D01*
X249079Y579025D01*
X249148Y579109D01*
X249213Y579195D01*
X249275Y579283D01*
X249335Y579373D01*
X249391Y579465D01*
X249444Y579560D01*
X249493Y579656D01*
X249539Y579754D01*
X249582Y579853D01*
X249621Y579954D01*
X249656Y580056D01*
X249688Y580159D01*
X249716Y580263D01*
X249741Y580368D01*
X249762Y580475D01*
X249779Y580581D01*
X249792Y580688D01*
X249801Y580796D01*
X249807Y580904D01*
X249809Y581012D01*
X248856Y578790D02*
X243459Y572440D01*
X249809Y572440D01*
D13*
X276860Y628447D03*
D14*
X233045Y622097D03*
D15*
X264160Y622097D03*
X289560Y622097D03*
D14*
X320675Y622097D03*
D12*
X431800Y90170D02*
X430530Y60960D01*
X427990Y58420D01*
X334010Y58420D01*
X331470Y60960D01*
X330200Y90170D01*
X333502Y64516D02*
X333504Y64616D01*
X333510Y64717D01*
X333520Y64816D01*
X333534Y64916D01*
X333551Y65015D01*
X333573Y65113D01*
X333599Y65210D01*
X333628Y65306D01*
X333661Y65400D01*
X333698Y65494D01*
X333738Y65586D01*
X333782Y65676D01*
X333830Y65764D01*
X333881Y65851D01*
X333935Y65935D01*
X333993Y66017D01*
X334054Y66097D01*
X334118Y66174D01*
X334185Y66249D01*
X334255Y66321D01*
X334328Y66390D01*
X334403Y66456D01*
X334481Y66520D01*
X334561Y66580D01*
X334644Y66637D01*
X334729Y66690D01*
X334816Y66740D01*
X334905Y66787D01*
X334995Y66830D01*
X335087Y66870D01*
X335181Y66906D01*
X335276Y66938D01*
X335372Y66966D01*
X335470Y66991D01*
X335568Y67011D01*
X335667Y67028D01*
X335767Y67041D01*
X335866Y67050D01*
X335967Y67055D01*
X336067Y67056D01*
X336167Y67053D01*
X336268Y67046D01*
X336367Y67035D01*
X336467Y67020D01*
X336565Y67002D01*
X336663Y66979D01*
X336760Y66952D01*
X336855Y66922D01*
X336950Y66888D01*
X337043Y66850D01*
X337134Y66809D01*
X337224Y66764D01*
X337312Y66716D01*
X337398Y66664D01*
X337482Y66609D01*
X337563Y66550D01*
X337642Y66488D01*
X337719Y66424D01*
X337793Y66356D01*
X337864Y66285D01*
X337933Y66212D01*
X337998Y66136D01*
X338061Y66057D01*
X338120Y65976D01*
X338176Y65893D01*
X338229Y65808D01*
X338278Y65720D01*
X338324Y65631D01*
X338366Y65540D01*
X338405Y65447D01*
X338440Y65353D01*
X338471Y65258D01*
X338499Y65161D01*
X338522Y65064D01*
X338542Y64965D01*
X338558Y64866D01*
X338570Y64767D01*
X338578Y64666D01*
X338582Y64566D01*
X338582Y64466D01*
X338578Y64366D01*
X338570Y64265D01*
X338558Y64166D01*
X338542Y64067D01*
X338522Y63968D01*
X338499Y63871D01*
X338471Y63774D01*
X338440Y63679D01*
X338405Y63585D01*
X338366Y63492D01*
X338324Y63401D01*
X338278Y63312D01*
X338229Y63224D01*
X338176Y63139D01*
X338120Y63056D01*
X338061Y62975D01*
X337998Y62896D01*
X337933Y62820D01*
X337864Y62747D01*
X337793Y62676D01*
X337719Y62608D01*
X337642Y62544D01*
X337563Y62482D01*
X337482Y62423D01*
X337398Y62368D01*
X337312Y62316D01*
X337224Y62268D01*
X337134Y62223D01*
X337043Y62182D01*
X336950Y62144D01*
X336855Y62110D01*
X336760Y62080D01*
X336663Y62053D01*
X336565Y62030D01*
X336467Y62012D01*
X336367Y61997D01*
X336268Y61986D01*
X336167Y61979D01*
X336067Y61976D01*
X335967Y61977D01*
X335866Y61982D01*
X335767Y61991D01*
X335667Y62004D01*
X335568Y62021D01*
X335470Y62041D01*
X335372Y62066D01*
X335276Y62094D01*
X335181Y62126D01*
X335087Y62162D01*
X334995Y62202D01*
X334905Y62245D01*
X334816Y62292D01*
X334729Y62342D01*
X334644Y62395D01*
X334561Y62452D01*
X334481Y62512D01*
X334403Y62576D01*
X334328Y62642D01*
X334255Y62711D01*
X334185Y62783D01*
X334118Y62858D01*
X334054Y62935D01*
X333993Y63015D01*
X333935Y63097D01*
X333881Y63181D01*
X333830Y63268D01*
X333782Y63356D01*
X333738Y63446D01*
X333698Y63538D01*
X333661Y63632D01*
X333628Y63726D01*
X333599Y63822D01*
X333573Y63919D01*
X333551Y64017D01*
X333534Y64116D01*
X333520Y64216D01*
X333510Y64315D01*
X333504Y64416D01*
X333502Y64516D01*
X332105Y53213D02*
X332105Y41783D01*
X330835Y41783D02*
X333375Y41783D01*
X333375Y53213D02*
X330835Y53213D01*
X340577Y41783D02*
X343117Y41783D01*
X340577Y41783D02*
X340477Y41785D01*
X340378Y41791D01*
X340278Y41801D01*
X340180Y41814D01*
X340081Y41832D01*
X339984Y41853D01*
X339888Y41878D01*
X339792Y41907D01*
X339698Y41940D01*
X339605Y41976D01*
X339514Y42016D01*
X339424Y42060D01*
X339336Y42107D01*
X339250Y42157D01*
X339166Y42211D01*
X339084Y42268D01*
X339005Y42328D01*
X338927Y42392D01*
X338853Y42458D01*
X338781Y42527D01*
X338712Y42599D01*
X338646Y42673D01*
X338582Y42751D01*
X338522Y42830D01*
X338465Y42912D01*
X338411Y42996D01*
X338361Y43082D01*
X338314Y43170D01*
X338270Y43260D01*
X338230Y43351D01*
X338194Y43444D01*
X338161Y43538D01*
X338132Y43634D01*
X338107Y43730D01*
X338086Y43827D01*
X338068Y43926D01*
X338055Y44024D01*
X338045Y44124D01*
X338039Y44223D01*
X338037Y44323D01*
X338037Y50673D01*
X338039Y50773D01*
X338045Y50872D01*
X338055Y50972D01*
X338068Y51070D01*
X338086Y51169D01*
X338107Y51266D01*
X338132Y51362D01*
X338161Y51458D01*
X338194Y51552D01*
X338230Y51645D01*
X338270Y51736D01*
X338314Y51826D01*
X338361Y51914D01*
X338411Y52000D01*
X338465Y52084D01*
X338522Y52166D01*
X338582Y52245D01*
X338646Y52323D01*
X338712Y52397D01*
X338781Y52469D01*
X338853Y52538D01*
X338927Y52604D01*
X339005Y52668D01*
X339084Y52728D01*
X339166Y52785D01*
X339250Y52839D01*
X339336Y52889D01*
X339424Y52936D01*
X339514Y52980D01*
X339605Y53020D01*
X339698Y53056D01*
X339792Y53089D01*
X339888Y53118D01*
X339984Y53143D01*
X340081Y53164D01*
X340180Y53182D01*
X340278Y53195D01*
X340378Y53205D01*
X340477Y53211D01*
X340577Y53213D01*
X343117Y53213D01*
X347599Y41783D02*
X350774Y41783D01*
X350885Y41785D01*
X350995Y41791D01*
X351106Y41800D01*
X351216Y41814D01*
X351325Y41831D01*
X351434Y41852D01*
X351542Y41877D01*
X351649Y41906D01*
X351755Y41938D01*
X351860Y41974D01*
X351963Y42014D01*
X352065Y42057D01*
X352166Y42104D01*
X352265Y42155D01*
X352362Y42208D01*
X352456Y42265D01*
X352549Y42326D01*
X352640Y42389D01*
X352729Y42456D01*
X352815Y42526D01*
X352898Y42599D01*
X352980Y42674D01*
X353058Y42752D01*
X353133Y42834D01*
X353206Y42917D01*
X353276Y43003D01*
X353343Y43092D01*
X353406Y43183D01*
X353467Y43276D01*
X353524Y43370D01*
X353577Y43467D01*
X353628Y43566D01*
X353675Y43667D01*
X353718Y43769D01*
X353758Y43872D01*
X353794Y43977D01*
X353826Y44083D01*
X353855Y44190D01*
X353880Y44298D01*
X353901Y44407D01*
X353918Y44516D01*
X353932Y44626D01*
X353941Y44737D01*
X353947Y44847D01*
X353949Y44958D01*
X353947Y45069D01*
X353941Y45179D01*
X353932Y45290D01*
X353918Y45400D01*
X353901Y45509D01*
X353880Y45618D01*
X353855Y45726D01*
X353826Y45833D01*
X353794Y45939D01*
X353758Y46044D01*
X353718Y46147D01*
X353675Y46249D01*
X353628Y46350D01*
X353577Y46449D01*
X353524Y46545D01*
X353467Y46640D01*
X353406Y46733D01*
X353343Y46824D01*
X353276Y46913D01*
X353206Y46999D01*
X353133Y47082D01*
X353058Y47164D01*
X352980Y47242D01*
X352898Y47317D01*
X352815Y47390D01*
X352729Y47460D01*
X352640Y47527D01*
X352549Y47590D01*
X352456Y47651D01*
X352362Y47708D01*
X352265Y47761D01*
X352166Y47812D01*
X352065Y47859D01*
X351963Y47902D01*
X351860Y47942D01*
X351755Y47978D01*
X351649Y48010D01*
X351542Y48039D01*
X351434Y48064D01*
X351325Y48085D01*
X351216Y48102D01*
X351106Y48116D01*
X350995Y48125D01*
X350885Y48131D01*
X350774Y48133D01*
X351409Y53213D02*
X347599Y53213D01*
X351409Y53213D02*
X351509Y53211D01*
X351608Y53205D01*
X351708Y53195D01*
X351806Y53182D01*
X351905Y53164D01*
X352002Y53143D01*
X352098Y53118D01*
X352194Y53089D01*
X352288Y53056D01*
X352381Y53020D01*
X352472Y52980D01*
X352562Y52936D01*
X352650Y52889D01*
X352736Y52839D01*
X352820Y52785D01*
X352902Y52728D01*
X352981Y52668D01*
X353059Y52604D01*
X353133Y52538D01*
X353205Y52469D01*
X353274Y52397D01*
X353340Y52323D01*
X353404Y52245D01*
X353464Y52166D01*
X353521Y52084D01*
X353575Y52000D01*
X353625Y51914D01*
X353672Y51826D01*
X353716Y51736D01*
X353756Y51645D01*
X353792Y51552D01*
X353825Y51458D01*
X353854Y51362D01*
X353879Y51266D01*
X353900Y51169D01*
X353918Y51070D01*
X353931Y50972D01*
X353941Y50872D01*
X353947Y50773D01*
X353949Y50673D01*
X353947Y50573D01*
X353941Y50474D01*
X353931Y50374D01*
X353918Y50276D01*
X353900Y50177D01*
X353879Y50080D01*
X353854Y49984D01*
X353825Y49888D01*
X353792Y49794D01*
X353756Y49701D01*
X353716Y49610D01*
X353672Y49520D01*
X353625Y49432D01*
X353575Y49346D01*
X353521Y49262D01*
X353464Y49180D01*
X353404Y49101D01*
X353340Y49023D01*
X353274Y48949D01*
X353205Y48877D01*
X353133Y48808D01*
X353059Y48742D01*
X352981Y48678D01*
X352902Y48618D01*
X352820Y48561D01*
X352736Y48507D01*
X352650Y48457D01*
X352562Y48410D01*
X352472Y48366D01*
X352381Y48326D01*
X352288Y48290D01*
X352194Y48257D01*
X352098Y48228D01*
X352002Y48203D01*
X351905Y48182D01*
X351806Y48164D01*
X351708Y48151D01*
X351608Y48141D01*
X351509Y48135D01*
X351409Y48133D01*
X348869Y48133D01*
D13*
X381000Y97790D03*
D14*
X337185Y91440D03*
D15*
X368300Y91440D03*
X393700Y91440D03*
D14*
X424815Y91440D03*
D10*
X50800Y374650D02*
X50800Y387350D01*
X50800Y374650D02*
X44450Y368300D01*
X31750Y368300D01*
X25400Y374650D01*
X44450Y368300D02*
X50800Y361950D01*
X50800Y349250D01*
X44450Y342900D01*
X31750Y342900D01*
X25400Y349250D01*
X25400Y361950D01*
X31750Y368300D01*
X50800Y412750D02*
X44450Y419100D01*
X50800Y412750D02*
X50800Y400050D01*
X44450Y393700D01*
X31750Y393700D01*
X25400Y400050D01*
X25400Y412750D01*
X31750Y419100D01*
X44450Y393700D02*
X50800Y387350D01*
X31750Y393700D02*
X25400Y387350D01*
X25400Y374650D01*
X50800Y450850D02*
X50800Y463550D01*
X50800Y450850D02*
X44450Y444500D01*
X31750Y444500D01*
X25400Y450850D01*
X44450Y444500D02*
X50800Y438150D01*
X50800Y425450D01*
X44450Y419100D01*
X31750Y419100D01*
X25400Y425450D01*
X25400Y438150D01*
X31750Y444500D01*
X31750Y469900D02*
X44450Y469900D01*
X50800Y463550D01*
X31750Y469900D02*
X25400Y463550D01*
X25400Y450850D01*
X50800Y336550D02*
X50800Y323850D01*
X44450Y317500D01*
X31750Y317500D01*
X25400Y323850D01*
X44450Y342900D02*
X50800Y336550D01*
X31750Y342900D02*
X25400Y336550D01*
X25400Y323850D01*
D12*
X57023Y446838D02*
X65913Y446838D01*
X66013Y446836D01*
X66112Y446830D01*
X66212Y446820D01*
X66310Y446807D01*
X66409Y446789D01*
X66506Y446768D01*
X66602Y446743D01*
X66698Y446714D01*
X66792Y446681D01*
X66885Y446645D01*
X66976Y446605D01*
X67066Y446561D01*
X67154Y446514D01*
X67240Y446464D01*
X67324Y446410D01*
X67406Y446353D01*
X67485Y446293D01*
X67563Y446229D01*
X67637Y446163D01*
X67709Y446094D01*
X67778Y446022D01*
X67844Y445948D01*
X67908Y445870D01*
X67968Y445791D01*
X68025Y445709D01*
X68079Y445625D01*
X68129Y445539D01*
X68176Y445451D01*
X68220Y445361D01*
X68260Y445270D01*
X68296Y445177D01*
X68329Y445083D01*
X68358Y444987D01*
X68383Y444891D01*
X68404Y444794D01*
X68422Y444695D01*
X68435Y444597D01*
X68445Y444497D01*
X68451Y444398D01*
X68453Y444298D01*
X68453Y443028D01*
X68453Y452819D02*
X57023Y452819D01*
X57023Y455994D01*
X57025Y456105D01*
X57031Y456215D01*
X57040Y456326D01*
X57054Y456436D01*
X57071Y456545D01*
X57092Y456654D01*
X57117Y456762D01*
X57146Y456869D01*
X57178Y456975D01*
X57214Y457080D01*
X57254Y457183D01*
X57297Y457285D01*
X57344Y457386D01*
X57395Y457485D01*
X57448Y457582D01*
X57505Y457676D01*
X57566Y457769D01*
X57629Y457860D01*
X57696Y457949D01*
X57766Y458035D01*
X57839Y458118D01*
X57914Y458200D01*
X57992Y458278D01*
X58074Y458353D01*
X58157Y458426D01*
X58243Y458496D01*
X58332Y458563D01*
X58423Y458626D01*
X58516Y458687D01*
X58610Y458744D01*
X58707Y458797D01*
X58806Y458848D01*
X58907Y458895D01*
X59009Y458938D01*
X59112Y458978D01*
X59217Y459014D01*
X59323Y459046D01*
X59430Y459075D01*
X59538Y459100D01*
X59647Y459121D01*
X59756Y459138D01*
X59866Y459152D01*
X59977Y459161D01*
X60087Y459167D01*
X60198Y459169D01*
X60309Y459167D01*
X60419Y459161D01*
X60530Y459152D01*
X60640Y459138D01*
X60749Y459121D01*
X60858Y459100D01*
X60966Y459075D01*
X61073Y459046D01*
X61179Y459014D01*
X61284Y458978D01*
X61387Y458938D01*
X61489Y458895D01*
X61590Y458848D01*
X61689Y458797D01*
X61786Y458744D01*
X61880Y458687D01*
X61973Y458626D01*
X62064Y458563D01*
X62153Y458496D01*
X62239Y458426D01*
X62322Y458353D01*
X62404Y458278D01*
X62482Y458200D01*
X62557Y458118D01*
X62630Y458035D01*
X62700Y457949D01*
X62767Y457860D01*
X62830Y457769D01*
X62891Y457676D01*
X62948Y457582D01*
X63001Y457485D01*
X63052Y457386D01*
X63099Y457285D01*
X63142Y457183D01*
X63182Y457080D01*
X63218Y456975D01*
X63250Y456869D01*
X63279Y456762D01*
X63304Y456654D01*
X63325Y456545D01*
X63342Y456436D01*
X63356Y456326D01*
X63365Y456215D01*
X63371Y456105D01*
X63373Y455994D01*
X63373Y452819D01*
X59563Y463677D02*
X57023Y466852D01*
X68453Y466852D01*
X68453Y463677D02*
X68453Y470027D01*
X189351Y441961D02*
X189419Y441328D01*
X189502Y440698D01*
X189601Y440070D01*
X189714Y439444D01*
X189842Y438822D01*
X189984Y438202D01*
X190142Y437586D01*
X190314Y436974D01*
X190501Y436366D01*
X190702Y435763D01*
X190917Y435165D01*
X191147Y434572D01*
X191390Y433985D01*
X191648Y433404D01*
X191919Y432829D01*
X192204Y432260D01*
X192503Y431699D01*
X192815Y431145D01*
X193140Y430598D01*
X193477Y430060D01*
X193828Y429530D01*
X194191Y429008D01*
X194567Y428495D01*
X194954Y427991D01*
X189351Y441960D02*
X189297Y442609D01*
X189259Y443258D01*
X189237Y443909D01*
X189230Y444560D01*
X189239Y445211D01*
X189265Y445861D01*
X189306Y446511D01*
X189363Y447159D01*
X189436Y447806D01*
X189524Y448451D01*
X189629Y449094D01*
X189749Y449734D01*
X189884Y450370D01*
X190035Y451004D01*
X190202Y451633D01*
X190383Y452258D01*
X190580Y452879D01*
X190792Y453494D01*
X191019Y454104D01*
X191261Y454709D01*
X191518Y455307D01*
X191789Y455899D01*
X192074Y456484D01*
X192374Y457062D01*
X192687Y457632D01*
X193015Y458195D01*
X193356Y458749D01*
X193710Y459295D01*
X194078Y459832D01*
X194459Y460361D01*
X194852Y460879D01*
X195258Y461388D01*
X195676Y461887D01*
X196107Y462375D01*
X196549Y462853D01*
X197003Y463320D01*
X197468Y463775D01*
X197944Y464219D01*
X198430Y464652D01*
X198927Y465072D01*
X199434Y465480D01*
X199951Y465876D01*
X200478Y466259D01*
X201014Y466629D01*
X201558Y466986D01*
X202111Y467329D01*
X202672Y467659D01*
X203242Y467975D01*
X203818Y468277D01*
X204402Y468564D01*
X204993Y468838D01*
X205590Y469097D01*
X206194Y469341D01*
X206803Y469571D01*
X207417Y469785D01*
X208037Y469985D01*
X223763Y469985D02*
X224378Y469786D01*
X224989Y469574D01*
X225594Y469346D01*
X226193Y469104D01*
X226786Y468847D01*
X227373Y468576D01*
X227953Y468291D01*
X228526Y467992D01*
X229092Y467679D01*
X229650Y467352D01*
X230200Y467012D01*
X230741Y466659D01*
X231274Y466293D01*
X231797Y465914D01*
X232312Y465522D01*
X232816Y465119D01*
X233311Y464702D01*
X233796Y464275D01*
X234270Y463835D01*
X234733Y463384D01*
X235185Y462922D01*
X235626Y462449D01*
X236055Y461966D01*
X236472Y461472D01*
X236878Y460969D01*
X237271Y460456D01*
X237651Y459933D01*
X238019Y459401D01*
X238373Y458861D01*
X238715Y458312D01*
X239043Y457755D01*
X239357Y457190D01*
X239658Y456618D01*
X239945Y456039D01*
X240217Y455452D01*
X240476Y454860D01*
X240719Y454261D01*
X240949Y453657D01*
X241163Y453047D01*
X241363Y452432D01*
X241548Y451813D01*
X241718Y451189D01*
X241872Y450561D01*
X242011Y449930D01*
X242135Y449296D01*
X242244Y448658D01*
X242337Y448019D01*
X242414Y447377D01*
X242476Y446734D01*
X242523Y446089D01*
X242553Y445443D01*
X242568Y444797D01*
X242568Y444151D01*
X242551Y443504D01*
X242519Y442859D01*
X242472Y442214D01*
X242409Y441571D01*
X242330Y440929D01*
X242236Y440290D01*
X242126Y439653D01*
X242001Y439018D01*
X241860Y438387D01*
X241704Y437760D01*
X241533Y437137D01*
X241347Y436518D01*
X241146Y435903D01*
X240931Y435294D01*
X240700Y434690D01*
X240455Y434092D01*
X240196Y433500D01*
X239922Y432914D01*
X239634Y432335D01*
X239332Y431764D01*
X239017Y431199D01*
X238688Y430643D01*
X238345Y430095D01*
X237989Y429555D01*
X237621Y429024D01*
X237239Y428502D01*
X236845Y427990D01*
X194955Y427990D01*
X193363Y441960D02*
X189351Y441960D01*
X213037Y441960D02*
X218763Y441960D01*
X238437Y441960D02*
X242449Y441960D01*
D10*
X365760Y447040D02*
X365860Y447042D01*
X365959Y447048D01*
X366059Y447058D01*
X366157Y447071D01*
X366256Y447089D01*
X366353Y447110D01*
X366449Y447135D01*
X366545Y447164D01*
X366639Y447197D01*
X366732Y447233D01*
X366823Y447273D01*
X366913Y447317D01*
X367001Y447364D01*
X367087Y447414D01*
X367171Y447468D01*
X367253Y447525D01*
X367332Y447585D01*
X367410Y447649D01*
X367484Y447715D01*
X367556Y447784D01*
X367625Y447856D01*
X367691Y447930D01*
X367755Y448008D01*
X367815Y448087D01*
X367872Y448169D01*
X367926Y448253D01*
X367976Y448339D01*
X368023Y448427D01*
X368067Y448517D01*
X368107Y448608D01*
X368143Y448701D01*
X368176Y448795D01*
X368205Y448891D01*
X368230Y448987D01*
X368251Y449084D01*
X368269Y449183D01*
X368282Y449281D01*
X368292Y449381D01*
X368298Y449480D01*
X368300Y449580D01*
X368300Y464820D02*
X368298Y464920D01*
X368292Y465019D01*
X368282Y465119D01*
X368269Y465217D01*
X368251Y465316D01*
X368230Y465413D01*
X368205Y465509D01*
X368176Y465605D01*
X368143Y465699D01*
X368107Y465792D01*
X368067Y465883D01*
X368023Y465973D01*
X367976Y466061D01*
X367926Y466147D01*
X367872Y466231D01*
X367815Y466313D01*
X367755Y466392D01*
X367691Y466470D01*
X367625Y466544D01*
X367556Y466616D01*
X367484Y466685D01*
X367410Y466751D01*
X367332Y466815D01*
X367253Y466875D01*
X367171Y466932D01*
X367087Y466986D01*
X367001Y467036D01*
X366913Y467083D01*
X366823Y467127D01*
X366732Y467167D01*
X366639Y467203D01*
X366545Y467236D01*
X366449Y467265D01*
X366353Y467290D01*
X366256Y467311D01*
X366157Y467329D01*
X366059Y467342D01*
X365959Y467352D01*
X365860Y467358D01*
X365760Y467360D01*
X320040Y467360D02*
X319940Y467358D01*
X319841Y467352D01*
X319741Y467342D01*
X319643Y467329D01*
X319544Y467311D01*
X319447Y467290D01*
X319351Y467265D01*
X319255Y467236D01*
X319161Y467203D01*
X319068Y467167D01*
X318977Y467127D01*
X318887Y467083D01*
X318799Y467036D01*
X318713Y466986D01*
X318629Y466932D01*
X318547Y466875D01*
X318468Y466815D01*
X318390Y466751D01*
X318316Y466685D01*
X318244Y466616D01*
X318175Y466544D01*
X318109Y466470D01*
X318045Y466392D01*
X317985Y466313D01*
X317928Y466231D01*
X317874Y466147D01*
X317824Y466061D01*
X317777Y465973D01*
X317733Y465883D01*
X317693Y465792D01*
X317657Y465699D01*
X317624Y465605D01*
X317595Y465509D01*
X317570Y465413D01*
X317549Y465316D01*
X317531Y465217D01*
X317518Y465119D01*
X317508Y465019D01*
X317502Y464920D01*
X317500Y464820D01*
X317500Y449580D02*
X317502Y449480D01*
X317508Y449381D01*
X317518Y449281D01*
X317531Y449183D01*
X317549Y449084D01*
X317570Y448987D01*
X317595Y448891D01*
X317624Y448795D01*
X317657Y448701D01*
X317693Y448608D01*
X317733Y448517D01*
X317777Y448427D01*
X317824Y448339D01*
X317874Y448253D01*
X317928Y448169D01*
X317985Y448087D01*
X318045Y448008D01*
X318109Y447930D01*
X318175Y447856D01*
X318244Y447784D01*
X318316Y447715D01*
X318390Y447649D01*
X318468Y447585D01*
X318547Y447525D01*
X318629Y447468D01*
X318713Y447414D01*
X318799Y447364D01*
X318887Y447317D01*
X318977Y447273D01*
X319068Y447233D01*
X319161Y447197D01*
X319255Y447164D01*
X319351Y447135D01*
X319447Y447110D01*
X319544Y447089D01*
X319643Y447071D01*
X319741Y447058D01*
X319841Y447048D01*
X319940Y447042D01*
X320040Y447040D01*
X368300Y449580D02*
X368300Y464820D01*
X365760Y447040D02*
X361950Y447040D01*
X360680Y448310D01*
X361950Y467360D02*
X365760Y467360D01*
X361950Y467360D02*
X360680Y466090D01*
X325120Y448310D02*
X323850Y447040D01*
X325120Y448310D02*
X360680Y448310D01*
X325120Y466090D02*
X323850Y467360D01*
X325120Y466090D02*
X360680Y466090D01*
X323850Y447040D02*
X320040Y447040D01*
X320040Y467360D02*
X323850Y467360D01*
X317500Y464820D02*
X317500Y449580D01*
D16*
X315595Y457200D03*
X370205Y457200D03*
D12*
X118754Y427991D02*
X118367Y428495D01*
X117991Y429008D01*
X117628Y429530D01*
X117277Y430060D01*
X116940Y430598D01*
X116615Y431145D01*
X116303Y431699D01*
X116004Y432260D01*
X115719Y432829D01*
X115448Y433404D01*
X115190Y433985D01*
X114947Y434572D01*
X114717Y435165D01*
X114502Y435763D01*
X114301Y436366D01*
X114114Y436974D01*
X113942Y437586D01*
X113784Y438202D01*
X113642Y438822D01*
X113514Y439444D01*
X113401Y440070D01*
X113302Y440698D01*
X113219Y441328D01*
X113151Y441961D01*
X113151Y441960D02*
X113097Y442609D01*
X113059Y443258D01*
X113037Y443909D01*
X113030Y444560D01*
X113039Y445211D01*
X113065Y445861D01*
X113106Y446511D01*
X113163Y447159D01*
X113236Y447806D01*
X113324Y448451D01*
X113429Y449094D01*
X113549Y449734D01*
X113684Y450370D01*
X113835Y451004D01*
X114002Y451633D01*
X114183Y452258D01*
X114380Y452879D01*
X114592Y453494D01*
X114819Y454104D01*
X115061Y454709D01*
X115318Y455307D01*
X115589Y455899D01*
X115874Y456484D01*
X116174Y457062D01*
X116487Y457632D01*
X116815Y458195D01*
X117156Y458749D01*
X117510Y459295D01*
X117878Y459832D01*
X118259Y460361D01*
X118652Y460879D01*
X119058Y461388D01*
X119476Y461887D01*
X119907Y462375D01*
X120349Y462853D01*
X120803Y463320D01*
X121268Y463775D01*
X121744Y464219D01*
X122230Y464652D01*
X122727Y465072D01*
X123234Y465480D01*
X123751Y465876D01*
X124278Y466259D01*
X124814Y466629D01*
X125358Y466986D01*
X125911Y467329D01*
X126472Y467659D01*
X127042Y467975D01*
X127618Y468277D01*
X128202Y468564D01*
X128793Y468838D01*
X129390Y469097D01*
X129994Y469341D01*
X130603Y469571D01*
X131217Y469785D01*
X131837Y469985D01*
X147563Y469985D02*
X148178Y469786D01*
X148789Y469574D01*
X149394Y469346D01*
X149993Y469104D01*
X150586Y468847D01*
X151173Y468576D01*
X151753Y468291D01*
X152326Y467992D01*
X152892Y467679D01*
X153450Y467352D01*
X154000Y467012D01*
X154541Y466659D01*
X155074Y466293D01*
X155597Y465914D01*
X156112Y465522D01*
X156616Y465119D01*
X157111Y464702D01*
X157596Y464275D01*
X158070Y463835D01*
X158533Y463384D01*
X158985Y462922D01*
X159426Y462449D01*
X159855Y461966D01*
X160272Y461472D01*
X160678Y460969D01*
X161071Y460456D01*
X161451Y459933D01*
X161819Y459401D01*
X162173Y458861D01*
X162515Y458312D01*
X162843Y457755D01*
X163157Y457190D01*
X163458Y456618D01*
X163745Y456039D01*
X164017Y455452D01*
X164276Y454860D01*
X164519Y454261D01*
X164749Y453657D01*
X164963Y453047D01*
X165163Y452432D01*
X165348Y451813D01*
X165518Y451189D01*
X165672Y450561D01*
X165811Y449930D01*
X165935Y449296D01*
X166044Y448658D01*
X166137Y448019D01*
X166214Y447377D01*
X166276Y446734D01*
X166323Y446089D01*
X166353Y445443D01*
X166368Y444797D01*
X166368Y444151D01*
X166351Y443504D01*
X166319Y442859D01*
X166272Y442214D01*
X166209Y441571D01*
X166130Y440929D01*
X166036Y440290D01*
X165926Y439653D01*
X165801Y439018D01*
X165660Y438387D01*
X165504Y437760D01*
X165333Y437137D01*
X165147Y436518D01*
X164946Y435903D01*
X164731Y435294D01*
X164500Y434690D01*
X164255Y434092D01*
X163996Y433500D01*
X163722Y432914D01*
X163434Y432335D01*
X163132Y431764D01*
X162817Y431199D01*
X162488Y430643D01*
X162145Y430095D01*
X161789Y429555D01*
X161421Y429024D01*
X161039Y428502D01*
X160645Y427990D01*
X118755Y427990D01*
X117163Y441960D02*
X113151Y441960D01*
X136837Y441960D02*
X142563Y441960D01*
X162237Y441960D02*
X166249Y441960D01*
D10*
X365760Y408940D02*
X365860Y408942D01*
X365959Y408948D01*
X366059Y408958D01*
X366157Y408971D01*
X366256Y408989D01*
X366353Y409010D01*
X366449Y409035D01*
X366545Y409064D01*
X366639Y409097D01*
X366732Y409133D01*
X366823Y409173D01*
X366913Y409217D01*
X367001Y409264D01*
X367087Y409314D01*
X367171Y409368D01*
X367253Y409425D01*
X367332Y409485D01*
X367410Y409549D01*
X367484Y409615D01*
X367556Y409684D01*
X367625Y409756D01*
X367691Y409830D01*
X367755Y409908D01*
X367815Y409987D01*
X367872Y410069D01*
X367926Y410153D01*
X367976Y410239D01*
X368023Y410327D01*
X368067Y410417D01*
X368107Y410508D01*
X368143Y410601D01*
X368176Y410695D01*
X368205Y410791D01*
X368230Y410887D01*
X368251Y410984D01*
X368269Y411083D01*
X368282Y411181D01*
X368292Y411281D01*
X368298Y411380D01*
X368300Y411480D01*
X368300Y426720D02*
X368298Y426820D01*
X368292Y426919D01*
X368282Y427019D01*
X368269Y427117D01*
X368251Y427216D01*
X368230Y427313D01*
X368205Y427409D01*
X368176Y427505D01*
X368143Y427599D01*
X368107Y427692D01*
X368067Y427783D01*
X368023Y427873D01*
X367976Y427961D01*
X367926Y428047D01*
X367872Y428131D01*
X367815Y428213D01*
X367755Y428292D01*
X367691Y428370D01*
X367625Y428444D01*
X367556Y428516D01*
X367484Y428585D01*
X367410Y428651D01*
X367332Y428715D01*
X367253Y428775D01*
X367171Y428832D01*
X367087Y428886D01*
X367001Y428936D01*
X366913Y428983D01*
X366823Y429027D01*
X366732Y429067D01*
X366639Y429103D01*
X366545Y429136D01*
X366449Y429165D01*
X366353Y429190D01*
X366256Y429211D01*
X366157Y429229D01*
X366059Y429242D01*
X365959Y429252D01*
X365860Y429258D01*
X365760Y429260D01*
X320040Y429260D02*
X319940Y429258D01*
X319841Y429252D01*
X319741Y429242D01*
X319643Y429229D01*
X319544Y429211D01*
X319447Y429190D01*
X319351Y429165D01*
X319255Y429136D01*
X319161Y429103D01*
X319068Y429067D01*
X318977Y429027D01*
X318887Y428983D01*
X318799Y428936D01*
X318713Y428886D01*
X318629Y428832D01*
X318547Y428775D01*
X318468Y428715D01*
X318390Y428651D01*
X318316Y428585D01*
X318244Y428516D01*
X318175Y428444D01*
X318109Y428370D01*
X318045Y428292D01*
X317985Y428213D01*
X317928Y428131D01*
X317874Y428047D01*
X317824Y427961D01*
X317777Y427873D01*
X317733Y427783D01*
X317693Y427692D01*
X317657Y427599D01*
X317624Y427505D01*
X317595Y427409D01*
X317570Y427313D01*
X317549Y427216D01*
X317531Y427117D01*
X317518Y427019D01*
X317508Y426919D01*
X317502Y426820D01*
X317500Y426720D01*
X317500Y411480D02*
X317502Y411380D01*
X317508Y411281D01*
X317518Y411181D01*
X317531Y411083D01*
X317549Y410984D01*
X317570Y410887D01*
X317595Y410791D01*
X317624Y410695D01*
X317657Y410601D01*
X317693Y410508D01*
X317733Y410417D01*
X317777Y410327D01*
X317824Y410239D01*
X317874Y410153D01*
X317928Y410069D01*
X317985Y409987D01*
X318045Y409908D01*
X318109Y409830D01*
X318175Y409756D01*
X318244Y409684D01*
X318316Y409615D01*
X318390Y409549D01*
X318468Y409485D01*
X318547Y409425D01*
X318629Y409368D01*
X318713Y409314D01*
X318799Y409264D01*
X318887Y409217D01*
X318977Y409173D01*
X319068Y409133D01*
X319161Y409097D01*
X319255Y409064D01*
X319351Y409035D01*
X319447Y409010D01*
X319544Y408989D01*
X319643Y408971D01*
X319741Y408958D01*
X319841Y408948D01*
X319940Y408942D01*
X320040Y408940D01*
X368300Y411480D02*
X368300Y426720D01*
X365760Y408940D02*
X361950Y408940D01*
X360680Y410210D01*
X361950Y429260D02*
X365760Y429260D01*
X361950Y429260D02*
X360680Y427990D01*
X325120Y410210D02*
X323850Y408940D01*
X325120Y410210D02*
X360680Y410210D01*
X325120Y427990D02*
X323850Y429260D01*
X325120Y427990D02*
X360680Y427990D01*
X323850Y408940D02*
X320040Y408940D01*
X320040Y429260D02*
X323850Y429260D01*
X317500Y426720D02*
X317500Y411480D01*
D16*
X315595Y419100D03*
X370205Y419100D03*
D12*
X194954Y364491D02*
X194567Y364995D01*
X194191Y365508D01*
X193828Y366030D01*
X193477Y366560D01*
X193140Y367098D01*
X192815Y367645D01*
X192503Y368199D01*
X192204Y368760D01*
X191919Y369329D01*
X191648Y369904D01*
X191390Y370485D01*
X191147Y371072D01*
X190917Y371665D01*
X190702Y372263D01*
X190501Y372866D01*
X190314Y373474D01*
X190142Y374086D01*
X189984Y374702D01*
X189842Y375322D01*
X189714Y375944D01*
X189601Y376570D01*
X189502Y377198D01*
X189419Y377828D01*
X189351Y378461D01*
X189351Y378460D02*
X189297Y379109D01*
X189259Y379758D01*
X189237Y380409D01*
X189230Y381060D01*
X189239Y381711D01*
X189265Y382361D01*
X189306Y383011D01*
X189363Y383659D01*
X189436Y384306D01*
X189524Y384951D01*
X189629Y385594D01*
X189749Y386234D01*
X189884Y386870D01*
X190035Y387504D01*
X190202Y388133D01*
X190383Y388758D01*
X190580Y389379D01*
X190792Y389994D01*
X191019Y390604D01*
X191261Y391209D01*
X191518Y391807D01*
X191789Y392399D01*
X192074Y392984D01*
X192374Y393562D01*
X192687Y394132D01*
X193015Y394695D01*
X193356Y395249D01*
X193710Y395795D01*
X194078Y396332D01*
X194459Y396861D01*
X194852Y397379D01*
X195258Y397888D01*
X195676Y398387D01*
X196107Y398875D01*
X196549Y399353D01*
X197003Y399820D01*
X197468Y400275D01*
X197944Y400719D01*
X198430Y401152D01*
X198927Y401572D01*
X199434Y401980D01*
X199951Y402376D01*
X200478Y402759D01*
X201014Y403129D01*
X201558Y403486D01*
X202111Y403829D01*
X202672Y404159D01*
X203242Y404475D01*
X203818Y404777D01*
X204402Y405064D01*
X204993Y405338D01*
X205590Y405597D01*
X206194Y405841D01*
X206803Y406071D01*
X207417Y406285D01*
X208037Y406485D01*
X223763Y406485D02*
X224378Y406286D01*
X224989Y406074D01*
X225594Y405846D01*
X226193Y405604D01*
X226786Y405347D01*
X227373Y405076D01*
X227953Y404791D01*
X228526Y404492D01*
X229092Y404179D01*
X229650Y403852D01*
X230200Y403512D01*
X230741Y403159D01*
X231274Y402793D01*
X231797Y402414D01*
X232312Y402022D01*
X232816Y401619D01*
X233311Y401202D01*
X233796Y400775D01*
X234270Y400335D01*
X234733Y399884D01*
X235185Y399422D01*
X235626Y398949D01*
X236055Y398466D01*
X236472Y397972D01*
X236878Y397469D01*
X237271Y396956D01*
X237651Y396433D01*
X238019Y395901D01*
X238373Y395361D01*
X238715Y394812D01*
X239043Y394255D01*
X239357Y393690D01*
X239658Y393118D01*
X239945Y392539D01*
X240217Y391952D01*
X240476Y391360D01*
X240719Y390761D01*
X240949Y390157D01*
X241163Y389547D01*
X241363Y388932D01*
X241548Y388313D01*
X241718Y387689D01*
X241872Y387061D01*
X242011Y386430D01*
X242135Y385796D01*
X242244Y385158D01*
X242337Y384519D01*
X242414Y383877D01*
X242476Y383234D01*
X242523Y382589D01*
X242553Y381943D01*
X242568Y381297D01*
X242568Y380651D01*
X242551Y380004D01*
X242519Y379359D01*
X242472Y378714D01*
X242409Y378071D01*
X242330Y377429D01*
X242236Y376790D01*
X242126Y376153D01*
X242001Y375518D01*
X241860Y374887D01*
X241704Y374260D01*
X241533Y373637D01*
X241347Y373018D01*
X241146Y372403D01*
X240931Y371794D01*
X240700Y371190D01*
X240455Y370592D01*
X240196Y370000D01*
X239922Y369414D01*
X239634Y368835D01*
X239332Y368264D01*
X239017Y367699D01*
X238688Y367143D01*
X238345Y366595D01*
X237989Y366055D01*
X237621Y365524D01*
X237239Y365002D01*
X236845Y364490D01*
X194955Y364490D01*
X193363Y378460D02*
X189351Y378460D01*
X213037Y378460D02*
X218763Y378460D01*
X238437Y378460D02*
X242449Y378460D01*
D10*
X365760Y370840D02*
X365860Y370842D01*
X365959Y370848D01*
X366059Y370858D01*
X366157Y370871D01*
X366256Y370889D01*
X366353Y370910D01*
X366449Y370935D01*
X366545Y370964D01*
X366639Y370997D01*
X366732Y371033D01*
X366823Y371073D01*
X366913Y371117D01*
X367001Y371164D01*
X367087Y371214D01*
X367171Y371268D01*
X367253Y371325D01*
X367332Y371385D01*
X367410Y371449D01*
X367484Y371515D01*
X367556Y371584D01*
X367625Y371656D01*
X367691Y371730D01*
X367755Y371808D01*
X367815Y371887D01*
X367872Y371969D01*
X367926Y372053D01*
X367976Y372139D01*
X368023Y372227D01*
X368067Y372317D01*
X368107Y372408D01*
X368143Y372501D01*
X368176Y372595D01*
X368205Y372691D01*
X368230Y372787D01*
X368251Y372884D01*
X368269Y372983D01*
X368282Y373081D01*
X368292Y373181D01*
X368298Y373280D01*
X368300Y373380D01*
X368300Y388620D02*
X368298Y388720D01*
X368292Y388819D01*
X368282Y388919D01*
X368269Y389017D01*
X368251Y389116D01*
X368230Y389213D01*
X368205Y389309D01*
X368176Y389405D01*
X368143Y389499D01*
X368107Y389592D01*
X368067Y389683D01*
X368023Y389773D01*
X367976Y389861D01*
X367926Y389947D01*
X367872Y390031D01*
X367815Y390113D01*
X367755Y390192D01*
X367691Y390270D01*
X367625Y390344D01*
X367556Y390416D01*
X367484Y390485D01*
X367410Y390551D01*
X367332Y390615D01*
X367253Y390675D01*
X367171Y390732D01*
X367087Y390786D01*
X367001Y390836D01*
X366913Y390883D01*
X366823Y390927D01*
X366732Y390967D01*
X366639Y391003D01*
X366545Y391036D01*
X366449Y391065D01*
X366353Y391090D01*
X366256Y391111D01*
X366157Y391129D01*
X366059Y391142D01*
X365959Y391152D01*
X365860Y391158D01*
X365760Y391160D01*
X320040Y391160D02*
X319940Y391158D01*
X319841Y391152D01*
X319741Y391142D01*
X319643Y391129D01*
X319544Y391111D01*
X319447Y391090D01*
X319351Y391065D01*
X319255Y391036D01*
X319161Y391003D01*
X319068Y390967D01*
X318977Y390927D01*
X318887Y390883D01*
X318799Y390836D01*
X318713Y390786D01*
X318629Y390732D01*
X318547Y390675D01*
X318468Y390615D01*
X318390Y390551D01*
X318316Y390485D01*
X318244Y390416D01*
X318175Y390344D01*
X318109Y390270D01*
X318045Y390192D01*
X317985Y390113D01*
X317928Y390031D01*
X317874Y389947D01*
X317824Y389861D01*
X317777Y389773D01*
X317733Y389683D01*
X317693Y389592D01*
X317657Y389499D01*
X317624Y389405D01*
X317595Y389309D01*
X317570Y389213D01*
X317549Y389116D01*
X317531Y389017D01*
X317518Y388919D01*
X317508Y388819D01*
X317502Y388720D01*
X317500Y388620D01*
X317500Y373380D02*
X317502Y373280D01*
X317508Y373181D01*
X317518Y373081D01*
X317531Y372983D01*
X317549Y372884D01*
X317570Y372787D01*
X317595Y372691D01*
X317624Y372595D01*
X317657Y372501D01*
X317693Y372408D01*
X317733Y372317D01*
X317777Y372227D01*
X317824Y372139D01*
X317874Y372053D01*
X317928Y371969D01*
X317985Y371887D01*
X318045Y371808D01*
X318109Y371730D01*
X318175Y371656D01*
X318244Y371584D01*
X318316Y371515D01*
X318390Y371449D01*
X318468Y371385D01*
X318547Y371325D01*
X318629Y371268D01*
X318713Y371214D01*
X318799Y371164D01*
X318887Y371117D01*
X318977Y371073D01*
X319068Y371033D01*
X319161Y370997D01*
X319255Y370964D01*
X319351Y370935D01*
X319447Y370910D01*
X319544Y370889D01*
X319643Y370871D01*
X319741Y370858D01*
X319841Y370848D01*
X319940Y370842D01*
X320040Y370840D01*
X368300Y373380D02*
X368300Y388620D01*
X365760Y370840D02*
X361950Y370840D01*
X360680Y372110D01*
X361950Y391160D02*
X365760Y391160D01*
X361950Y391160D02*
X360680Y389890D01*
X325120Y372110D02*
X323850Y370840D01*
X325120Y372110D02*
X360680Y372110D01*
X325120Y389890D02*
X323850Y391160D01*
X325120Y389890D02*
X360680Y389890D01*
X323850Y370840D02*
X320040Y370840D01*
X320040Y391160D02*
X323850Y391160D01*
X317500Y388620D02*
X317500Y373380D01*
D16*
X315595Y381000D03*
X370205Y381000D03*
D12*
X118754Y364491D02*
X118367Y364995D01*
X117991Y365508D01*
X117628Y366030D01*
X117277Y366560D01*
X116940Y367098D01*
X116615Y367645D01*
X116303Y368199D01*
X116004Y368760D01*
X115719Y369329D01*
X115448Y369904D01*
X115190Y370485D01*
X114947Y371072D01*
X114717Y371665D01*
X114502Y372263D01*
X114301Y372866D01*
X114114Y373474D01*
X113942Y374086D01*
X113784Y374702D01*
X113642Y375322D01*
X113514Y375944D01*
X113401Y376570D01*
X113302Y377198D01*
X113219Y377828D01*
X113151Y378461D01*
X113151Y378460D02*
X113097Y379109D01*
X113059Y379758D01*
X113037Y380409D01*
X113030Y381060D01*
X113039Y381711D01*
X113065Y382361D01*
X113106Y383011D01*
X113163Y383659D01*
X113236Y384306D01*
X113324Y384951D01*
X113429Y385594D01*
X113549Y386234D01*
X113684Y386870D01*
X113835Y387504D01*
X114002Y388133D01*
X114183Y388758D01*
X114380Y389379D01*
X114592Y389994D01*
X114819Y390604D01*
X115061Y391209D01*
X115318Y391807D01*
X115589Y392399D01*
X115874Y392984D01*
X116174Y393562D01*
X116487Y394132D01*
X116815Y394695D01*
X117156Y395249D01*
X117510Y395795D01*
X117878Y396332D01*
X118259Y396861D01*
X118652Y397379D01*
X119058Y397888D01*
X119476Y398387D01*
X119907Y398875D01*
X120349Y399353D01*
X120803Y399820D01*
X121268Y400275D01*
X121744Y400719D01*
X122230Y401152D01*
X122727Y401572D01*
X123234Y401980D01*
X123751Y402376D01*
X124278Y402759D01*
X124814Y403129D01*
X125358Y403486D01*
X125911Y403829D01*
X126472Y404159D01*
X127042Y404475D01*
X127618Y404777D01*
X128202Y405064D01*
X128793Y405338D01*
X129390Y405597D01*
X129994Y405841D01*
X130603Y406071D01*
X131217Y406285D01*
X131837Y406485D01*
X147563Y406485D02*
X148178Y406286D01*
X148789Y406074D01*
X149394Y405846D01*
X149993Y405604D01*
X150586Y405347D01*
X151173Y405076D01*
X151753Y404791D01*
X152326Y404492D01*
X152892Y404179D01*
X153450Y403852D01*
X154000Y403512D01*
X154541Y403159D01*
X155074Y402793D01*
X155597Y402414D01*
X156112Y402022D01*
X156616Y401619D01*
X157111Y401202D01*
X157596Y400775D01*
X158070Y400335D01*
X158533Y399884D01*
X158985Y399422D01*
X159426Y398949D01*
X159855Y398466D01*
X160272Y397972D01*
X160678Y397469D01*
X161071Y396956D01*
X161451Y396433D01*
X161819Y395901D01*
X162173Y395361D01*
X162515Y394812D01*
X162843Y394255D01*
X163157Y393690D01*
X163458Y393118D01*
X163745Y392539D01*
X164017Y391952D01*
X164276Y391360D01*
X164519Y390761D01*
X164749Y390157D01*
X164963Y389547D01*
X165163Y388932D01*
X165348Y388313D01*
X165518Y387689D01*
X165672Y387061D01*
X165811Y386430D01*
X165935Y385796D01*
X166044Y385158D01*
X166137Y384519D01*
X166214Y383877D01*
X166276Y383234D01*
X166323Y382589D01*
X166353Y381943D01*
X166368Y381297D01*
X166368Y380651D01*
X166351Y380004D01*
X166319Y379359D01*
X166272Y378714D01*
X166209Y378071D01*
X166130Y377429D01*
X166036Y376790D01*
X165926Y376153D01*
X165801Y375518D01*
X165660Y374887D01*
X165504Y374260D01*
X165333Y373637D01*
X165147Y373018D01*
X164946Y372403D01*
X164731Y371794D01*
X164500Y371190D01*
X164255Y370592D01*
X163996Y370000D01*
X163722Y369414D01*
X163434Y368835D01*
X163132Y368264D01*
X162817Y367699D01*
X162488Y367143D01*
X162145Y366595D01*
X161789Y366055D01*
X161421Y365524D01*
X161039Y365002D01*
X160645Y364490D01*
X118755Y364490D01*
X117163Y378460D02*
X113151Y378460D01*
X136837Y378460D02*
X142563Y378460D01*
X162237Y378460D02*
X166249Y378460D01*
D10*
X365760Y332740D02*
X365860Y332742D01*
X365959Y332748D01*
X366059Y332758D01*
X366157Y332771D01*
X366256Y332789D01*
X366353Y332810D01*
X366449Y332835D01*
X366545Y332864D01*
X366639Y332897D01*
X366732Y332933D01*
X366823Y332973D01*
X366913Y333017D01*
X367001Y333064D01*
X367087Y333114D01*
X367171Y333168D01*
X367253Y333225D01*
X367332Y333285D01*
X367410Y333349D01*
X367484Y333415D01*
X367556Y333484D01*
X367625Y333556D01*
X367691Y333630D01*
X367755Y333708D01*
X367815Y333787D01*
X367872Y333869D01*
X367926Y333953D01*
X367976Y334039D01*
X368023Y334127D01*
X368067Y334217D01*
X368107Y334308D01*
X368143Y334401D01*
X368176Y334495D01*
X368205Y334591D01*
X368230Y334687D01*
X368251Y334784D01*
X368269Y334883D01*
X368282Y334981D01*
X368292Y335081D01*
X368298Y335180D01*
X368300Y335280D01*
X368300Y350520D02*
X368298Y350620D01*
X368292Y350719D01*
X368282Y350819D01*
X368269Y350917D01*
X368251Y351016D01*
X368230Y351113D01*
X368205Y351209D01*
X368176Y351305D01*
X368143Y351399D01*
X368107Y351492D01*
X368067Y351583D01*
X368023Y351673D01*
X367976Y351761D01*
X367926Y351847D01*
X367872Y351931D01*
X367815Y352013D01*
X367755Y352092D01*
X367691Y352170D01*
X367625Y352244D01*
X367556Y352316D01*
X367484Y352385D01*
X367410Y352451D01*
X367332Y352515D01*
X367253Y352575D01*
X367171Y352632D01*
X367087Y352686D01*
X367001Y352736D01*
X366913Y352783D01*
X366823Y352827D01*
X366732Y352867D01*
X366639Y352903D01*
X366545Y352936D01*
X366449Y352965D01*
X366353Y352990D01*
X366256Y353011D01*
X366157Y353029D01*
X366059Y353042D01*
X365959Y353052D01*
X365860Y353058D01*
X365760Y353060D01*
X320040Y353060D02*
X319940Y353058D01*
X319841Y353052D01*
X319741Y353042D01*
X319643Y353029D01*
X319544Y353011D01*
X319447Y352990D01*
X319351Y352965D01*
X319255Y352936D01*
X319161Y352903D01*
X319068Y352867D01*
X318977Y352827D01*
X318887Y352783D01*
X318799Y352736D01*
X318713Y352686D01*
X318629Y352632D01*
X318547Y352575D01*
X318468Y352515D01*
X318390Y352451D01*
X318316Y352385D01*
X318244Y352316D01*
X318175Y352244D01*
X318109Y352170D01*
X318045Y352092D01*
X317985Y352013D01*
X317928Y351931D01*
X317874Y351847D01*
X317824Y351761D01*
X317777Y351673D01*
X317733Y351583D01*
X317693Y351492D01*
X317657Y351399D01*
X317624Y351305D01*
X317595Y351209D01*
X317570Y351113D01*
X317549Y351016D01*
X317531Y350917D01*
X317518Y350819D01*
X317508Y350719D01*
X317502Y350620D01*
X317500Y350520D01*
X317500Y335280D02*
X317502Y335180D01*
X317508Y335081D01*
X317518Y334981D01*
X317531Y334883D01*
X317549Y334784D01*
X317570Y334687D01*
X317595Y334591D01*
X317624Y334495D01*
X317657Y334401D01*
X317693Y334308D01*
X317733Y334217D01*
X317777Y334127D01*
X317824Y334039D01*
X317874Y333953D01*
X317928Y333869D01*
X317985Y333787D01*
X318045Y333708D01*
X318109Y333630D01*
X318175Y333556D01*
X318244Y333484D01*
X318316Y333415D01*
X318390Y333349D01*
X318468Y333285D01*
X318547Y333225D01*
X318629Y333168D01*
X318713Y333114D01*
X318799Y333064D01*
X318887Y333017D01*
X318977Y332973D01*
X319068Y332933D01*
X319161Y332897D01*
X319255Y332864D01*
X319351Y332835D01*
X319447Y332810D01*
X319544Y332789D01*
X319643Y332771D01*
X319741Y332758D01*
X319841Y332748D01*
X319940Y332742D01*
X320040Y332740D01*
X368300Y335280D02*
X368300Y350520D01*
X365760Y332740D02*
X361950Y332740D01*
X360680Y334010D01*
X361950Y353060D02*
X365760Y353060D01*
X361950Y353060D02*
X360680Y351790D01*
X325120Y334010D02*
X323850Y332740D01*
X325120Y334010D02*
X360680Y334010D01*
X325120Y351790D02*
X323850Y353060D01*
X325120Y351790D02*
X360680Y351790D01*
X323850Y332740D02*
X320040Y332740D01*
X320040Y353060D02*
X323850Y353060D01*
X317500Y350520D02*
X317500Y335280D01*
D16*
X315595Y342900D03*
X370205Y342900D03*
D12*
X144154Y300991D02*
X143767Y301495D01*
X143391Y302008D01*
X143028Y302530D01*
X142677Y303060D01*
X142340Y303598D01*
X142015Y304145D01*
X141703Y304699D01*
X141404Y305260D01*
X141119Y305829D01*
X140848Y306404D01*
X140590Y306985D01*
X140347Y307572D01*
X140117Y308165D01*
X139902Y308763D01*
X139701Y309366D01*
X139514Y309974D01*
X139342Y310586D01*
X139184Y311202D01*
X139042Y311822D01*
X138914Y312444D01*
X138801Y313070D01*
X138702Y313698D01*
X138619Y314328D01*
X138551Y314961D01*
X138551Y314960D02*
X138497Y315609D01*
X138459Y316258D01*
X138437Y316909D01*
X138430Y317560D01*
X138439Y318211D01*
X138465Y318861D01*
X138506Y319511D01*
X138563Y320159D01*
X138636Y320806D01*
X138724Y321451D01*
X138829Y322094D01*
X138949Y322734D01*
X139084Y323370D01*
X139235Y324004D01*
X139402Y324633D01*
X139583Y325258D01*
X139780Y325879D01*
X139992Y326494D01*
X140219Y327104D01*
X140461Y327709D01*
X140718Y328307D01*
X140989Y328899D01*
X141274Y329484D01*
X141574Y330062D01*
X141887Y330632D01*
X142215Y331195D01*
X142556Y331749D01*
X142910Y332295D01*
X143278Y332832D01*
X143659Y333361D01*
X144052Y333879D01*
X144458Y334388D01*
X144876Y334887D01*
X145307Y335375D01*
X145749Y335853D01*
X146203Y336320D01*
X146668Y336775D01*
X147144Y337219D01*
X147630Y337652D01*
X148127Y338072D01*
X148634Y338480D01*
X149151Y338876D01*
X149678Y339259D01*
X150214Y339629D01*
X150758Y339986D01*
X151311Y340329D01*
X151872Y340659D01*
X152442Y340975D01*
X153018Y341277D01*
X153602Y341564D01*
X154193Y341838D01*
X154790Y342097D01*
X155394Y342341D01*
X156003Y342571D01*
X156617Y342785D01*
X157237Y342985D01*
X172963Y342985D02*
X173578Y342786D01*
X174189Y342574D01*
X174794Y342346D01*
X175393Y342104D01*
X175986Y341847D01*
X176573Y341576D01*
X177153Y341291D01*
X177726Y340992D01*
X178292Y340679D01*
X178850Y340352D01*
X179400Y340012D01*
X179941Y339659D01*
X180474Y339293D01*
X180997Y338914D01*
X181512Y338522D01*
X182016Y338119D01*
X182511Y337702D01*
X182996Y337275D01*
X183470Y336835D01*
X183933Y336384D01*
X184385Y335922D01*
X184826Y335449D01*
X185255Y334966D01*
X185672Y334472D01*
X186078Y333969D01*
X186471Y333456D01*
X186851Y332933D01*
X187219Y332401D01*
X187573Y331861D01*
X187915Y331312D01*
X188243Y330755D01*
X188557Y330190D01*
X188858Y329618D01*
X189145Y329039D01*
X189417Y328452D01*
X189676Y327860D01*
X189919Y327261D01*
X190149Y326657D01*
X190363Y326047D01*
X190563Y325432D01*
X190748Y324813D01*
X190918Y324189D01*
X191072Y323561D01*
X191211Y322930D01*
X191335Y322296D01*
X191444Y321658D01*
X191537Y321019D01*
X191614Y320377D01*
X191676Y319734D01*
X191723Y319089D01*
X191753Y318443D01*
X191768Y317797D01*
X191768Y317151D01*
X191751Y316504D01*
X191719Y315859D01*
X191672Y315214D01*
X191609Y314571D01*
X191530Y313929D01*
X191436Y313290D01*
X191326Y312653D01*
X191201Y312018D01*
X191060Y311387D01*
X190904Y310760D01*
X190733Y310137D01*
X190547Y309518D01*
X190346Y308903D01*
X190131Y308294D01*
X189900Y307690D01*
X189655Y307092D01*
X189396Y306500D01*
X189122Y305914D01*
X188834Y305335D01*
X188532Y304764D01*
X188217Y304199D01*
X187888Y303643D01*
X187545Y303095D01*
X187189Y302555D01*
X186821Y302024D01*
X186439Y301502D01*
X186045Y300990D01*
X144155Y300990D01*
X142563Y314960D02*
X138551Y314960D01*
X162237Y314960D02*
X167963Y314960D01*
X187637Y314960D02*
X191649Y314960D01*
D10*
X365760Y294640D02*
X365860Y294642D01*
X365959Y294648D01*
X366059Y294658D01*
X366157Y294671D01*
X366256Y294689D01*
X366353Y294710D01*
X366449Y294735D01*
X366545Y294764D01*
X366639Y294797D01*
X366732Y294833D01*
X366823Y294873D01*
X366913Y294917D01*
X367001Y294964D01*
X367087Y295014D01*
X367171Y295068D01*
X367253Y295125D01*
X367332Y295185D01*
X367410Y295249D01*
X367484Y295315D01*
X367556Y295384D01*
X367625Y295456D01*
X367691Y295530D01*
X367755Y295608D01*
X367815Y295687D01*
X367872Y295769D01*
X367926Y295853D01*
X367976Y295939D01*
X368023Y296027D01*
X368067Y296117D01*
X368107Y296208D01*
X368143Y296301D01*
X368176Y296395D01*
X368205Y296491D01*
X368230Y296587D01*
X368251Y296684D01*
X368269Y296783D01*
X368282Y296881D01*
X368292Y296981D01*
X368298Y297080D01*
X368300Y297180D01*
X368300Y312420D02*
X368298Y312520D01*
X368292Y312619D01*
X368282Y312719D01*
X368269Y312817D01*
X368251Y312916D01*
X368230Y313013D01*
X368205Y313109D01*
X368176Y313205D01*
X368143Y313299D01*
X368107Y313392D01*
X368067Y313483D01*
X368023Y313573D01*
X367976Y313661D01*
X367926Y313747D01*
X367872Y313831D01*
X367815Y313913D01*
X367755Y313992D01*
X367691Y314070D01*
X367625Y314144D01*
X367556Y314216D01*
X367484Y314285D01*
X367410Y314351D01*
X367332Y314415D01*
X367253Y314475D01*
X367171Y314532D01*
X367087Y314586D01*
X367001Y314636D01*
X366913Y314683D01*
X366823Y314727D01*
X366732Y314767D01*
X366639Y314803D01*
X366545Y314836D01*
X366449Y314865D01*
X366353Y314890D01*
X366256Y314911D01*
X366157Y314929D01*
X366059Y314942D01*
X365959Y314952D01*
X365860Y314958D01*
X365760Y314960D01*
X320040Y314960D02*
X319940Y314958D01*
X319841Y314952D01*
X319741Y314942D01*
X319643Y314929D01*
X319544Y314911D01*
X319447Y314890D01*
X319351Y314865D01*
X319255Y314836D01*
X319161Y314803D01*
X319068Y314767D01*
X318977Y314727D01*
X318887Y314683D01*
X318799Y314636D01*
X318713Y314586D01*
X318629Y314532D01*
X318547Y314475D01*
X318468Y314415D01*
X318390Y314351D01*
X318316Y314285D01*
X318244Y314216D01*
X318175Y314144D01*
X318109Y314070D01*
X318045Y313992D01*
X317985Y313913D01*
X317928Y313831D01*
X317874Y313747D01*
X317824Y313661D01*
X317777Y313573D01*
X317733Y313483D01*
X317693Y313392D01*
X317657Y313299D01*
X317624Y313205D01*
X317595Y313109D01*
X317570Y313013D01*
X317549Y312916D01*
X317531Y312817D01*
X317518Y312719D01*
X317508Y312619D01*
X317502Y312520D01*
X317500Y312420D01*
X317500Y297180D02*
X317502Y297080D01*
X317508Y296981D01*
X317518Y296881D01*
X317531Y296783D01*
X317549Y296684D01*
X317570Y296587D01*
X317595Y296491D01*
X317624Y296395D01*
X317657Y296301D01*
X317693Y296208D01*
X317733Y296117D01*
X317777Y296027D01*
X317824Y295939D01*
X317874Y295853D01*
X317928Y295769D01*
X317985Y295687D01*
X318045Y295608D01*
X318109Y295530D01*
X318175Y295456D01*
X318244Y295384D01*
X318316Y295315D01*
X318390Y295249D01*
X318468Y295185D01*
X318547Y295125D01*
X318629Y295068D01*
X318713Y295014D01*
X318799Y294964D01*
X318887Y294917D01*
X318977Y294873D01*
X319068Y294833D01*
X319161Y294797D01*
X319255Y294764D01*
X319351Y294735D01*
X319447Y294710D01*
X319544Y294689D01*
X319643Y294671D01*
X319741Y294658D01*
X319841Y294648D01*
X319940Y294642D01*
X320040Y294640D01*
X368300Y297180D02*
X368300Y312420D01*
X365760Y294640D02*
X361950Y294640D01*
X360680Y295910D01*
X361950Y314960D02*
X365760Y314960D01*
X361950Y314960D02*
X360680Y313690D01*
X325120Y295910D02*
X323850Y294640D01*
X325120Y295910D02*
X360680Y295910D01*
X325120Y313690D02*
X323850Y314960D01*
X325120Y313690D02*
X360680Y313690D01*
X323850Y294640D02*
X320040Y294640D01*
X320040Y314960D02*
X323850Y314960D01*
X317500Y312420D02*
X317500Y297180D01*
D16*
X315595Y304800D03*
X370205Y304800D03*
D17*
X486664Y594817D02*
X547624Y594817D01*
X547624Y637997D02*
X486664Y637997D01*
D10*
X486664Y599897D02*
X547624Y599897D01*
X547624Y632917D02*
X486664Y632917D01*
X514604Y624027D02*
X519684Y624027D01*
X519684Y608787D01*
X514604Y608787D01*
X514604Y624027D01*
X523494Y624027D02*
X523494Y616407D01*
X523494Y608787D01*
X510794Y616407D02*
X510794Y624027D01*
X510794Y616407D02*
X510794Y608787D01*
X523494Y616407D02*
X529844Y616407D01*
X510794Y616407D02*
X504444Y616407D01*
D17*
X486664Y637997D02*
X486138Y637991D01*
X485613Y637971D01*
X485088Y637939D01*
X484564Y637895D01*
X484042Y637837D01*
X483520Y637767D01*
X483001Y637684D01*
X482484Y637589D01*
X481970Y637480D01*
X481458Y637360D01*
X480949Y637227D01*
X480444Y637082D01*
X479942Y636924D01*
X479445Y636754D01*
X478951Y636572D01*
X478463Y636379D01*
X477979Y636173D01*
X477500Y635956D01*
X477027Y635727D01*
X476559Y635486D01*
X476097Y635235D01*
X475642Y634972D01*
X475193Y634698D01*
X474751Y634413D01*
X474316Y634118D01*
X473889Y633812D01*
X473469Y633495D01*
X473057Y633169D01*
X472652Y632833D01*
X472257Y632487D01*
X471869Y632131D01*
X471491Y631766D01*
X471121Y631392D01*
X470761Y631009D01*
X470410Y630618D01*
X470069Y630218D01*
X469738Y629809D01*
X469416Y629393D01*
X469105Y628969D01*
X468804Y628538D01*
X468514Y628100D01*
X468235Y627654D01*
X467967Y627202D01*
X467709Y626743D01*
X467463Y626279D01*
X467228Y625808D01*
X467005Y625332D01*
X466794Y624851D01*
X466594Y624365D01*
X466406Y623874D01*
X466230Y623378D01*
X466067Y622878D01*
X465915Y622375D01*
X465776Y621868D01*
X465649Y621358D01*
X465535Y620844D01*
X465433Y620329D01*
X465344Y619810D01*
X465267Y619290D01*
X465204Y618768D01*
X465152Y618245D01*
X465114Y617721D01*
X465088Y617196D01*
X465076Y616670D01*
X465076Y616144D01*
X465088Y615618D01*
X465114Y615093D01*
X465152Y614569D01*
X465204Y614046D01*
X465267Y613524D01*
X465344Y613004D01*
X465433Y612485D01*
X465535Y611970D01*
X465649Y611456D01*
X465776Y610946D01*
X465915Y610439D01*
X466067Y609936D01*
X466230Y609436D01*
X466406Y608940D01*
X466594Y608449D01*
X466794Y607963D01*
X467005Y607482D01*
X467228Y607006D01*
X467463Y606535D01*
X467709Y606071D01*
X467967Y605612D01*
X468235Y605160D01*
X468514Y604714D01*
X468804Y604276D01*
X469105Y603845D01*
X469416Y603421D01*
X469738Y603005D01*
X470069Y602596D01*
X470410Y602196D01*
X470761Y601805D01*
X471121Y601422D01*
X471491Y601048D01*
X471869Y600683D01*
X472257Y600327D01*
X472652Y599981D01*
X473057Y599645D01*
X473469Y599319D01*
X473889Y599002D01*
X474316Y598696D01*
X474751Y598401D01*
X475193Y598116D01*
X475642Y597842D01*
X476097Y597579D01*
X476559Y597328D01*
X477027Y597087D01*
X477500Y596858D01*
X477979Y596641D01*
X478463Y596435D01*
X478951Y596242D01*
X479445Y596060D01*
X479942Y595890D01*
X480444Y595732D01*
X480949Y595587D01*
X481458Y595454D01*
X481970Y595334D01*
X482484Y595225D01*
X483001Y595130D01*
X483520Y595047D01*
X484042Y594977D01*
X484564Y594919D01*
X485088Y594875D01*
X485613Y594843D01*
X486138Y594823D01*
X486664Y594817D01*
X547624Y594817D02*
X548150Y594823D01*
X548675Y594843D01*
X549200Y594875D01*
X549724Y594919D01*
X550246Y594977D01*
X550768Y595047D01*
X551287Y595130D01*
X551804Y595225D01*
X552318Y595334D01*
X552830Y595454D01*
X553339Y595587D01*
X553844Y595732D01*
X554346Y595890D01*
X554843Y596060D01*
X555337Y596242D01*
X555825Y596435D01*
X556309Y596641D01*
X556788Y596858D01*
X557261Y597087D01*
X557729Y597328D01*
X558191Y597579D01*
X558646Y597842D01*
X559095Y598116D01*
X559537Y598401D01*
X559972Y598696D01*
X560399Y599002D01*
X560819Y599319D01*
X561231Y599645D01*
X561636Y599981D01*
X562031Y600327D01*
X562419Y600683D01*
X562797Y601048D01*
X563167Y601422D01*
X563527Y601805D01*
X563878Y602196D01*
X564219Y602596D01*
X564550Y603005D01*
X564872Y603421D01*
X565183Y603845D01*
X565484Y604276D01*
X565774Y604714D01*
X566053Y605160D01*
X566321Y605612D01*
X566579Y606071D01*
X566825Y606535D01*
X567060Y607006D01*
X567283Y607482D01*
X567494Y607963D01*
X567694Y608449D01*
X567882Y608940D01*
X568058Y609436D01*
X568221Y609936D01*
X568373Y610439D01*
X568512Y610946D01*
X568639Y611456D01*
X568753Y611970D01*
X568855Y612485D01*
X568944Y613004D01*
X569021Y613524D01*
X569084Y614046D01*
X569136Y614569D01*
X569174Y615093D01*
X569200Y615618D01*
X569212Y616144D01*
X569212Y616670D01*
X569200Y617196D01*
X569174Y617721D01*
X569136Y618245D01*
X569084Y618768D01*
X569021Y619290D01*
X568944Y619810D01*
X568855Y620329D01*
X568753Y620844D01*
X568639Y621358D01*
X568512Y621868D01*
X568373Y622375D01*
X568221Y622878D01*
X568058Y623378D01*
X567882Y623874D01*
X567694Y624365D01*
X567494Y624851D01*
X567283Y625332D01*
X567060Y625808D01*
X566825Y626279D01*
X566579Y626743D01*
X566321Y627202D01*
X566053Y627654D01*
X565774Y628100D01*
X565484Y628538D01*
X565183Y628969D01*
X564872Y629393D01*
X564550Y629809D01*
X564219Y630218D01*
X563878Y630618D01*
X563527Y631009D01*
X563167Y631392D01*
X562797Y631766D01*
X562419Y632131D01*
X562031Y632487D01*
X561636Y632833D01*
X561231Y633169D01*
X560819Y633495D01*
X560399Y633812D01*
X559972Y634118D01*
X559537Y634413D01*
X559095Y634698D01*
X558646Y634972D01*
X558191Y635235D01*
X557729Y635486D01*
X557261Y635727D01*
X556788Y635956D01*
X556309Y636173D01*
X555825Y636379D01*
X555337Y636572D01*
X554843Y636754D01*
X554346Y636924D01*
X553844Y637082D01*
X553339Y637227D01*
X552830Y637360D01*
X552318Y637480D01*
X551804Y637589D01*
X551287Y637684D01*
X550768Y637767D01*
X550246Y637837D01*
X549724Y637895D01*
X549200Y637939D01*
X548675Y637971D01*
X548150Y637991D01*
X547624Y637997D01*
D10*
X486664Y632917D02*
X486262Y632912D01*
X485860Y632897D01*
X485459Y632873D01*
X485058Y632839D01*
X484659Y632795D01*
X484260Y632741D01*
X483863Y632678D01*
X483468Y632605D01*
X483074Y632522D01*
X482683Y632430D01*
X482294Y632328D01*
X481907Y632217D01*
X481524Y632096D01*
X481143Y631967D01*
X480766Y631828D01*
X480392Y631679D01*
X480022Y631522D01*
X479656Y631356D01*
X479294Y631181D01*
X478937Y630997D01*
X478584Y630805D01*
X478236Y630604D01*
X477892Y630394D01*
X477554Y630176D01*
X477222Y629950D01*
X476895Y629716D01*
X476574Y629475D01*
X476258Y629225D01*
X475949Y628968D01*
X475647Y628703D01*
X475350Y628431D01*
X475061Y628152D01*
X474778Y627866D01*
X474503Y627573D01*
X474235Y627274D01*
X473974Y626968D01*
X473720Y626656D01*
X473474Y626338D01*
X473237Y626013D01*
X473007Y625684D01*
X472785Y625348D01*
X472571Y625008D01*
X472366Y624662D01*
X472169Y624311D01*
X471981Y623956D01*
X471801Y623596D01*
X471631Y623232D01*
X471469Y622864D01*
X471316Y622492D01*
X471173Y622117D01*
X471038Y621738D01*
X470913Y621356D01*
X470797Y620971D01*
X470691Y620583D01*
X470594Y620193D01*
X470506Y619800D01*
X470429Y619406D01*
X470360Y619010D01*
X470302Y618612D01*
X470253Y618213D01*
X470214Y617813D01*
X470185Y617412D01*
X470165Y617010D01*
X470155Y616608D01*
X470155Y616206D01*
X470165Y615804D01*
X470185Y615402D01*
X470214Y615001D01*
X470253Y614601D01*
X470302Y614202D01*
X470360Y613804D01*
X470429Y613408D01*
X470506Y613014D01*
X470594Y612621D01*
X470691Y612231D01*
X470797Y611843D01*
X470913Y611458D01*
X471038Y611076D01*
X471173Y610697D01*
X471316Y610322D01*
X471469Y609950D01*
X471631Y609582D01*
X471801Y609218D01*
X471981Y608858D01*
X472169Y608503D01*
X472366Y608152D01*
X472571Y607806D01*
X472785Y607466D01*
X473007Y607130D01*
X473237Y606801D01*
X473474Y606476D01*
X473720Y606158D01*
X473974Y605846D01*
X474235Y605540D01*
X474503Y605241D01*
X474778Y604948D01*
X475061Y604662D01*
X475350Y604383D01*
X475647Y604111D01*
X475949Y603846D01*
X476258Y603589D01*
X476574Y603339D01*
X476895Y603098D01*
X477222Y602864D01*
X477554Y602638D01*
X477892Y602420D01*
X478236Y602210D01*
X478584Y602009D01*
X478937Y601817D01*
X479294Y601633D01*
X479656Y601458D01*
X480022Y601292D01*
X480392Y601135D01*
X480766Y600986D01*
X481143Y600847D01*
X481524Y600718D01*
X481907Y600597D01*
X482294Y600486D01*
X482683Y600384D01*
X483074Y600292D01*
X483468Y600209D01*
X483863Y600136D01*
X484260Y600073D01*
X484659Y600019D01*
X485058Y599975D01*
X485459Y599941D01*
X485860Y599917D01*
X486262Y599902D01*
X486664Y599897D01*
X547624Y599897D02*
X548026Y599902D01*
X548428Y599917D01*
X548829Y599941D01*
X549230Y599975D01*
X549629Y600019D01*
X550028Y600073D01*
X550425Y600136D01*
X550820Y600209D01*
X551214Y600292D01*
X551605Y600384D01*
X551994Y600486D01*
X552381Y600597D01*
X552764Y600718D01*
X553145Y600847D01*
X553522Y600986D01*
X553896Y601135D01*
X554266Y601292D01*
X554632Y601458D01*
X554994Y601633D01*
X555351Y601817D01*
X555704Y602009D01*
X556052Y602210D01*
X556396Y602420D01*
X556734Y602638D01*
X557066Y602864D01*
X557393Y603098D01*
X557714Y603339D01*
X558030Y603589D01*
X558339Y603846D01*
X558641Y604111D01*
X558938Y604383D01*
X559227Y604662D01*
X559510Y604948D01*
X559785Y605241D01*
X560053Y605540D01*
X560314Y605846D01*
X560568Y606158D01*
X560814Y606476D01*
X561051Y606801D01*
X561281Y607130D01*
X561503Y607466D01*
X561717Y607806D01*
X561922Y608152D01*
X562119Y608503D01*
X562307Y608858D01*
X562487Y609218D01*
X562657Y609582D01*
X562819Y609950D01*
X562972Y610322D01*
X563115Y610697D01*
X563250Y611076D01*
X563375Y611458D01*
X563491Y611843D01*
X563597Y612231D01*
X563694Y612621D01*
X563782Y613014D01*
X563859Y613408D01*
X563928Y613804D01*
X563986Y614202D01*
X564035Y614601D01*
X564074Y615001D01*
X564103Y615402D01*
X564123Y615804D01*
X564133Y616206D01*
X564133Y616608D01*
X564123Y617010D01*
X564103Y617412D01*
X564074Y617813D01*
X564035Y618213D01*
X563986Y618612D01*
X563928Y619010D01*
X563859Y619406D01*
X563782Y619800D01*
X563694Y620193D01*
X563597Y620583D01*
X563491Y620971D01*
X563375Y621356D01*
X563250Y621738D01*
X563115Y622117D01*
X562972Y622492D01*
X562819Y622864D01*
X562657Y623232D01*
X562487Y623596D01*
X562307Y623956D01*
X562119Y624311D01*
X561922Y624662D01*
X561717Y625008D01*
X561503Y625348D01*
X561281Y625684D01*
X561051Y626013D01*
X560814Y626338D01*
X560568Y626656D01*
X560314Y626968D01*
X560053Y627274D01*
X559785Y627573D01*
X559510Y627866D01*
X559227Y628152D01*
X558938Y628431D01*
X558641Y628703D01*
X558339Y628968D01*
X558030Y629225D01*
X557714Y629475D01*
X557393Y629716D01*
X557066Y629950D01*
X556734Y630176D01*
X556396Y630394D01*
X556052Y630604D01*
X555704Y630805D01*
X555351Y630997D01*
X554994Y631181D01*
X554632Y631356D01*
X554266Y631522D01*
X553896Y631679D01*
X553522Y631828D01*
X553145Y631967D01*
X552764Y632096D01*
X552381Y632217D01*
X551994Y632328D01*
X551605Y632430D01*
X551214Y632522D01*
X550820Y632605D01*
X550425Y632678D01*
X550028Y632741D01*
X549629Y632795D01*
X549230Y632839D01*
X548829Y632873D01*
X548428Y632897D01*
X548026Y632912D01*
X547624Y632917D01*
D12*
X466979Y646887D02*
X466979Y651967D01*
X466981Y652078D01*
X466987Y652188D01*
X466996Y652299D01*
X467010Y652409D01*
X467027Y652518D01*
X467048Y652627D01*
X467073Y652735D01*
X467102Y652842D01*
X467134Y652948D01*
X467170Y653053D01*
X467210Y653156D01*
X467253Y653258D01*
X467300Y653359D01*
X467351Y653458D01*
X467404Y653555D01*
X467461Y653649D01*
X467522Y653742D01*
X467585Y653833D01*
X467652Y653922D01*
X467722Y654008D01*
X467795Y654091D01*
X467870Y654173D01*
X467948Y654251D01*
X468030Y654326D01*
X468113Y654399D01*
X468199Y654469D01*
X468288Y654536D01*
X468379Y654599D01*
X468472Y654660D01*
X468567Y654717D01*
X468663Y654770D01*
X468762Y654821D01*
X468863Y654868D01*
X468965Y654911D01*
X469068Y654951D01*
X469173Y654987D01*
X469279Y655019D01*
X469386Y655048D01*
X469494Y655073D01*
X469603Y655094D01*
X469712Y655111D01*
X469822Y655125D01*
X469933Y655134D01*
X470043Y655140D01*
X470154Y655142D01*
X470265Y655140D01*
X470375Y655134D01*
X470486Y655125D01*
X470596Y655111D01*
X470705Y655094D01*
X470814Y655073D01*
X470922Y655048D01*
X471029Y655019D01*
X471135Y654987D01*
X471240Y654951D01*
X471343Y654911D01*
X471445Y654868D01*
X471546Y654821D01*
X471645Y654770D01*
X471742Y654717D01*
X471836Y654660D01*
X471929Y654599D01*
X472020Y654536D01*
X472109Y654469D01*
X472195Y654399D01*
X472278Y654326D01*
X472360Y654251D01*
X472438Y654173D01*
X472513Y654091D01*
X472586Y654008D01*
X472656Y653922D01*
X472723Y653833D01*
X472786Y653742D01*
X472847Y653649D01*
X472904Y653555D01*
X472957Y653458D01*
X473008Y653359D01*
X473055Y653258D01*
X473098Y653156D01*
X473138Y653053D01*
X473174Y652948D01*
X473206Y652842D01*
X473235Y652735D01*
X473260Y652627D01*
X473281Y652518D01*
X473298Y652409D01*
X473312Y652299D01*
X473321Y652188D01*
X473327Y652078D01*
X473329Y651967D01*
X473329Y646887D01*
X473327Y646776D01*
X473321Y646666D01*
X473312Y646555D01*
X473298Y646445D01*
X473281Y646336D01*
X473260Y646227D01*
X473235Y646119D01*
X473206Y646012D01*
X473174Y645906D01*
X473138Y645801D01*
X473098Y645698D01*
X473055Y645596D01*
X473008Y645495D01*
X472957Y645396D01*
X472904Y645300D01*
X472847Y645205D01*
X472786Y645112D01*
X472723Y645021D01*
X472656Y644932D01*
X472586Y644846D01*
X472513Y644763D01*
X472438Y644681D01*
X472360Y644603D01*
X472278Y644528D01*
X472195Y644455D01*
X472109Y644385D01*
X472020Y644318D01*
X471929Y644255D01*
X471836Y644194D01*
X471741Y644137D01*
X471645Y644084D01*
X471546Y644033D01*
X471445Y643986D01*
X471343Y643943D01*
X471240Y643903D01*
X471135Y643867D01*
X471029Y643835D01*
X470922Y643806D01*
X470814Y643781D01*
X470705Y643760D01*
X470596Y643743D01*
X470486Y643729D01*
X470375Y643720D01*
X470265Y643714D01*
X470154Y643712D01*
X470043Y643714D01*
X469933Y643720D01*
X469822Y643729D01*
X469712Y643743D01*
X469603Y643760D01*
X469494Y643781D01*
X469386Y643806D01*
X469279Y643835D01*
X469173Y643867D01*
X469068Y643903D01*
X468965Y643943D01*
X468863Y643986D01*
X468762Y644033D01*
X468663Y644084D01*
X468567Y644137D01*
X468472Y644194D01*
X468379Y644255D01*
X468288Y644318D01*
X468199Y644385D01*
X468113Y644455D01*
X468030Y644528D01*
X467948Y644603D01*
X467870Y644681D01*
X467795Y644763D01*
X467722Y644846D01*
X467652Y644932D01*
X467585Y645021D01*
X467522Y645112D01*
X467461Y645205D01*
X467404Y645300D01*
X467351Y645396D01*
X467300Y645495D01*
X467253Y645596D01*
X467210Y645698D01*
X467170Y645801D01*
X467134Y645906D01*
X467102Y646012D01*
X467073Y646119D01*
X467048Y646227D01*
X467027Y646336D01*
X467010Y646445D01*
X466996Y646555D01*
X466987Y646666D01*
X466981Y646776D01*
X466979Y646887D01*
X472059Y646252D02*
X474599Y643712D01*
X478040Y652602D02*
X481215Y655142D01*
X481215Y643712D01*
X478040Y643712D02*
X484390Y643712D01*
D10*
X51765Y163017D02*
X51665Y163015D01*
X51566Y163009D01*
X51466Y162999D01*
X51368Y162986D01*
X51269Y162968D01*
X51172Y162947D01*
X51076Y162922D01*
X50980Y162893D01*
X50886Y162860D01*
X50793Y162824D01*
X50702Y162784D01*
X50612Y162740D01*
X50524Y162693D01*
X50438Y162643D01*
X50354Y162589D01*
X50272Y162532D01*
X50193Y162472D01*
X50115Y162408D01*
X50041Y162342D01*
X49969Y162273D01*
X49900Y162201D01*
X49834Y162127D01*
X49770Y162049D01*
X49710Y161970D01*
X49653Y161888D01*
X49599Y161804D01*
X49549Y161718D01*
X49502Y161630D01*
X49458Y161540D01*
X49418Y161449D01*
X49382Y161356D01*
X49349Y161262D01*
X49320Y161166D01*
X49295Y161070D01*
X49274Y160973D01*
X49256Y160874D01*
X49243Y160776D01*
X49233Y160676D01*
X49227Y160577D01*
X49225Y160477D01*
X49225Y142697D02*
X49227Y142597D01*
X49233Y142498D01*
X49243Y142398D01*
X49256Y142300D01*
X49274Y142201D01*
X49295Y142104D01*
X49320Y142008D01*
X49349Y141912D01*
X49382Y141818D01*
X49418Y141725D01*
X49458Y141634D01*
X49502Y141544D01*
X49549Y141456D01*
X49599Y141370D01*
X49653Y141286D01*
X49710Y141204D01*
X49770Y141125D01*
X49834Y141047D01*
X49900Y140973D01*
X49969Y140901D01*
X50041Y140832D01*
X50115Y140766D01*
X50193Y140702D01*
X50272Y140642D01*
X50354Y140585D01*
X50438Y140531D01*
X50524Y140481D01*
X50612Y140434D01*
X50702Y140390D01*
X50793Y140350D01*
X50886Y140314D01*
X50980Y140281D01*
X51076Y140252D01*
X51172Y140227D01*
X51269Y140206D01*
X51368Y140188D01*
X51466Y140175D01*
X51566Y140165D01*
X51665Y140159D01*
X51765Y140157D01*
X110185Y140157D02*
X110285Y140159D01*
X110384Y140165D01*
X110484Y140175D01*
X110582Y140188D01*
X110681Y140206D01*
X110778Y140227D01*
X110874Y140252D01*
X110970Y140281D01*
X111064Y140314D01*
X111157Y140350D01*
X111248Y140390D01*
X111338Y140434D01*
X111426Y140481D01*
X111512Y140531D01*
X111596Y140585D01*
X111678Y140642D01*
X111757Y140702D01*
X111835Y140766D01*
X111909Y140832D01*
X111981Y140901D01*
X112050Y140973D01*
X112116Y141047D01*
X112180Y141125D01*
X112240Y141204D01*
X112297Y141286D01*
X112351Y141370D01*
X112401Y141456D01*
X112448Y141544D01*
X112492Y141634D01*
X112532Y141725D01*
X112568Y141818D01*
X112601Y141912D01*
X112630Y142008D01*
X112655Y142104D01*
X112676Y142201D01*
X112694Y142300D01*
X112707Y142398D01*
X112717Y142498D01*
X112723Y142597D01*
X112725Y142697D01*
X112725Y160477D02*
X112723Y160577D01*
X112717Y160676D01*
X112707Y160776D01*
X112694Y160874D01*
X112676Y160973D01*
X112655Y161070D01*
X112630Y161166D01*
X112601Y161262D01*
X112568Y161356D01*
X112532Y161449D01*
X112492Y161540D01*
X112448Y161630D01*
X112401Y161718D01*
X112351Y161804D01*
X112297Y161888D01*
X112240Y161970D01*
X112180Y162049D01*
X112116Y162127D01*
X112050Y162201D01*
X111981Y162273D01*
X111909Y162342D01*
X111835Y162408D01*
X111757Y162472D01*
X111678Y162532D01*
X111596Y162589D01*
X111512Y162643D01*
X111426Y162693D01*
X111338Y162740D01*
X111248Y162784D01*
X111157Y162824D01*
X111064Y162860D01*
X110970Y162893D01*
X110874Y162922D01*
X110778Y162947D01*
X110681Y162968D01*
X110582Y162986D01*
X110484Y162999D01*
X110384Y163009D01*
X110285Y163015D01*
X110185Y163017D01*
X49225Y160477D02*
X49225Y142697D01*
X51765Y163017D02*
X55575Y163017D01*
X56845Y161747D01*
X55575Y140157D02*
X51765Y140157D01*
X55575Y140157D02*
X56845Y141427D01*
X105105Y161747D02*
X106375Y163017D01*
X105105Y161747D02*
X56845Y161747D01*
X105105Y141427D02*
X106375Y140157D01*
X105105Y141427D02*
X56845Y141427D01*
X106375Y163017D02*
X110185Y163017D01*
X110185Y140157D02*
X106375Y140157D01*
X112725Y142697D02*
X112725Y160477D01*
D18*
X117043Y151587D03*
X44907Y151587D03*
D12*
X51130Y167462D02*
X51130Y178892D01*
X54305Y178892D01*
X54416Y178890D01*
X54526Y178884D01*
X54637Y178875D01*
X54747Y178861D01*
X54856Y178844D01*
X54965Y178823D01*
X55073Y178798D01*
X55180Y178769D01*
X55286Y178737D01*
X55391Y178701D01*
X55494Y178661D01*
X55596Y178618D01*
X55697Y178571D01*
X55796Y178520D01*
X55893Y178467D01*
X55987Y178410D01*
X56080Y178349D01*
X56171Y178286D01*
X56260Y178219D01*
X56346Y178149D01*
X56429Y178076D01*
X56511Y178001D01*
X56589Y177923D01*
X56664Y177841D01*
X56737Y177758D01*
X56807Y177672D01*
X56874Y177583D01*
X56937Y177492D01*
X56998Y177399D01*
X57055Y177304D01*
X57108Y177208D01*
X57159Y177109D01*
X57206Y177008D01*
X57249Y176906D01*
X57289Y176803D01*
X57325Y176698D01*
X57357Y176592D01*
X57386Y176485D01*
X57411Y176377D01*
X57432Y176268D01*
X57449Y176159D01*
X57463Y176049D01*
X57472Y175938D01*
X57478Y175828D01*
X57480Y175717D01*
X57478Y175606D01*
X57472Y175496D01*
X57463Y175385D01*
X57449Y175275D01*
X57432Y175166D01*
X57411Y175057D01*
X57386Y174949D01*
X57357Y174842D01*
X57325Y174736D01*
X57289Y174631D01*
X57249Y174528D01*
X57206Y174426D01*
X57159Y174325D01*
X57108Y174226D01*
X57055Y174129D01*
X56998Y174035D01*
X56937Y173942D01*
X56874Y173851D01*
X56807Y173762D01*
X56737Y173676D01*
X56664Y173593D01*
X56589Y173511D01*
X56511Y173433D01*
X56429Y173358D01*
X56346Y173285D01*
X56260Y173215D01*
X56171Y173148D01*
X56080Y173085D01*
X55987Y173024D01*
X55892Y172967D01*
X55796Y172914D01*
X55697Y172863D01*
X55596Y172816D01*
X55494Y172773D01*
X55391Y172733D01*
X55286Y172697D01*
X55180Y172665D01*
X55073Y172636D01*
X54965Y172611D01*
X54856Y172590D01*
X54747Y172573D01*
X54637Y172559D01*
X54526Y172550D01*
X54416Y172544D01*
X54305Y172542D01*
X51130Y172542D01*
X54940Y172542D02*
X57480Y167462D01*
X62477Y176352D02*
X65652Y178892D01*
X65652Y167462D01*
X62477Y167462D02*
X68827Y167462D01*
D10*
X113132Y185268D02*
X113232Y185270D01*
X113331Y185276D01*
X113431Y185286D01*
X113529Y185299D01*
X113628Y185317D01*
X113725Y185338D01*
X113821Y185363D01*
X113917Y185392D01*
X114011Y185425D01*
X114104Y185461D01*
X114195Y185501D01*
X114285Y185545D01*
X114373Y185592D01*
X114459Y185642D01*
X114543Y185696D01*
X114625Y185753D01*
X114704Y185813D01*
X114782Y185877D01*
X114856Y185943D01*
X114928Y186012D01*
X114997Y186084D01*
X115063Y186158D01*
X115127Y186236D01*
X115187Y186315D01*
X115244Y186397D01*
X115298Y186481D01*
X115348Y186567D01*
X115395Y186655D01*
X115439Y186745D01*
X115479Y186836D01*
X115515Y186929D01*
X115548Y187023D01*
X115577Y187119D01*
X115602Y187215D01*
X115623Y187312D01*
X115641Y187411D01*
X115654Y187509D01*
X115664Y187609D01*
X115670Y187708D01*
X115672Y187808D01*
X115672Y205588D02*
X115670Y205688D01*
X115664Y205787D01*
X115654Y205887D01*
X115641Y205985D01*
X115623Y206084D01*
X115602Y206181D01*
X115577Y206277D01*
X115548Y206373D01*
X115515Y206467D01*
X115479Y206560D01*
X115439Y206651D01*
X115395Y206741D01*
X115348Y206829D01*
X115298Y206915D01*
X115244Y206999D01*
X115187Y207081D01*
X115127Y207160D01*
X115063Y207238D01*
X114997Y207312D01*
X114928Y207384D01*
X114856Y207453D01*
X114782Y207519D01*
X114704Y207583D01*
X114625Y207643D01*
X114543Y207700D01*
X114459Y207754D01*
X114373Y207804D01*
X114285Y207851D01*
X114195Y207895D01*
X114104Y207935D01*
X114011Y207971D01*
X113917Y208004D01*
X113821Y208033D01*
X113725Y208058D01*
X113628Y208079D01*
X113529Y208097D01*
X113431Y208110D01*
X113331Y208120D01*
X113232Y208126D01*
X113132Y208128D01*
X54712Y208128D02*
X54612Y208126D01*
X54513Y208120D01*
X54413Y208110D01*
X54315Y208097D01*
X54216Y208079D01*
X54119Y208058D01*
X54023Y208033D01*
X53927Y208004D01*
X53833Y207971D01*
X53740Y207935D01*
X53649Y207895D01*
X53559Y207851D01*
X53471Y207804D01*
X53385Y207754D01*
X53301Y207700D01*
X53219Y207643D01*
X53140Y207583D01*
X53062Y207519D01*
X52988Y207453D01*
X52916Y207384D01*
X52847Y207312D01*
X52781Y207238D01*
X52717Y207160D01*
X52657Y207081D01*
X52600Y206999D01*
X52546Y206915D01*
X52496Y206829D01*
X52449Y206741D01*
X52405Y206651D01*
X52365Y206560D01*
X52329Y206467D01*
X52296Y206373D01*
X52267Y206277D01*
X52242Y206181D01*
X52221Y206084D01*
X52203Y205985D01*
X52190Y205887D01*
X52180Y205787D01*
X52174Y205688D01*
X52172Y205588D01*
X52172Y187808D02*
X52174Y187708D01*
X52180Y187609D01*
X52190Y187509D01*
X52203Y187411D01*
X52221Y187312D01*
X52242Y187215D01*
X52267Y187119D01*
X52296Y187023D01*
X52329Y186929D01*
X52365Y186836D01*
X52405Y186745D01*
X52449Y186655D01*
X52496Y186567D01*
X52546Y186481D01*
X52600Y186397D01*
X52657Y186315D01*
X52717Y186236D01*
X52781Y186158D01*
X52847Y186084D01*
X52916Y186012D01*
X52988Y185943D01*
X53062Y185877D01*
X53140Y185813D01*
X53219Y185753D01*
X53301Y185696D01*
X53385Y185642D01*
X53471Y185592D01*
X53559Y185545D01*
X53649Y185501D01*
X53740Y185461D01*
X53833Y185425D01*
X53927Y185392D01*
X54023Y185363D01*
X54119Y185338D01*
X54216Y185317D01*
X54315Y185299D01*
X54413Y185286D01*
X54513Y185276D01*
X54612Y185270D01*
X54712Y185268D01*
X115672Y187808D02*
X115672Y205588D01*
X113132Y185268D02*
X109322Y185268D01*
X108052Y186538D01*
X109322Y208128D02*
X113132Y208128D01*
X109322Y208128D02*
X108052Y206858D01*
X59792Y186538D02*
X58522Y185268D01*
X59792Y186538D02*
X108052Y186538D01*
X59792Y206858D02*
X58522Y208128D01*
X59792Y206858D02*
X108052Y206858D01*
X58522Y185268D02*
X54712Y185268D01*
X54712Y208128D02*
X58522Y208128D01*
X52172Y205588D02*
X52172Y187808D01*
D18*
X47854Y196698D03*
X119990Y196698D03*
D12*
X96069Y180823D02*
X96069Y169393D01*
X96069Y180823D02*
X99244Y180823D01*
X99355Y180821D01*
X99465Y180815D01*
X99576Y180806D01*
X99686Y180792D01*
X99795Y180775D01*
X99904Y180754D01*
X100012Y180729D01*
X100119Y180700D01*
X100225Y180668D01*
X100330Y180632D01*
X100433Y180592D01*
X100535Y180549D01*
X100636Y180502D01*
X100735Y180451D01*
X100832Y180398D01*
X100926Y180341D01*
X101019Y180280D01*
X101110Y180217D01*
X101199Y180150D01*
X101285Y180080D01*
X101368Y180007D01*
X101450Y179932D01*
X101528Y179854D01*
X101603Y179772D01*
X101676Y179689D01*
X101746Y179603D01*
X101813Y179514D01*
X101876Y179423D01*
X101937Y179330D01*
X101994Y179235D01*
X102047Y179139D01*
X102098Y179040D01*
X102145Y178939D01*
X102188Y178837D01*
X102228Y178734D01*
X102264Y178629D01*
X102296Y178523D01*
X102325Y178416D01*
X102350Y178308D01*
X102371Y178199D01*
X102388Y178090D01*
X102402Y177980D01*
X102411Y177869D01*
X102417Y177759D01*
X102419Y177648D01*
X102417Y177537D01*
X102411Y177427D01*
X102402Y177316D01*
X102388Y177206D01*
X102371Y177097D01*
X102350Y176988D01*
X102325Y176880D01*
X102296Y176773D01*
X102264Y176667D01*
X102228Y176562D01*
X102188Y176459D01*
X102145Y176357D01*
X102098Y176256D01*
X102047Y176157D01*
X101994Y176060D01*
X101937Y175966D01*
X101876Y175873D01*
X101813Y175782D01*
X101746Y175693D01*
X101676Y175607D01*
X101603Y175524D01*
X101528Y175442D01*
X101450Y175364D01*
X101368Y175289D01*
X101285Y175216D01*
X101199Y175146D01*
X101110Y175079D01*
X101019Y175016D01*
X100926Y174955D01*
X100831Y174898D01*
X100735Y174845D01*
X100636Y174794D01*
X100535Y174747D01*
X100433Y174704D01*
X100330Y174664D01*
X100225Y174628D01*
X100119Y174596D01*
X100012Y174567D01*
X99904Y174542D01*
X99795Y174521D01*
X99686Y174504D01*
X99576Y174490D01*
X99465Y174481D01*
X99355Y174475D01*
X99244Y174473D01*
X96069Y174473D01*
X99879Y174473D02*
X102419Y169393D01*
X113767Y177965D02*
X113765Y178069D01*
X113759Y178174D01*
X113750Y178278D01*
X113737Y178381D01*
X113719Y178484D01*
X113699Y178586D01*
X113674Y178688D01*
X113646Y178788D01*
X113614Y178888D01*
X113578Y178986D01*
X113539Y179083D01*
X113497Y179178D01*
X113451Y179272D01*
X113401Y179364D01*
X113349Y179454D01*
X113293Y179542D01*
X113233Y179628D01*
X113171Y179712D01*
X113106Y179793D01*
X113038Y179872D01*
X112966Y179949D01*
X112893Y180022D01*
X112816Y180094D01*
X112737Y180162D01*
X112656Y180227D01*
X112572Y180289D01*
X112486Y180349D01*
X112398Y180405D01*
X112308Y180457D01*
X112216Y180507D01*
X112122Y180553D01*
X112027Y180595D01*
X111930Y180634D01*
X111832Y180670D01*
X111732Y180702D01*
X111632Y180730D01*
X111530Y180755D01*
X111428Y180775D01*
X111325Y180793D01*
X111222Y180806D01*
X111118Y180815D01*
X111013Y180821D01*
X110909Y180823D01*
X110791Y180821D01*
X110672Y180815D01*
X110554Y180806D01*
X110437Y180793D01*
X110320Y180775D01*
X110203Y180755D01*
X110087Y180730D01*
X109972Y180702D01*
X109859Y180669D01*
X109746Y180634D01*
X109634Y180594D01*
X109524Y180552D01*
X109415Y180505D01*
X109307Y180455D01*
X109202Y180402D01*
X109098Y180345D01*
X108996Y180285D01*
X108896Y180222D01*
X108798Y180155D01*
X108702Y180086D01*
X108609Y180013D01*
X108518Y179937D01*
X108429Y179859D01*
X108343Y179777D01*
X108260Y179693D01*
X108179Y179607D01*
X108102Y179517D01*
X108027Y179426D01*
X107955Y179332D01*
X107886Y179235D01*
X107821Y179137D01*
X107758Y179036D01*
X107699Y178933D01*
X107643Y178829D01*
X107591Y178723D01*
X107542Y178615D01*
X107497Y178506D01*
X107455Y178395D01*
X107417Y178283D01*
X112814Y175743D02*
X112890Y175818D01*
X112965Y175897D01*
X113036Y175978D01*
X113105Y176062D01*
X113170Y176148D01*
X113232Y176236D01*
X113292Y176326D01*
X113348Y176418D01*
X113401Y176513D01*
X113450Y176609D01*
X113496Y176707D01*
X113539Y176806D01*
X113578Y176907D01*
X113613Y177009D01*
X113645Y177112D01*
X113673Y177216D01*
X113698Y177321D01*
X113719Y177428D01*
X113736Y177534D01*
X113749Y177641D01*
X113758Y177749D01*
X113764Y177857D01*
X113766Y177965D01*
X112814Y175743D02*
X107417Y169393D01*
X113767Y169393D01*
D10*
X466852Y207010D02*
X523748Y207010D01*
X523748Y554990D02*
X498348Y554990D01*
X492252Y554990D01*
X470408Y554990D01*
X492252Y554990D02*
X492254Y554881D01*
X492260Y554773D01*
X492269Y554664D01*
X492283Y554556D01*
X492300Y554449D01*
X492322Y554342D01*
X492347Y554236D01*
X492375Y554131D01*
X492408Y554027D01*
X492444Y553925D01*
X492484Y553824D01*
X492527Y553724D01*
X492574Y553626D01*
X492625Y553529D01*
X492679Y553435D01*
X492736Y553342D01*
X492796Y553252D01*
X492860Y553163D01*
X492927Y553077D01*
X492996Y552994D01*
X493069Y552913D01*
X493145Y552835D01*
X493223Y552759D01*
X493304Y552686D01*
X493387Y552617D01*
X493473Y552550D01*
X493562Y552486D01*
X493652Y552426D01*
X493745Y552369D01*
X493839Y552315D01*
X493936Y552264D01*
X494034Y552217D01*
X494134Y552174D01*
X494235Y552134D01*
X494337Y552098D01*
X494441Y552065D01*
X494546Y552037D01*
X494652Y552012D01*
X494759Y551990D01*
X494866Y551973D01*
X494974Y551959D01*
X495083Y551950D01*
X495191Y551944D01*
X495300Y551942D01*
X495409Y551944D01*
X495517Y551950D01*
X495626Y551959D01*
X495734Y551973D01*
X495841Y551990D01*
X495948Y552012D01*
X496054Y552037D01*
X496159Y552065D01*
X496263Y552098D01*
X496365Y552134D01*
X496466Y552174D01*
X496566Y552217D01*
X496664Y552264D01*
X496761Y552315D01*
X496855Y552369D01*
X496948Y552426D01*
X497038Y552486D01*
X497127Y552550D01*
X497213Y552617D01*
X497296Y552686D01*
X497377Y552759D01*
X497455Y552835D01*
X497531Y552913D01*
X497604Y552994D01*
X497673Y553077D01*
X497740Y553163D01*
X497804Y553252D01*
X497864Y553342D01*
X497921Y553435D01*
X497975Y553529D01*
X498026Y553626D01*
X498073Y553724D01*
X498116Y553824D01*
X498156Y553925D01*
X498192Y554027D01*
X498225Y554131D01*
X498253Y554236D01*
X498278Y554342D01*
X498300Y554449D01*
X498317Y554556D01*
X498331Y554664D01*
X498340Y554773D01*
X498346Y554881D01*
X498348Y554990D01*
D19*
X455387Y562300D02*
X455387Y566279D01*
X455387Y562300D02*
X457708Y559315D01*
X455387Y562300D02*
X453065Y559315D01*
X455387Y562300D02*
X459034Y563626D01*
X455387Y562300D02*
X451739Y563626D01*
D20*
X447040Y177546D02*
X447040Y163971D01*
X447042Y163828D01*
X447048Y163686D01*
X447058Y163544D01*
X447071Y163402D01*
X447089Y163260D01*
X447110Y163119D01*
X447135Y162979D01*
X447164Y162839D01*
X447197Y162700D01*
X447234Y162562D01*
X447274Y162426D01*
X447318Y162290D01*
X447366Y162156D01*
X447417Y162023D01*
X447472Y161891D01*
X447531Y161761D01*
X447593Y161633D01*
X447659Y161506D01*
X447728Y161381D01*
X447800Y161258D01*
X447876Y161137D01*
X447955Y161019D01*
X448037Y160902D01*
X448123Y160788D01*
X448211Y160676D01*
X448303Y160567D01*
X448397Y160460D01*
X448494Y160356D01*
X448594Y160254D01*
X448697Y160155D01*
X448803Y160059D01*
X448911Y159966D01*
X449022Y159876D01*
X449135Y159789D01*
X449250Y159706D01*
X449368Y159625D01*
X449488Y159548D01*
X449609Y159473D01*
X449733Y159403D01*
X449859Y159335D01*
X449987Y159271D01*
X450116Y159211D01*
X450247Y159154D01*
X450379Y159101D01*
X450513Y159051D01*
X450648Y159006D01*
X450784Y158963D01*
X450921Y158925D01*
X451060Y158890D01*
X451199Y158859D01*
X451339Y158832D01*
X451479Y158809D01*
X451621Y158789D01*
X451763Y158774D01*
X451905Y158762D01*
X452047Y158754D01*
X452190Y158750D01*
X452332Y158750D01*
X452475Y158754D01*
X452617Y158762D01*
X452759Y158774D01*
X452901Y158789D01*
X453043Y158809D01*
X453183Y158832D01*
X453323Y158859D01*
X453462Y158890D01*
X453601Y158925D01*
X453738Y158963D01*
X453874Y159006D01*
X454009Y159051D01*
X454143Y159101D01*
X454275Y159154D01*
X454406Y159211D01*
X454535Y159271D01*
X454663Y159335D01*
X454789Y159403D01*
X454913Y159473D01*
X455034Y159548D01*
X455154Y159625D01*
X455272Y159706D01*
X455387Y159789D01*
X455500Y159876D01*
X455611Y159966D01*
X455719Y160059D01*
X455825Y160155D01*
X455928Y160254D01*
X456028Y160356D01*
X456125Y160460D01*
X456219Y160567D01*
X456311Y160676D01*
X456399Y160788D01*
X456485Y160902D01*
X456567Y161019D01*
X456646Y161137D01*
X456722Y161258D01*
X456794Y161381D01*
X456863Y161506D01*
X456929Y161633D01*
X456991Y161761D01*
X457050Y161891D01*
X457105Y162023D01*
X457156Y162156D01*
X457204Y162290D01*
X457248Y162426D01*
X457288Y162562D01*
X457325Y162700D01*
X457358Y162839D01*
X457387Y162979D01*
X457412Y163119D01*
X457433Y163260D01*
X457451Y163402D01*
X457464Y163544D01*
X457474Y163686D01*
X457480Y163828D01*
X457482Y163971D01*
X457482Y177546D01*
X465469Y173369D02*
X470690Y177546D01*
X470690Y158750D01*
X465469Y158750D02*
X475912Y158750D01*
D10*
X34900Y38405D02*
X28550Y44755D01*
X47600Y38405D02*
X53950Y44755D01*
X60300Y38405D01*
X73000Y38405D02*
X79350Y44755D01*
X85700Y38405D01*
X98400Y38405D02*
X104750Y44755D01*
X28550Y44755D02*
X28550Y82855D01*
X34900Y89205D01*
X47600Y89205D01*
X53950Y82855D01*
X60300Y89205D01*
X73000Y89205D01*
X79350Y82855D01*
X85700Y89205D01*
X98400Y89205D01*
X104750Y82855D01*
X53950Y82855D02*
X53950Y44755D01*
X79350Y44755D02*
X79350Y82855D01*
X104750Y82855D02*
X104750Y44755D01*
X98400Y38405D02*
X85700Y38405D01*
X73000Y38405D02*
X60300Y38405D01*
X47600Y38405D02*
X34900Y38405D01*
X104750Y44755D02*
X111100Y38405D01*
X123800Y38405D02*
X130150Y44755D01*
X104750Y82855D02*
X111100Y89205D01*
X123800Y89205D01*
X130150Y82855D01*
X130150Y44755D01*
X123800Y38405D02*
X111100Y38405D01*
D12*
X31725Y96190D02*
X29185Y107620D01*
X34265Y103810D02*
X31725Y96190D01*
X36805Y96190D02*
X34265Y103810D01*
X39345Y107620D02*
X36805Y96190D01*
X44933Y96190D02*
X44933Y107620D01*
X43663Y96190D02*
X46203Y96190D01*
X46203Y107620D02*
X43663Y107620D01*
X51308Y107620D02*
X51308Y96190D01*
X51308Y107620D02*
X56388Y107620D01*
X56388Y102540D02*
X51308Y102540D01*
X61697Y107620D02*
X61697Y96190D01*
X60427Y96190D02*
X62967Y96190D01*
X62967Y107620D02*
X60427Y107620D01*
X70168Y96190D02*
X72708Y96190D01*
X70168Y96190D02*
X70068Y96192D01*
X69969Y96198D01*
X69869Y96208D01*
X69771Y96221D01*
X69672Y96239D01*
X69575Y96260D01*
X69479Y96285D01*
X69383Y96314D01*
X69289Y96347D01*
X69196Y96383D01*
X69105Y96423D01*
X69015Y96467D01*
X68927Y96514D01*
X68841Y96564D01*
X68757Y96618D01*
X68675Y96675D01*
X68596Y96735D01*
X68518Y96799D01*
X68444Y96865D01*
X68372Y96934D01*
X68303Y97006D01*
X68237Y97080D01*
X68173Y97158D01*
X68113Y97237D01*
X68056Y97319D01*
X68002Y97403D01*
X67952Y97489D01*
X67905Y97577D01*
X67861Y97667D01*
X67821Y97758D01*
X67785Y97851D01*
X67752Y97945D01*
X67723Y98041D01*
X67698Y98137D01*
X67677Y98234D01*
X67659Y98333D01*
X67646Y98431D01*
X67636Y98531D01*
X67630Y98630D01*
X67628Y98730D01*
X67628Y105080D01*
X67630Y105180D01*
X67636Y105279D01*
X67646Y105379D01*
X67659Y105477D01*
X67677Y105576D01*
X67698Y105673D01*
X67723Y105769D01*
X67752Y105865D01*
X67785Y105959D01*
X67821Y106052D01*
X67861Y106143D01*
X67905Y106233D01*
X67952Y106321D01*
X68002Y106407D01*
X68056Y106491D01*
X68113Y106573D01*
X68173Y106652D01*
X68237Y106730D01*
X68303Y106804D01*
X68372Y106876D01*
X68444Y106945D01*
X68518Y107011D01*
X68596Y107075D01*
X68675Y107135D01*
X68757Y107192D01*
X68841Y107246D01*
X68927Y107296D01*
X69015Y107343D01*
X69105Y107387D01*
X69196Y107427D01*
X69289Y107463D01*
X69383Y107496D01*
X69479Y107525D01*
X69575Y107550D01*
X69672Y107571D01*
X69771Y107589D01*
X69869Y107602D01*
X69969Y107612D01*
X70068Y107618D01*
X70168Y107620D01*
X72708Y107620D01*
X77191Y104445D02*
X77191Y99365D01*
X77191Y104445D02*
X77193Y104556D01*
X77199Y104666D01*
X77208Y104777D01*
X77222Y104887D01*
X77239Y104996D01*
X77260Y105105D01*
X77285Y105213D01*
X77314Y105320D01*
X77346Y105426D01*
X77382Y105531D01*
X77422Y105634D01*
X77465Y105736D01*
X77512Y105837D01*
X77563Y105936D01*
X77616Y106032D01*
X77673Y106127D01*
X77734Y106220D01*
X77797Y106311D01*
X77864Y106400D01*
X77934Y106486D01*
X78007Y106569D01*
X78082Y106651D01*
X78160Y106729D01*
X78242Y106804D01*
X78325Y106877D01*
X78411Y106947D01*
X78500Y107014D01*
X78591Y107077D01*
X78684Y107138D01*
X78779Y107195D01*
X78875Y107248D01*
X78974Y107299D01*
X79075Y107346D01*
X79177Y107389D01*
X79280Y107429D01*
X79385Y107465D01*
X79491Y107497D01*
X79598Y107526D01*
X79706Y107551D01*
X79815Y107572D01*
X79924Y107589D01*
X80034Y107603D01*
X80145Y107612D01*
X80255Y107618D01*
X80366Y107620D01*
X80477Y107618D01*
X80587Y107612D01*
X80698Y107603D01*
X80808Y107589D01*
X80917Y107572D01*
X81026Y107551D01*
X81134Y107526D01*
X81241Y107497D01*
X81347Y107465D01*
X81452Y107429D01*
X81555Y107389D01*
X81657Y107346D01*
X81758Y107299D01*
X81857Y107248D01*
X81954Y107195D01*
X82048Y107138D01*
X82141Y107077D01*
X82232Y107014D01*
X82321Y106947D01*
X82407Y106877D01*
X82490Y106804D01*
X82572Y106729D01*
X82650Y106651D01*
X82725Y106569D01*
X82798Y106486D01*
X82868Y106400D01*
X82935Y106311D01*
X82998Y106220D01*
X83059Y106127D01*
X83116Y106033D01*
X83169Y105936D01*
X83220Y105837D01*
X83267Y105736D01*
X83310Y105634D01*
X83350Y105531D01*
X83386Y105426D01*
X83418Y105320D01*
X83447Y105213D01*
X83472Y105105D01*
X83493Y104996D01*
X83510Y104887D01*
X83524Y104777D01*
X83533Y104666D01*
X83539Y104556D01*
X83541Y104445D01*
X83541Y99365D01*
X83539Y99254D01*
X83533Y99144D01*
X83524Y99033D01*
X83510Y98923D01*
X83493Y98814D01*
X83472Y98705D01*
X83447Y98597D01*
X83418Y98490D01*
X83386Y98384D01*
X83350Y98279D01*
X83310Y98176D01*
X83267Y98074D01*
X83220Y97973D01*
X83169Y97874D01*
X83116Y97777D01*
X83059Y97683D01*
X82998Y97590D01*
X82935Y97499D01*
X82868Y97410D01*
X82798Y97324D01*
X82725Y97241D01*
X82650Y97159D01*
X82572Y97081D01*
X82490Y97006D01*
X82407Y96933D01*
X82321Y96863D01*
X82232Y96796D01*
X82141Y96733D01*
X82048Y96672D01*
X81953Y96615D01*
X81857Y96562D01*
X81758Y96511D01*
X81657Y96464D01*
X81555Y96421D01*
X81452Y96381D01*
X81347Y96345D01*
X81241Y96313D01*
X81134Y96284D01*
X81026Y96259D01*
X80917Y96238D01*
X80808Y96221D01*
X80698Y96207D01*
X80587Y96198D01*
X80477Y96192D01*
X80366Y96190D01*
X80255Y96192D01*
X80145Y96198D01*
X80034Y96207D01*
X79924Y96221D01*
X79815Y96238D01*
X79706Y96259D01*
X79598Y96284D01*
X79491Y96313D01*
X79385Y96345D01*
X79280Y96381D01*
X79177Y96421D01*
X79075Y96464D01*
X78974Y96511D01*
X78875Y96562D01*
X78779Y96615D01*
X78684Y96672D01*
X78591Y96733D01*
X78500Y96796D01*
X78411Y96863D01*
X78325Y96933D01*
X78242Y97006D01*
X78160Y97081D01*
X78082Y97159D01*
X78007Y97241D01*
X77934Y97324D01*
X77864Y97410D01*
X77797Y97499D01*
X77734Y97590D01*
X77673Y97683D01*
X77616Y97778D01*
X77563Y97874D01*
X77512Y97973D01*
X77465Y98074D01*
X77422Y98176D01*
X77382Y98279D01*
X77346Y98384D01*
X77314Y98490D01*
X77285Y98597D01*
X77260Y98705D01*
X77239Y98814D01*
X77222Y98923D01*
X77208Y99033D01*
X77199Y99144D01*
X77193Y99254D01*
X77191Y99365D01*
X89002Y96190D02*
X89002Y107620D01*
X95352Y96190D01*
X95352Y107620D01*
D20*
X1000Y540200D02*
X1000Y628200D01*
X36000Y628200D02*
X134000Y628200D01*
X36000Y628200D02*
X1000Y628200D01*
X134000Y628200D02*
X134000Y610200D01*
X134000Y558200D02*
X134000Y540200D01*
X79000Y540200D02*
X1000Y540200D01*
X36000Y540200D02*
X36000Y628200D01*
D21*
X15000Y614200D02*
X5000Y614200D01*
X20000Y614200D02*
X30000Y614200D01*
X40000Y614200D02*
X50000Y614200D01*
X55000Y614200D02*
X65000Y614200D01*
X70000Y614200D02*
X80000Y614200D01*
X15000Y554200D02*
X5000Y554200D01*
X20000Y554200D02*
X30000Y554200D01*
X40000Y554200D02*
X50000Y554200D01*
X55000Y554200D02*
X65000Y554200D01*
X70000Y554200D02*
X80000Y554200D01*
X30000Y594200D02*
X10000Y594200D01*
X40000Y594200D02*
X65000Y594200D01*
X30000Y574200D02*
X10000Y574200D01*
X40000Y574200D02*
X65000Y574200D01*
X10000Y594200D02*
X5000Y589200D01*
X5000Y579200D01*
X10000Y574200D01*
X13297Y536392D02*
X5508Y524708D01*
X13297Y524708D02*
X5508Y536392D01*
X17587Y533796D02*
X20833Y536392D01*
X20833Y524708D01*
X24078Y524708D02*
X17587Y524708D01*
D22*
X293600Y82200D03*
X293600Y70200D03*
D23*
X293600Y76200D03*
D21*
X292608Y95222D02*
X300397Y95222D01*
X296503Y99116D02*
X296503Y91327D01*
X305449Y90678D02*
X309344Y90678D01*
X309443Y90680D01*
X309543Y90686D01*
X309642Y90695D01*
X309740Y90708D01*
X309838Y90725D01*
X309936Y90746D01*
X310032Y90771D01*
X310127Y90799D01*
X310221Y90831D01*
X310314Y90866D01*
X310406Y90905D01*
X310496Y90948D01*
X310584Y90993D01*
X310671Y91043D01*
X310755Y91095D01*
X310838Y91151D01*
X310918Y91209D01*
X310996Y91271D01*
X311071Y91336D01*
X311144Y91404D01*
X311214Y91474D01*
X311282Y91547D01*
X311347Y91622D01*
X311409Y91700D01*
X311467Y91780D01*
X311523Y91863D01*
X311575Y91947D01*
X311625Y92034D01*
X311670Y92122D01*
X311713Y92212D01*
X311752Y92304D01*
X311787Y92397D01*
X311819Y92491D01*
X311847Y92586D01*
X311872Y92682D01*
X311893Y92780D01*
X311910Y92878D01*
X311923Y92976D01*
X311932Y93075D01*
X311938Y93175D01*
X311940Y93274D01*
X311940Y94573D01*
X311938Y94672D01*
X311932Y94772D01*
X311923Y94871D01*
X311910Y94969D01*
X311893Y95067D01*
X311872Y95165D01*
X311847Y95261D01*
X311819Y95356D01*
X311787Y95450D01*
X311752Y95543D01*
X311713Y95635D01*
X311670Y95725D01*
X311625Y95813D01*
X311575Y95900D01*
X311523Y95984D01*
X311467Y96067D01*
X311409Y96147D01*
X311347Y96225D01*
X311282Y96300D01*
X311214Y96373D01*
X311144Y96443D01*
X311071Y96511D01*
X310996Y96576D01*
X310918Y96638D01*
X310838Y96696D01*
X310755Y96752D01*
X310671Y96804D01*
X310584Y96854D01*
X310496Y96899D01*
X310406Y96942D01*
X310314Y96981D01*
X310221Y97016D01*
X310127Y97048D01*
X310032Y97076D01*
X309936Y97101D01*
X309838Y97122D01*
X309740Y97139D01*
X309642Y97152D01*
X309543Y97161D01*
X309443Y97167D01*
X309344Y97169D01*
X305449Y97169D01*
X305449Y102362D01*
X311940Y102362D01*
X316230Y102362D02*
X320125Y90678D01*
X324019Y102362D01*
D22*
X239800Y70200D03*
X239800Y82200D03*
D23*
X239800Y76200D03*
D21*
X243671Y93952D02*
X251460Y93952D01*
X247565Y97846D02*
X247565Y90057D01*
X256512Y89408D02*
X259757Y89408D01*
X259870Y89410D01*
X259983Y89416D01*
X260096Y89426D01*
X260209Y89440D01*
X260321Y89457D01*
X260432Y89479D01*
X260542Y89504D01*
X260652Y89534D01*
X260760Y89567D01*
X260867Y89604D01*
X260973Y89644D01*
X261077Y89689D01*
X261180Y89737D01*
X261281Y89788D01*
X261380Y89843D01*
X261477Y89901D01*
X261572Y89963D01*
X261665Y90028D01*
X261755Y90096D01*
X261843Y90167D01*
X261929Y90242D01*
X262012Y90319D01*
X262092Y90399D01*
X262169Y90482D01*
X262244Y90568D01*
X262315Y90656D01*
X262383Y90746D01*
X262448Y90839D01*
X262510Y90934D01*
X262568Y91031D01*
X262623Y91130D01*
X262674Y91231D01*
X262722Y91334D01*
X262767Y91438D01*
X262807Y91544D01*
X262844Y91651D01*
X262877Y91759D01*
X262907Y91869D01*
X262932Y91979D01*
X262954Y92090D01*
X262971Y92202D01*
X262985Y92315D01*
X262995Y92428D01*
X263001Y92541D01*
X263003Y92654D01*
X263001Y92767D01*
X262995Y92880D01*
X262985Y92993D01*
X262971Y93106D01*
X262954Y93218D01*
X262932Y93329D01*
X262907Y93439D01*
X262877Y93549D01*
X262844Y93657D01*
X262807Y93764D01*
X262767Y93870D01*
X262722Y93974D01*
X262674Y94077D01*
X262623Y94178D01*
X262568Y94277D01*
X262510Y94374D01*
X262448Y94469D01*
X262383Y94562D01*
X262315Y94652D01*
X262244Y94740D01*
X262169Y94826D01*
X262092Y94909D01*
X262012Y94989D01*
X261929Y95066D01*
X261843Y95141D01*
X261755Y95212D01*
X261665Y95280D01*
X261572Y95345D01*
X261477Y95407D01*
X261380Y95465D01*
X261281Y95520D01*
X261180Y95571D01*
X261077Y95619D01*
X260973Y95664D01*
X260867Y95704D01*
X260760Y95741D01*
X260652Y95774D01*
X260542Y95804D01*
X260432Y95829D01*
X260321Y95851D01*
X260209Y95868D01*
X260096Y95882D01*
X259983Y95892D01*
X259870Y95898D01*
X259757Y95900D01*
X260406Y101092D02*
X256512Y101092D01*
X260406Y101092D02*
X260507Y101090D01*
X260607Y101084D01*
X260707Y101074D01*
X260807Y101061D01*
X260906Y101043D01*
X261005Y101022D01*
X261102Y100997D01*
X261199Y100968D01*
X261294Y100935D01*
X261388Y100899D01*
X261480Y100859D01*
X261571Y100816D01*
X261660Y100769D01*
X261747Y100719D01*
X261833Y100665D01*
X261916Y100608D01*
X261996Y100548D01*
X262075Y100485D01*
X262151Y100418D01*
X262224Y100349D01*
X262294Y100277D01*
X262362Y100203D01*
X262427Y100126D01*
X262488Y100046D01*
X262547Y99964D01*
X262602Y99880D01*
X262654Y99794D01*
X262703Y99706D01*
X262748Y99616D01*
X262790Y99524D01*
X262828Y99431D01*
X262862Y99336D01*
X262893Y99241D01*
X262920Y99144D01*
X262943Y99046D01*
X262963Y98947D01*
X262978Y98847D01*
X262990Y98747D01*
X262998Y98647D01*
X263002Y98546D01*
X263002Y98446D01*
X262998Y98345D01*
X262990Y98245D01*
X262978Y98145D01*
X262963Y98045D01*
X262943Y97946D01*
X262920Y97848D01*
X262893Y97751D01*
X262862Y97656D01*
X262828Y97561D01*
X262790Y97468D01*
X262748Y97376D01*
X262703Y97286D01*
X262654Y97198D01*
X262602Y97112D01*
X262547Y97028D01*
X262488Y96946D01*
X262427Y96866D01*
X262362Y96789D01*
X262294Y96715D01*
X262224Y96643D01*
X262151Y96574D01*
X262075Y96507D01*
X261996Y96444D01*
X261916Y96384D01*
X261833Y96327D01*
X261747Y96273D01*
X261660Y96223D01*
X261571Y96176D01*
X261480Y96133D01*
X261388Y96093D01*
X261294Y96057D01*
X261199Y96024D01*
X261102Y95995D01*
X261005Y95970D01*
X260906Y95949D01*
X260807Y95931D01*
X260707Y95918D01*
X260607Y95908D01*
X260507Y95902D01*
X260406Y95900D01*
X260406Y95899D02*
X257810Y95899D01*
X267293Y101092D02*
X271187Y89408D01*
X275082Y101092D01*
X280095Y24892D02*
X280095Y13208D01*
X280095Y24892D02*
X283340Y24892D01*
X283453Y24890D01*
X283566Y24884D01*
X283679Y24874D01*
X283792Y24860D01*
X283904Y24843D01*
X284015Y24821D01*
X284125Y24796D01*
X284235Y24766D01*
X284343Y24733D01*
X284450Y24696D01*
X284556Y24656D01*
X284660Y24611D01*
X284763Y24563D01*
X284864Y24512D01*
X284963Y24457D01*
X285060Y24399D01*
X285155Y24337D01*
X285248Y24272D01*
X285338Y24204D01*
X285426Y24133D01*
X285512Y24058D01*
X285595Y23981D01*
X285675Y23901D01*
X285752Y23818D01*
X285827Y23732D01*
X285898Y23644D01*
X285966Y23554D01*
X286031Y23461D01*
X286093Y23366D01*
X286151Y23269D01*
X286206Y23170D01*
X286257Y23069D01*
X286305Y22966D01*
X286350Y22862D01*
X286390Y22756D01*
X286427Y22649D01*
X286460Y22541D01*
X286490Y22431D01*
X286515Y22321D01*
X286537Y22210D01*
X286554Y22098D01*
X286568Y21985D01*
X286578Y21872D01*
X286584Y21759D01*
X286586Y21646D01*
X286584Y21533D01*
X286578Y21420D01*
X286568Y21307D01*
X286554Y21194D01*
X286537Y21082D01*
X286515Y20971D01*
X286490Y20861D01*
X286460Y20751D01*
X286427Y20643D01*
X286390Y20536D01*
X286350Y20430D01*
X286305Y20326D01*
X286257Y20223D01*
X286206Y20122D01*
X286151Y20023D01*
X286093Y19926D01*
X286031Y19831D01*
X285966Y19738D01*
X285898Y19648D01*
X285827Y19560D01*
X285752Y19474D01*
X285675Y19391D01*
X285595Y19311D01*
X285512Y19234D01*
X285426Y19159D01*
X285338Y19088D01*
X285248Y19020D01*
X285155Y18955D01*
X285060Y18893D01*
X284963Y18835D01*
X284864Y18780D01*
X284763Y18729D01*
X284660Y18681D01*
X284556Y18636D01*
X284450Y18596D01*
X284343Y18559D01*
X284235Y18526D01*
X284125Y18496D01*
X284015Y18471D01*
X283904Y18449D01*
X283792Y18432D01*
X283679Y18418D01*
X283566Y18408D01*
X283453Y18402D01*
X283340Y18400D01*
X283340Y18401D02*
X280095Y18401D01*
X283989Y18401D02*
X286586Y13208D01*
X291451Y13208D02*
X294696Y13208D01*
X294809Y13210D01*
X294922Y13216D01*
X295035Y13226D01*
X295148Y13240D01*
X295260Y13257D01*
X295371Y13279D01*
X295481Y13304D01*
X295591Y13334D01*
X295699Y13367D01*
X295806Y13404D01*
X295912Y13444D01*
X296016Y13489D01*
X296119Y13537D01*
X296220Y13588D01*
X296319Y13643D01*
X296416Y13701D01*
X296511Y13763D01*
X296604Y13828D01*
X296694Y13896D01*
X296782Y13967D01*
X296868Y14042D01*
X296951Y14119D01*
X297031Y14199D01*
X297108Y14282D01*
X297183Y14368D01*
X297254Y14456D01*
X297322Y14546D01*
X297387Y14639D01*
X297449Y14734D01*
X297507Y14831D01*
X297562Y14930D01*
X297613Y15031D01*
X297661Y15134D01*
X297706Y15238D01*
X297746Y15344D01*
X297783Y15451D01*
X297816Y15559D01*
X297846Y15669D01*
X297871Y15779D01*
X297893Y15890D01*
X297910Y16002D01*
X297924Y16115D01*
X297934Y16228D01*
X297940Y16341D01*
X297942Y16454D01*
X297940Y16567D01*
X297934Y16680D01*
X297924Y16793D01*
X297910Y16906D01*
X297893Y17018D01*
X297871Y17129D01*
X297846Y17239D01*
X297816Y17349D01*
X297783Y17457D01*
X297746Y17564D01*
X297706Y17670D01*
X297661Y17774D01*
X297613Y17877D01*
X297562Y17978D01*
X297507Y18077D01*
X297449Y18174D01*
X297387Y18269D01*
X297322Y18362D01*
X297254Y18452D01*
X297183Y18540D01*
X297108Y18626D01*
X297031Y18709D01*
X296951Y18789D01*
X296868Y18866D01*
X296782Y18941D01*
X296694Y19012D01*
X296604Y19080D01*
X296511Y19145D01*
X296416Y19207D01*
X296319Y19265D01*
X296220Y19320D01*
X296119Y19371D01*
X296016Y19419D01*
X295912Y19464D01*
X295806Y19504D01*
X295699Y19541D01*
X295591Y19574D01*
X295481Y19604D01*
X295371Y19629D01*
X295260Y19651D01*
X295148Y19668D01*
X295035Y19682D01*
X294922Y19692D01*
X294809Y19698D01*
X294696Y19700D01*
X295346Y24892D02*
X291451Y24892D01*
X295346Y24892D02*
X295447Y24890D01*
X295547Y24884D01*
X295647Y24874D01*
X295747Y24861D01*
X295846Y24843D01*
X295945Y24822D01*
X296042Y24797D01*
X296139Y24768D01*
X296234Y24735D01*
X296328Y24699D01*
X296420Y24659D01*
X296511Y24616D01*
X296600Y24569D01*
X296687Y24519D01*
X296773Y24465D01*
X296856Y24408D01*
X296936Y24348D01*
X297015Y24285D01*
X297091Y24218D01*
X297164Y24149D01*
X297234Y24077D01*
X297302Y24003D01*
X297367Y23926D01*
X297428Y23846D01*
X297487Y23764D01*
X297542Y23680D01*
X297594Y23594D01*
X297643Y23506D01*
X297688Y23416D01*
X297730Y23324D01*
X297768Y23231D01*
X297802Y23136D01*
X297833Y23041D01*
X297860Y22944D01*
X297883Y22846D01*
X297903Y22747D01*
X297918Y22647D01*
X297930Y22547D01*
X297938Y22447D01*
X297942Y22346D01*
X297942Y22246D01*
X297938Y22145D01*
X297930Y22045D01*
X297918Y21945D01*
X297903Y21845D01*
X297883Y21746D01*
X297860Y21648D01*
X297833Y21551D01*
X297802Y21456D01*
X297768Y21361D01*
X297730Y21268D01*
X297688Y21176D01*
X297643Y21086D01*
X297594Y20998D01*
X297542Y20912D01*
X297487Y20828D01*
X297428Y20746D01*
X297367Y20666D01*
X297302Y20589D01*
X297234Y20515D01*
X297164Y20443D01*
X297091Y20374D01*
X297015Y20307D01*
X296936Y20244D01*
X296856Y20184D01*
X296773Y20127D01*
X296687Y20073D01*
X296600Y20023D01*
X296511Y19976D01*
X296420Y19933D01*
X296328Y19893D01*
X296234Y19857D01*
X296139Y19824D01*
X296042Y19795D01*
X295945Y19770D01*
X295846Y19749D01*
X295747Y19731D01*
X295647Y19718D01*
X295547Y19708D01*
X295447Y19702D01*
X295346Y19700D01*
X295346Y19699D02*
X292749Y19699D01*
X229295Y24892D02*
X229295Y13208D01*
X229295Y24892D02*
X232540Y24892D01*
X232653Y24890D01*
X232766Y24884D01*
X232879Y24874D01*
X232992Y24860D01*
X233104Y24843D01*
X233215Y24821D01*
X233325Y24796D01*
X233435Y24766D01*
X233543Y24733D01*
X233650Y24696D01*
X233756Y24656D01*
X233860Y24611D01*
X233963Y24563D01*
X234064Y24512D01*
X234163Y24457D01*
X234260Y24399D01*
X234355Y24337D01*
X234448Y24272D01*
X234538Y24204D01*
X234626Y24133D01*
X234712Y24058D01*
X234795Y23981D01*
X234875Y23901D01*
X234952Y23818D01*
X235027Y23732D01*
X235098Y23644D01*
X235166Y23554D01*
X235231Y23461D01*
X235293Y23366D01*
X235351Y23269D01*
X235406Y23170D01*
X235457Y23069D01*
X235505Y22966D01*
X235550Y22862D01*
X235590Y22756D01*
X235627Y22649D01*
X235660Y22541D01*
X235690Y22431D01*
X235715Y22321D01*
X235737Y22210D01*
X235754Y22098D01*
X235768Y21985D01*
X235778Y21872D01*
X235784Y21759D01*
X235786Y21646D01*
X235784Y21533D01*
X235778Y21420D01*
X235768Y21307D01*
X235754Y21194D01*
X235737Y21082D01*
X235715Y20971D01*
X235690Y20861D01*
X235660Y20751D01*
X235627Y20643D01*
X235590Y20536D01*
X235550Y20430D01*
X235505Y20326D01*
X235457Y20223D01*
X235406Y20122D01*
X235351Y20023D01*
X235293Y19926D01*
X235231Y19831D01*
X235166Y19738D01*
X235098Y19648D01*
X235027Y19560D01*
X234952Y19474D01*
X234875Y19391D01*
X234795Y19311D01*
X234712Y19234D01*
X234626Y19159D01*
X234538Y19088D01*
X234448Y19020D01*
X234355Y18955D01*
X234260Y18893D01*
X234163Y18835D01*
X234064Y18780D01*
X233963Y18729D01*
X233860Y18681D01*
X233756Y18636D01*
X233650Y18596D01*
X233543Y18559D01*
X233435Y18526D01*
X233325Y18496D01*
X233215Y18471D01*
X233104Y18449D01*
X232992Y18432D01*
X232879Y18418D01*
X232766Y18408D01*
X232653Y18402D01*
X232540Y18400D01*
X232540Y18401D02*
X229295Y18401D01*
X233189Y18401D02*
X235786Y13208D01*
X240651Y15804D02*
X243247Y24892D01*
X240651Y15804D02*
X247142Y15804D01*
X245195Y18401D02*
X245195Y13208D01*
X30697Y301153D02*
X22908Y301153D01*
X26803Y305047D02*
X26803Y297258D01*
X38995Y296609D02*
X35100Y308293D01*
X42889Y308293D02*
X38995Y296609D01*
X336547Y553047D02*
X340442Y553047D01*
X340442Y553048D02*
X340541Y553050D01*
X340641Y553056D01*
X340740Y553065D01*
X340838Y553078D01*
X340936Y553095D01*
X341034Y553116D01*
X341130Y553141D01*
X341225Y553169D01*
X341319Y553201D01*
X341412Y553236D01*
X341504Y553275D01*
X341594Y553318D01*
X341682Y553363D01*
X341769Y553413D01*
X341853Y553465D01*
X341936Y553521D01*
X342016Y553579D01*
X342094Y553641D01*
X342169Y553706D01*
X342242Y553774D01*
X342312Y553844D01*
X342380Y553917D01*
X342445Y553992D01*
X342507Y554070D01*
X342565Y554150D01*
X342621Y554233D01*
X342673Y554317D01*
X342723Y554404D01*
X342768Y554492D01*
X342811Y554582D01*
X342850Y554674D01*
X342885Y554767D01*
X342917Y554861D01*
X342945Y554956D01*
X342970Y555052D01*
X342991Y555150D01*
X343008Y555248D01*
X343021Y555346D01*
X343030Y555445D01*
X343036Y555545D01*
X343038Y555644D01*
X343038Y556942D01*
X343036Y557041D01*
X343030Y557141D01*
X343021Y557240D01*
X343008Y557338D01*
X342991Y557436D01*
X342970Y557534D01*
X342945Y557630D01*
X342917Y557725D01*
X342885Y557819D01*
X342850Y557912D01*
X342811Y558004D01*
X342768Y558094D01*
X342723Y558182D01*
X342673Y558269D01*
X342621Y558353D01*
X342565Y558436D01*
X342507Y558516D01*
X342445Y558594D01*
X342380Y558669D01*
X342312Y558742D01*
X342242Y558812D01*
X342169Y558880D01*
X342094Y558945D01*
X342016Y559007D01*
X341936Y559065D01*
X341853Y559121D01*
X341769Y559173D01*
X341682Y559223D01*
X341594Y559268D01*
X341504Y559311D01*
X341412Y559350D01*
X341319Y559385D01*
X341225Y559417D01*
X341130Y559445D01*
X341034Y559470D01*
X340936Y559491D01*
X340838Y559508D01*
X340740Y559521D01*
X340641Y559530D01*
X340541Y559536D01*
X340442Y559538D01*
X340442Y559539D02*
X336547Y559539D01*
X336547Y564731D01*
X343038Y564731D01*
X347328Y564731D02*
X351223Y553047D01*
X355117Y564731D01*
X203954Y118809D02*
X200708Y118809D01*
X203954Y118809D02*
X204067Y118811D01*
X204180Y118817D01*
X204293Y118827D01*
X204406Y118841D01*
X204518Y118858D01*
X204629Y118880D01*
X204739Y118905D01*
X204849Y118935D01*
X204957Y118968D01*
X205064Y119005D01*
X205170Y119045D01*
X205274Y119090D01*
X205377Y119138D01*
X205478Y119189D01*
X205577Y119244D01*
X205674Y119302D01*
X205769Y119364D01*
X205862Y119429D01*
X205952Y119497D01*
X206040Y119568D01*
X206126Y119643D01*
X206209Y119720D01*
X206289Y119800D01*
X206366Y119883D01*
X206441Y119969D01*
X206512Y120057D01*
X206580Y120147D01*
X206645Y120240D01*
X206707Y120335D01*
X206765Y120432D01*
X206820Y120531D01*
X206871Y120632D01*
X206919Y120735D01*
X206964Y120839D01*
X207004Y120945D01*
X207041Y121052D01*
X207074Y121160D01*
X207104Y121270D01*
X207129Y121380D01*
X207151Y121491D01*
X207168Y121603D01*
X207182Y121716D01*
X207192Y121829D01*
X207198Y121942D01*
X207200Y122055D01*
X207198Y122168D01*
X207192Y122281D01*
X207182Y122394D01*
X207168Y122507D01*
X207151Y122619D01*
X207129Y122730D01*
X207104Y122840D01*
X207074Y122950D01*
X207041Y123058D01*
X207004Y123165D01*
X206964Y123271D01*
X206919Y123375D01*
X206871Y123478D01*
X206820Y123579D01*
X206765Y123678D01*
X206707Y123775D01*
X206645Y123870D01*
X206580Y123963D01*
X206512Y124053D01*
X206441Y124141D01*
X206366Y124227D01*
X206289Y124310D01*
X206209Y124390D01*
X206126Y124467D01*
X206040Y124542D01*
X205952Y124613D01*
X205862Y124681D01*
X205769Y124746D01*
X205674Y124808D01*
X205577Y124866D01*
X205478Y124921D01*
X205377Y124972D01*
X205274Y125020D01*
X205170Y125065D01*
X205064Y125105D01*
X204957Y125142D01*
X204849Y125175D01*
X204739Y125205D01*
X204629Y125230D01*
X204518Y125252D01*
X204406Y125269D01*
X204293Y125283D01*
X204180Y125293D01*
X204067Y125299D01*
X203954Y125301D01*
X204603Y130493D02*
X200708Y130493D01*
X204603Y130493D02*
X204704Y130491D01*
X204804Y130485D01*
X204904Y130475D01*
X205004Y130462D01*
X205103Y130444D01*
X205202Y130423D01*
X205299Y130398D01*
X205396Y130369D01*
X205491Y130336D01*
X205585Y130300D01*
X205677Y130260D01*
X205768Y130217D01*
X205857Y130170D01*
X205944Y130120D01*
X206030Y130066D01*
X206113Y130009D01*
X206193Y129949D01*
X206272Y129886D01*
X206348Y129819D01*
X206421Y129750D01*
X206491Y129678D01*
X206559Y129604D01*
X206624Y129527D01*
X206685Y129447D01*
X206744Y129365D01*
X206799Y129281D01*
X206851Y129195D01*
X206900Y129107D01*
X206945Y129017D01*
X206987Y128925D01*
X207025Y128832D01*
X207059Y128737D01*
X207090Y128642D01*
X207117Y128545D01*
X207140Y128447D01*
X207160Y128348D01*
X207175Y128248D01*
X207187Y128148D01*
X207195Y128048D01*
X207199Y127947D01*
X207199Y127847D01*
X207195Y127746D01*
X207187Y127646D01*
X207175Y127546D01*
X207160Y127446D01*
X207140Y127347D01*
X207117Y127249D01*
X207090Y127152D01*
X207059Y127057D01*
X207025Y126962D01*
X206987Y126869D01*
X206945Y126777D01*
X206900Y126687D01*
X206851Y126599D01*
X206799Y126513D01*
X206744Y126429D01*
X206685Y126347D01*
X206624Y126267D01*
X206559Y126190D01*
X206491Y126116D01*
X206421Y126044D01*
X206348Y125975D01*
X206272Y125908D01*
X206193Y125845D01*
X206113Y125785D01*
X206030Y125728D01*
X205944Y125674D01*
X205857Y125624D01*
X205768Y125577D01*
X205677Y125534D01*
X205585Y125494D01*
X205491Y125458D01*
X205396Y125425D01*
X205299Y125396D01*
X205202Y125371D01*
X205103Y125350D01*
X205004Y125332D01*
X204904Y125319D01*
X204804Y125309D01*
X204704Y125303D01*
X204603Y125301D01*
X204603Y125300D02*
X202006Y125300D01*
X211489Y130493D02*
X215384Y118809D01*
X219278Y130493D01*
X67499Y303100D02*
X65552Y303100D01*
X67499Y303100D02*
X67499Y296609D01*
X63604Y296609D01*
X63505Y296611D01*
X63405Y296617D01*
X63306Y296626D01*
X63208Y296639D01*
X63110Y296656D01*
X63012Y296677D01*
X62916Y296702D01*
X62821Y296730D01*
X62727Y296762D01*
X62634Y296797D01*
X62542Y296836D01*
X62452Y296879D01*
X62364Y296924D01*
X62277Y296974D01*
X62193Y297026D01*
X62110Y297082D01*
X62030Y297140D01*
X61952Y297202D01*
X61877Y297267D01*
X61804Y297335D01*
X61734Y297405D01*
X61666Y297478D01*
X61601Y297553D01*
X61539Y297631D01*
X61481Y297711D01*
X61425Y297794D01*
X61373Y297878D01*
X61323Y297965D01*
X61278Y298053D01*
X61235Y298143D01*
X61196Y298235D01*
X61161Y298328D01*
X61129Y298422D01*
X61101Y298517D01*
X61076Y298613D01*
X61055Y298711D01*
X61038Y298809D01*
X61025Y298907D01*
X61016Y299006D01*
X61010Y299106D01*
X61008Y299205D01*
X61008Y305697D01*
X61010Y305796D01*
X61016Y305896D01*
X61025Y305995D01*
X61038Y306093D01*
X61055Y306191D01*
X61076Y306289D01*
X61101Y306385D01*
X61129Y306480D01*
X61161Y306574D01*
X61196Y306667D01*
X61235Y306759D01*
X61278Y306849D01*
X61323Y306937D01*
X61373Y307024D01*
X61425Y307108D01*
X61481Y307191D01*
X61539Y307271D01*
X61601Y307349D01*
X61666Y307424D01*
X61734Y307497D01*
X61804Y307567D01*
X61877Y307635D01*
X61952Y307700D01*
X62030Y307762D01*
X62110Y307820D01*
X62193Y307876D01*
X62277Y307928D01*
X62364Y307978D01*
X62452Y308023D01*
X62542Y308066D01*
X62634Y308105D01*
X62726Y308140D01*
X62821Y308172D01*
X62916Y308200D01*
X63012Y308225D01*
X63110Y308246D01*
X63208Y308263D01*
X63306Y308276D01*
X63405Y308285D01*
X63505Y308291D01*
X63604Y308293D01*
X67499Y308293D01*
X73200Y308293D02*
X73200Y296609D01*
X79691Y296609D02*
X73200Y308293D01*
X79691Y308293D02*
X79691Y296609D01*
X85392Y296609D02*
X85392Y308293D01*
X88637Y308293D01*
X88750Y308291D01*
X88863Y308285D01*
X88976Y308275D01*
X89089Y308261D01*
X89201Y308244D01*
X89312Y308222D01*
X89422Y308197D01*
X89532Y308167D01*
X89640Y308134D01*
X89747Y308097D01*
X89853Y308057D01*
X89957Y308012D01*
X90060Y307964D01*
X90161Y307913D01*
X90260Y307858D01*
X90357Y307800D01*
X90452Y307738D01*
X90545Y307673D01*
X90635Y307605D01*
X90723Y307534D01*
X90809Y307459D01*
X90892Y307382D01*
X90972Y307302D01*
X91049Y307219D01*
X91124Y307133D01*
X91195Y307045D01*
X91263Y306955D01*
X91328Y306862D01*
X91390Y306767D01*
X91448Y306670D01*
X91503Y306571D01*
X91554Y306470D01*
X91602Y306367D01*
X91647Y306263D01*
X91687Y306157D01*
X91724Y306050D01*
X91757Y305942D01*
X91787Y305832D01*
X91812Y305722D01*
X91834Y305611D01*
X91851Y305499D01*
X91865Y305386D01*
X91875Y305273D01*
X91881Y305160D01*
X91883Y305047D01*
X91883Y299855D01*
X91884Y299855D02*
X91882Y299742D01*
X91876Y299629D01*
X91866Y299516D01*
X91852Y299403D01*
X91835Y299291D01*
X91813Y299180D01*
X91788Y299070D01*
X91758Y298960D01*
X91725Y298852D01*
X91688Y298745D01*
X91648Y298639D01*
X91603Y298535D01*
X91555Y298432D01*
X91504Y298331D01*
X91449Y298232D01*
X91391Y298135D01*
X91329Y298040D01*
X91264Y297947D01*
X91196Y297857D01*
X91125Y297769D01*
X91050Y297683D01*
X90973Y297600D01*
X90893Y297520D01*
X90810Y297443D01*
X90724Y297368D01*
X90636Y297297D01*
X90546Y297229D01*
X90453Y297164D01*
X90358Y297102D01*
X90261Y297044D01*
X90162Y296989D01*
X90061Y296938D01*
X89958Y296890D01*
X89854Y296845D01*
X89748Y296805D01*
X89641Y296768D01*
X89533Y296735D01*
X89423Y296705D01*
X89313Y296680D01*
X89202Y296658D01*
X89090Y296641D01*
X88977Y296627D01*
X88864Y296617D01*
X88751Y296611D01*
X88638Y296609D01*
X88637Y296609D02*
X85392Y296609D01*
X207162Y610676D02*
X207162Y613272D01*
X207162Y610676D02*
X207160Y610577D01*
X207154Y610477D01*
X207145Y610378D01*
X207132Y610280D01*
X207115Y610182D01*
X207094Y610084D01*
X207069Y609988D01*
X207041Y609893D01*
X207009Y609799D01*
X206974Y609706D01*
X206935Y609614D01*
X206892Y609524D01*
X206847Y609436D01*
X206797Y609349D01*
X206745Y609265D01*
X206689Y609182D01*
X206631Y609102D01*
X206569Y609024D01*
X206504Y608949D01*
X206436Y608876D01*
X206366Y608806D01*
X206293Y608738D01*
X206218Y608673D01*
X206140Y608611D01*
X206060Y608553D01*
X205977Y608497D01*
X205893Y608445D01*
X205806Y608395D01*
X205718Y608350D01*
X205628Y608307D01*
X205536Y608268D01*
X205443Y608233D01*
X205349Y608201D01*
X205254Y608173D01*
X205158Y608148D01*
X205060Y608127D01*
X204962Y608110D01*
X204864Y608097D01*
X204765Y608088D01*
X204665Y608082D01*
X204566Y608080D01*
X198075Y608080D01*
X198075Y608079D02*
X197976Y608081D01*
X197876Y608087D01*
X197777Y608096D01*
X197679Y608109D01*
X197581Y608127D01*
X197483Y608147D01*
X197387Y608172D01*
X197291Y608200D01*
X197197Y608232D01*
X197104Y608267D01*
X197013Y608306D01*
X196923Y608349D01*
X196834Y608394D01*
X196748Y608444D01*
X196663Y608496D01*
X196581Y608552D01*
X196501Y608611D01*
X196423Y608672D01*
X196347Y608737D01*
X196274Y608805D01*
X196204Y608875D01*
X196136Y608948D01*
X196071Y609024D01*
X196010Y609102D01*
X195951Y609182D01*
X195895Y609264D01*
X195843Y609349D01*
X195794Y609435D01*
X195748Y609524D01*
X195705Y609614D01*
X195666Y609705D01*
X195631Y609798D01*
X195599Y609892D01*
X195571Y609988D01*
X195546Y610084D01*
X195526Y610182D01*
X195508Y610280D01*
X195495Y610378D01*
X195486Y610477D01*
X195480Y610576D01*
X195478Y610676D01*
X195478Y613272D01*
X207162Y617638D02*
X207162Y620883D01*
X207163Y620883D02*
X207161Y620996D01*
X207155Y621109D01*
X207145Y621222D01*
X207131Y621335D01*
X207114Y621447D01*
X207092Y621558D01*
X207067Y621668D01*
X207037Y621778D01*
X207004Y621886D01*
X206967Y621993D01*
X206927Y622099D01*
X206882Y622203D01*
X206834Y622306D01*
X206783Y622407D01*
X206728Y622506D01*
X206670Y622603D01*
X206608Y622698D01*
X206543Y622791D01*
X206475Y622881D01*
X206404Y622969D01*
X206329Y623055D01*
X206252Y623138D01*
X206172Y623218D01*
X206089Y623295D01*
X206003Y623370D01*
X205915Y623441D01*
X205825Y623509D01*
X205732Y623574D01*
X205637Y623636D01*
X205540Y623694D01*
X205441Y623749D01*
X205340Y623800D01*
X205237Y623848D01*
X205133Y623893D01*
X205027Y623933D01*
X204920Y623970D01*
X204812Y624003D01*
X204702Y624033D01*
X204592Y624058D01*
X204481Y624080D01*
X204369Y624097D01*
X204256Y624111D01*
X204143Y624121D01*
X204030Y624127D01*
X203917Y624129D01*
X203804Y624127D01*
X203691Y624121D01*
X203578Y624111D01*
X203465Y624097D01*
X203353Y624080D01*
X203242Y624058D01*
X203132Y624033D01*
X203022Y624003D01*
X202914Y623970D01*
X202807Y623933D01*
X202701Y623893D01*
X202597Y623848D01*
X202494Y623800D01*
X202393Y623749D01*
X202294Y623694D01*
X202197Y623636D01*
X202102Y623574D01*
X202009Y623509D01*
X201919Y623441D01*
X201831Y623370D01*
X201745Y623295D01*
X201662Y623218D01*
X201582Y623138D01*
X201505Y623055D01*
X201430Y622969D01*
X201359Y622881D01*
X201291Y622791D01*
X201226Y622698D01*
X201164Y622603D01*
X201106Y622506D01*
X201051Y622407D01*
X201000Y622306D01*
X200952Y622203D01*
X200907Y622099D01*
X200867Y621993D01*
X200830Y621886D01*
X200797Y621778D01*
X200767Y621668D01*
X200742Y621558D01*
X200720Y621447D01*
X200703Y621335D01*
X200689Y621222D01*
X200679Y621109D01*
X200673Y620996D01*
X200671Y620883D01*
X195478Y621532D02*
X195478Y617638D01*
X195479Y621532D02*
X195481Y621633D01*
X195487Y621733D01*
X195497Y621833D01*
X195510Y621933D01*
X195528Y622032D01*
X195549Y622131D01*
X195574Y622228D01*
X195603Y622325D01*
X195636Y622420D01*
X195672Y622514D01*
X195712Y622606D01*
X195755Y622697D01*
X195802Y622786D01*
X195852Y622873D01*
X195906Y622959D01*
X195963Y623042D01*
X196023Y623122D01*
X196086Y623201D01*
X196153Y623277D01*
X196222Y623350D01*
X196294Y623420D01*
X196368Y623488D01*
X196445Y623553D01*
X196525Y623614D01*
X196607Y623673D01*
X196691Y623728D01*
X196777Y623780D01*
X196865Y623829D01*
X196955Y623874D01*
X197047Y623916D01*
X197140Y623954D01*
X197235Y623988D01*
X197330Y624019D01*
X197427Y624046D01*
X197525Y624069D01*
X197624Y624089D01*
X197724Y624104D01*
X197824Y624116D01*
X197924Y624124D01*
X198025Y624128D01*
X198125Y624128D01*
X198226Y624124D01*
X198326Y624116D01*
X198426Y624104D01*
X198526Y624089D01*
X198625Y624069D01*
X198723Y624046D01*
X198820Y624019D01*
X198915Y623988D01*
X199010Y623954D01*
X199103Y623916D01*
X199195Y623874D01*
X199285Y623829D01*
X199373Y623780D01*
X199459Y623728D01*
X199543Y623673D01*
X199625Y623614D01*
X199705Y623553D01*
X199782Y623488D01*
X199856Y623420D01*
X199928Y623350D01*
X199997Y623277D01*
X200064Y623201D01*
X200127Y623122D01*
X200187Y623042D01*
X200244Y622959D01*
X200298Y622873D01*
X200348Y622786D01*
X200395Y622697D01*
X200438Y622606D01*
X200478Y622514D01*
X200514Y622420D01*
X200547Y622325D01*
X200576Y622228D01*
X200601Y622131D01*
X200622Y622032D01*
X200640Y621933D01*
X200653Y621833D01*
X200663Y621733D01*
X200669Y621633D01*
X200671Y621532D01*
X200671Y618936D01*
X283114Y560832D02*
X285710Y560832D01*
X283114Y560832D02*
X283015Y560834D01*
X282915Y560840D01*
X282816Y560849D01*
X282718Y560862D01*
X282620Y560879D01*
X282522Y560900D01*
X282426Y560925D01*
X282331Y560953D01*
X282237Y560985D01*
X282144Y561020D01*
X282052Y561059D01*
X281962Y561102D01*
X281874Y561147D01*
X281787Y561197D01*
X281703Y561249D01*
X281620Y561305D01*
X281540Y561363D01*
X281462Y561425D01*
X281387Y561490D01*
X281314Y561558D01*
X281244Y561628D01*
X281176Y561701D01*
X281111Y561776D01*
X281049Y561854D01*
X280991Y561934D01*
X280935Y562017D01*
X280883Y562101D01*
X280833Y562188D01*
X280788Y562276D01*
X280745Y562366D01*
X280706Y562458D01*
X280671Y562551D01*
X280639Y562645D01*
X280611Y562740D01*
X280586Y562836D01*
X280565Y562934D01*
X280548Y563032D01*
X280535Y563130D01*
X280526Y563229D01*
X280520Y563329D01*
X280518Y563428D01*
X280518Y569920D01*
X280520Y570019D01*
X280526Y570119D01*
X280535Y570218D01*
X280548Y570316D01*
X280565Y570414D01*
X280586Y570512D01*
X280611Y570608D01*
X280639Y570703D01*
X280671Y570797D01*
X280706Y570890D01*
X280745Y570982D01*
X280788Y571072D01*
X280833Y571160D01*
X280883Y571247D01*
X280935Y571331D01*
X280991Y571414D01*
X281049Y571494D01*
X281111Y571572D01*
X281176Y571647D01*
X281244Y571720D01*
X281314Y571790D01*
X281387Y571858D01*
X281462Y571923D01*
X281540Y571985D01*
X281620Y572043D01*
X281703Y572099D01*
X281787Y572151D01*
X281874Y572201D01*
X281962Y572246D01*
X282052Y572289D01*
X282144Y572328D01*
X282236Y572363D01*
X282331Y572395D01*
X282426Y572423D01*
X282522Y572448D01*
X282620Y572469D01*
X282718Y572486D01*
X282816Y572499D01*
X282915Y572508D01*
X283015Y572514D01*
X283114Y572516D01*
X285710Y572516D01*
X292672Y572516D02*
X290076Y563428D01*
X296567Y563428D01*
X294620Y566025D02*
X294620Y560832D01*
X486216Y25603D02*
X488813Y25603D01*
X486216Y25604D02*
X486117Y25606D01*
X486017Y25612D01*
X485918Y25621D01*
X485820Y25634D01*
X485722Y25651D01*
X485624Y25672D01*
X485528Y25697D01*
X485433Y25725D01*
X485339Y25757D01*
X485246Y25792D01*
X485154Y25831D01*
X485064Y25874D01*
X484976Y25919D01*
X484889Y25969D01*
X484805Y26021D01*
X484722Y26077D01*
X484642Y26135D01*
X484564Y26197D01*
X484489Y26262D01*
X484416Y26330D01*
X484346Y26400D01*
X484278Y26473D01*
X484213Y26548D01*
X484151Y26626D01*
X484093Y26706D01*
X484037Y26789D01*
X483985Y26873D01*
X483935Y26960D01*
X483890Y27048D01*
X483847Y27138D01*
X483808Y27230D01*
X483773Y27323D01*
X483741Y27417D01*
X483713Y27512D01*
X483688Y27608D01*
X483667Y27706D01*
X483650Y27804D01*
X483637Y27902D01*
X483628Y28001D01*
X483622Y28101D01*
X483620Y28200D01*
X483620Y34691D01*
X483622Y34790D01*
X483628Y34890D01*
X483637Y34989D01*
X483650Y35087D01*
X483667Y35185D01*
X483688Y35283D01*
X483713Y35379D01*
X483741Y35474D01*
X483773Y35568D01*
X483808Y35661D01*
X483847Y35753D01*
X483890Y35843D01*
X483935Y35931D01*
X483985Y36018D01*
X484037Y36102D01*
X484093Y36185D01*
X484151Y36265D01*
X484213Y36343D01*
X484278Y36418D01*
X484346Y36491D01*
X484416Y36561D01*
X484489Y36629D01*
X484564Y36694D01*
X484642Y36756D01*
X484722Y36814D01*
X484805Y36870D01*
X484889Y36922D01*
X484976Y36972D01*
X485064Y37017D01*
X485154Y37060D01*
X485246Y37099D01*
X485338Y37134D01*
X485433Y37166D01*
X485528Y37194D01*
X485624Y37219D01*
X485722Y37240D01*
X485820Y37257D01*
X485918Y37270D01*
X486017Y37279D01*
X486117Y37285D01*
X486216Y37287D01*
X488813Y37287D01*
X493178Y25603D02*
X497072Y25603D01*
X497072Y25604D02*
X497171Y25606D01*
X497271Y25612D01*
X497370Y25621D01*
X497468Y25634D01*
X497566Y25651D01*
X497664Y25672D01*
X497760Y25697D01*
X497855Y25725D01*
X497949Y25757D01*
X498042Y25792D01*
X498134Y25831D01*
X498224Y25874D01*
X498312Y25919D01*
X498399Y25969D01*
X498483Y26021D01*
X498566Y26077D01*
X498646Y26135D01*
X498724Y26197D01*
X498799Y26262D01*
X498872Y26330D01*
X498942Y26400D01*
X499010Y26473D01*
X499075Y26548D01*
X499137Y26626D01*
X499195Y26706D01*
X499251Y26789D01*
X499303Y26873D01*
X499353Y26960D01*
X499398Y27048D01*
X499441Y27138D01*
X499480Y27230D01*
X499515Y27323D01*
X499547Y27417D01*
X499575Y27512D01*
X499600Y27608D01*
X499621Y27706D01*
X499638Y27804D01*
X499651Y27902D01*
X499660Y28001D01*
X499666Y28101D01*
X499668Y28200D01*
X499669Y28200D02*
X499669Y29498D01*
X499668Y29498D02*
X499666Y29597D01*
X499660Y29697D01*
X499651Y29796D01*
X499638Y29894D01*
X499621Y29992D01*
X499600Y30090D01*
X499575Y30186D01*
X499547Y30281D01*
X499515Y30375D01*
X499480Y30468D01*
X499441Y30560D01*
X499398Y30650D01*
X499353Y30738D01*
X499303Y30825D01*
X499251Y30909D01*
X499195Y30992D01*
X499137Y31072D01*
X499075Y31150D01*
X499010Y31225D01*
X498942Y31298D01*
X498872Y31368D01*
X498799Y31436D01*
X498724Y31501D01*
X498646Y31563D01*
X498566Y31621D01*
X498483Y31677D01*
X498399Y31729D01*
X498312Y31779D01*
X498224Y31824D01*
X498134Y31867D01*
X498042Y31906D01*
X497949Y31941D01*
X497855Y31973D01*
X497760Y32001D01*
X497664Y32026D01*
X497566Y32047D01*
X497468Y32064D01*
X497370Y32077D01*
X497271Y32086D01*
X497171Y32092D01*
X497072Y32094D01*
X493178Y32094D01*
X493178Y37287D01*
X499669Y37287D01*
X357022Y131730D02*
X357022Y134326D01*
X357022Y131730D02*
X357020Y131631D01*
X357014Y131531D01*
X357005Y131432D01*
X356992Y131334D01*
X356975Y131236D01*
X356954Y131138D01*
X356929Y131042D01*
X356901Y130947D01*
X356869Y130853D01*
X356834Y130760D01*
X356795Y130668D01*
X356752Y130578D01*
X356707Y130490D01*
X356657Y130403D01*
X356605Y130319D01*
X356549Y130236D01*
X356491Y130156D01*
X356429Y130078D01*
X356364Y130003D01*
X356296Y129930D01*
X356226Y129860D01*
X356153Y129792D01*
X356078Y129727D01*
X356000Y129665D01*
X355920Y129607D01*
X355837Y129551D01*
X355753Y129499D01*
X355666Y129449D01*
X355578Y129404D01*
X355488Y129361D01*
X355396Y129322D01*
X355303Y129287D01*
X355209Y129255D01*
X355114Y129227D01*
X355018Y129202D01*
X354920Y129181D01*
X354822Y129164D01*
X354724Y129151D01*
X354625Y129142D01*
X354525Y129136D01*
X354426Y129134D01*
X347935Y129134D01*
X347935Y129133D02*
X347836Y129135D01*
X347736Y129141D01*
X347637Y129150D01*
X347539Y129163D01*
X347441Y129181D01*
X347343Y129201D01*
X347247Y129226D01*
X347151Y129254D01*
X347057Y129286D01*
X346964Y129321D01*
X346873Y129360D01*
X346783Y129403D01*
X346694Y129448D01*
X346608Y129498D01*
X346523Y129550D01*
X346441Y129606D01*
X346361Y129665D01*
X346283Y129726D01*
X346207Y129791D01*
X346134Y129859D01*
X346064Y129929D01*
X345996Y130002D01*
X345931Y130078D01*
X345870Y130156D01*
X345811Y130236D01*
X345755Y130318D01*
X345703Y130403D01*
X345654Y130489D01*
X345608Y130578D01*
X345565Y130668D01*
X345526Y130759D01*
X345491Y130852D01*
X345459Y130946D01*
X345431Y131042D01*
X345406Y131138D01*
X345386Y131236D01*
X345368Y131334D01*
X345355Y131432D01*
X345346Y131531D01*
X345340Y131630D01*
X345338Y131730D01*
X345338Y134326D01*
X350531Y138692D02*
X350531Y142586D01*
X350532Y142586D02*
X350534Y142685D01*
X350540Y142785D01*
X350549Y142884D01*
X350562Y142982D01*
X350579Y143080D01*
X350600Y143178D01*
X350625Y143274D01*
X350653Y143369D01*
X350685Y143463D01*
X350720Y143556D01*
X350759Y143648D01*
X350802Y143738D01*
X350847Y143826D01*
X350897Y143913D01*
X350949Y143997D01*
X351005Y144080D01*
X351063Y144160D01*
X351125Y144238D01*
X351190Y144313D01*
X351258Y144386D01*
X351328Y144456D01*
X351401Y144524D01*
X351476Y144589D01*
X351554Y144651D01*
X351634Y144709D01*
X351717Y144765D01*
X351801Y144817D01*
X351888Y144867D01*
X351976Y144912D01*
X352066Y144955D01*
X352158Y144994D01*
X352251Y145029D01*
X352345Y145061D01*
X352440Y145089D01*
X352536Y145114D01*
X352634Y145135D01*
X352732Y145152D01*
X352830Y145165D01*
X352929Y145174D01*
X353029Y145180D01*
X353128Y145182D01*
X353128Y145183D02*
X353777Y145183D01*
X353890Y145181D01*
X354003Y145175D01*
X354116Y145165D01*
X354229Y145151D01*
X354341Y145134D01*
X354452Y145112D01*
X354562Y145087D01*
X354672Y145057D01*
X354780Y145024D01*
X354887Y144987D01*
X354993Y144947D01*
X355097Y144902D01*
X355200Y144854D01*
X355301Y144803D01*
X355400Y144748D01*
X355497Y144690D01*
X355592Y144628D01*
X355685Y144563D01*
X355775Y144495D01*
X355863Y144424D01*
X355949Y144349D01*
X356032Y144272D01*
X356112Y144192D01*
X356189Y144109D01*
X356264Y144023D01*
X356335Y143935D01*
X356403Y143845D01*
X356468Y143752D01*
X356530Y143657D01*
X356588Y143560D01*
X356643Y143461D01*
X356694Y143360D01*
X356742Y143257D01*
X356787Y143153D01*
X356827Y143047D01*
X356864Y142940D01*
X356897Y142832D01*
X356927Y142722D01*
X356952Y142612D01*
X356974Y142501D01*
X356991Y142389D01*
X357005Y142276D01*
X357015Y142163D01*
X357021Y142050D01*
X357023Y141937D01*
X357021Y141824D01*
X357015Y141711D01*
X357005Y141598D01*
X356991Y141485D01*
X356974Y141373D01*
X356952Y141262D01*
X356927Y141152D01*
X356897Y141042D01*
X356864Y140934D01*
X356827Y140827D01*
X356787Y140721D01*
X356742Y140617D01*
X356694Y140514D01*
X356643Y140413D01*
X356588Y140314D01*
X356530Y140217D01*
X356468Y140122D01*
X356403Y140029D01*
X356335Y139939D01*
X356264Y139851D01*
X356189Y139765D01*
X356112Y139682D01*
X356032Y139602D01*
X355949Y139525D01*
X355863Y139450D01*
X355775Y139379D01*
X355685Y139311D01*
X355592Y139246D01*
X355497Y139184D01*
X355400Y139126D01*
X355301Y139071D01*
X355200Y139020D01*
X355097Y138972D01*
X354993Y138927D01*
X354887Y138887D01*
X354780Y138850D01*
X354672Y138817D01*
X354562Y138787D01*
X354452Y138762D01*
X354341Y138740D01*
X354229Y138723D01*
X354116Y138709D01*
X354003Y138699D01*
X353890Y138693D01*
X353777Y138691D01*
X353777Y138692D02*
X350531Y138692D01*
X350388Y138694D01*
X350245Y138700D01*
X350102Y138710D01*
X349960Y138724D01*
X349818Y138741D01*
X349676Y138763D01*
X349535Y138788D01*
X349395Y138818D01*
X349256Y138851D01*
X349118Y138888D01*
X348981Y138929D01*
X348845Y138973D01*
X348710Y139022D01*
X348577Y139074D01*
X348445Y139129D01*
X348315Y139189D01*
X348186Y139252D01*
X348059Y139318D01*
X347935Y139388D01*
X347812Y139461D01*
X347691Y139538D01*
X347572Y139617D01*
X347456Y139701D01*
X347341Y139787D01*
X347230Y139876D01*
X347121Y139969D01*
X347014Y140064D01*
X346910Y140163D01*
X346809Y140264D01*
X346710Y140368D01*
X346615Y140474D01*
X346522Y140584D01*
X346433Y140695D01*
X346347Y140809D01*
X346264Y140926D01*
X346184Y141045D01*
X346107Y141166D01*
X346034Y141288D01*
X345964Y141413D01*
X345898Y141540D01*
X345835Y141669D01*
X345775Y141799D01*
X345720Y141931D01*
X345668Y142064D01*
X345619Y142199D01*
X345575Y142335D01*
X345534Y142472D01*
X345497Y142610D01*
X345464Y142749D01*
X345434Y142889D01*
X345409Y143030D01*
X345387Y143172D01*
X345370Y143314D01*
X345356Y143456D01*
X345346Y143599D01*
X345340Y143742D01*
X345338Y143885D01*
X408635Y168335D02*
X420319Y168335D01*
X408635Y168335D02*
X408635Y171580D01*
X408637Y171693D01*
X408643Y171806D01*
X408653Y171919D01*
X408667Y172032D01*
X408684Y172144D01*
X408706Y172255D01*
X408731Y172365D01*
X408761Y172475D01*
X408794Y172583D01*
X408831Y172690D01*
X408871Y172796D01*
X408916Y172900D01*
X408964Y173003D01*
X409015Y173104D01*
X409070Y173203D01*
X409128Y173300D01*
X409190Y173395D01*
X409255Y173488D01*
X409323Y173578D01*
X409394Y173666D01*
X409469Y173752D01*
X409546Y173835D01*
X409626Y173915D01*
X409709Y173992D01*
X409795Y174067D01*
X409883Y174138D01*
X409973Y174206D01*
X410066Y174271D01*
X410161Y174333D01*
X410258Y174391D01*
X410357Y174446D01*
X410458Y174497D01*
X410561Y174545D01*
X410665Y174590D01*
X410771Y174630D01*
X410878Y174667D01*
X410986Y174700D01*
X411096Y174730D01*
X411206Y174755D01*
X411317Y174777D01*
X411429Y174794D01*
X411542Y174808D01*
X411655Y174818D01*
X411768Y174824D01*
X411881Y174826D01*
X411994Y174824D01*
X412107Y174818D01*
X412220Y174808D01*
X412333Y174794D01*
X412445Y174777D01*
X412556Y174755D01*
X412666Y174730D01*
X412776Y174700D01*
X412884Y174667D01*
X412991Y174630D01*
X413097Y174590D01*
X413201Y174545D01*
X413304Y174497D01*
X413405Y174446D01*
X413504Y174391D01*
X413601Y174333D01*
X413696Y174271D01*
X413789Y174206D01*
X413879Y174138D01*
X413967Y174067D01*
X414053Y173992D01*
X414136Y173915D01*
X414216Y173835D01*
X414293Y173752D01*
X414368Y173666D01*
X414439Y173578D01*
X414507Y173488D01*
X414572Y173395D01*
X414634Y173300D01*
X414692Y173203D01*
X414747Y173104D01*
X414798Y173003D01*
X414846Y172900D01*
X414891Y172796D01*
X414931Y172690D01*
X414968Y172583D01*
X415001Y172475D01*
X415031Y172365D01*
X415056Y172255D01*
X415078Y172144D01*
X415095Y172032D01*
X415109Y171919D01*
X415119Y171806D01*
X415125Y171693D01*
X415127Y171580D01*
X415126Y171580D02*
X415126Y168335D01*
X415126Y172229D02*
X420319Y174826D01*
X420319Y179691D02*
X420319Y183586D01*
X420317Y183685D01*
X420311Y183785D01*
X420302Y183884D01*
X420289Y183982D01*
X420272Y184080D01*
X420251Y184178D01*
X420226Y184274D01*
X420198Y184369D01*
X420166Y184463D01*
X420131Y184556D01*
X420092Y184648D01*
X420049Y184738D01*
X420004Y184826D01*
X419954Y184913D01*
X419902Y184997D01*
X419846Y185080D01*
X419788Y185160D01*
X419726Y185238D01*
X419661Y185313D01*
X419593Y185386D01*
X419523Y185456D01*
X419450Y185524D01*
X419375Y185589D01*
X419297Y185651D01*
X419217Y185709D01*
X419134Y185765D01*
X419050Y185817D01*
X418963Y185867D01*
X418875Y185912D01*
X418785Y185955D01*
X418693Y185994D01*
X418600Y186029D01*
X418506Y186061D01*
X418411Y186089D01*
X418315Y186114D01*
X418217Y186135D01*
X418119Y186152D01*
X418021Y186165D01*
X417922Y186174D01*
X417822Y186180D01*
X417723Y186182D01*
X416425Y186182D01*
X416326Y186180D01*
X416226Y186174D01*
X416127Y186165D01*
X416029Y186152D01*
X415931Y186135D01*
X415833Y186114D01*
X415737Y186089D01*
X415642Y186061D01*
X415548Y186029D01*
X415455Y185994D01*
X415363Y185955D01*
X415273Y185912D01*
X415185Y185867D01*
X415098Y185817D01*
X415014Y185765D01*
X414931Y185709D01*
X414851Y185651D01*
X414773Y185589D01*
X414698Y185524D01*
X414625Y185456D01*
X414555Y185386D01*
X414487Y185313D01*
X414422Y185238D01*
X414360Y185160D01*
X414302Y185080D01*
X414246Y184997D01*
X414194Y184913D01*
X414144Y184826D01*
X414099Y184738D01*
X414056Y184648D01*
X414017Y184556D01*
X413982Y184463D01*
X413950Y184369D01*
X413922Y184274D01*
X413897Y184178D01*
X413876Y184080D01*
X413859Y183982D01*
X413846Y183884D01*
X413837Y183785D01*
X413831Y183685D01*
X413829Y183586D01*
X413828Y183586D02*
X413828Y179691D01*
X408635Y179691D01*
X408635Y186182D01*
D10*
X365049Y187655D02*
X365049Y182575D01*
X362509Y185115D02*
X367589Y185115D01*
X365049Y176225D02*
X365049Y171145D01*
X328219Y180035D02*
X328226Y180565D01*
X328245Y181094D01*
X328277Y181623D01*
X328323Y182151D01*
X328381Y182678D01*
X328453Y183203D01*
X328537Y183726D01*
X328634Y184247D01*
X328744Y184765D01*
X328866Y185281D01*
X329001Y185793D01*
X329149Y186302D01*
X329309Y186807D01*
X329481Y187308D01*
X329666Y187805D01*
X329862Y188297D01*
X330071Y188784D01*
X330292Y189266D01*
X330524Y189742D01*
X330768Y190212D01*
X331024Y190677D01*
X331291Y191134D01*
X331569Y191586D01*
X331858Y192030D01*
X332157Y192467D01*
X332468Y192896D01*
X332789Y193318D01*
X333120Y193732D01*
X333461Y194137D01*
X333812Y194534D01*
X334173Y194922D01*
X334543Y195301D01*
X334922Y195671D01*
X335310Y196032D01*
X335707Y196383D01*
X336112Y196724D01*
X336526Y197055D01*
X336948Y197376D01*
X337377Y197687D01*
X337814Y197986D01*
X338258Y198275D01*
X338710Y198553D01*
X339167Y198820D01*
X339632Y199076D01*
X340102Y199320D01*
X340578Y199552D01*
X341060Y199773D01*
X341547Y199982D01*
X342039Y200178D01*
X342536Y200363D01*
X343037Y200535D01*
X343542Y200695D01*
X344051Y200843D01*
X344563Y200978D01*
X345079Y201100D01*
X345597Y201210D01*
X346118Y201307D01*
X346641Y201391D01*
X347166Y201463D01*
X347693Y201521D01*
X348221Y201567D01*
X348750Y201599D01*
X349279Y201618D01*
X349809Y201625D01*
X350339Y201618D01*
X350868Y201599D01*
X351397Y201567D01*
X351925Y201521D01*
X352452Y201463D01*
X352977Y201391D01*
X353500Y201307D01*
X354021Y201210D01*
X354539Y201100D01*
X355055Y200978D01*
X355567Y200843D01*
X356076Y200695D01*
X356581Y200535D01*
X357082Y200363D01*
X357579Y200178D01*
X358071Y199982D01*
X358558Y199773D01*
X359040Y199552D01*
X359516Y199320D01*
X359986Y199076D01*
X360451Y198820D01*
X360908Y198553D01*
X361360Y198275D01*
X361804Y197986D01*
X362241Y197687D01*
X362670Y197376D01*
X363092Y197055D01*
X363506Y196724D01*
X363911Y196383D01*
X364308Y196032D01*
X364696Y195671D01*
X365075Y195301D01*
X365445Y194922D01*
X365806Y194534D01*
X366157Y194137D01*
X366498Y193732D01*
X366829Y193318D01*
X367150Y192896D01*
X367461Y192467D01*
X367760Y192030D01*
X368049Y191586D01*
X368327Y191134D01*
X368594Y190677D01*
X368850Y190212D01*
X369094Y189742D01*
X369326Y189266D01*
X369547Y188784D01*
X369756Y188297D01*
X369952Y187805D01*
X370137Y187308D01*
X370309Y186807D01*
X370469Y186302D01*
X370617Y185793D01*
X370752Y185281D01*
X370874Y184765D01*
X370984Y184247D01*
X371081Y183726D01*
X371165Y183203D01*
X371237Y182678D01*
X371295Y182151D01*
X371341Y181623D01*
X371373Y181094D01*
X371392Y180565D01*
X371399Y180035D01*
X371392Y179505D01*
X371373Y178976D01*
X371341Y178447D01*
X371295Y177919D01*
X371237Y177392D01*
X371165Y176867D01*
X371081Y176344D01*
X370984Y175823D01*
X370874Y175305D01*
X370752Y174789D01*
X370617Y174277D01*
X370469Y173768D01*
X370309Y173263D01*
X370137Y172762D01*
X369952Y172265D01*
X369756Y171773D01*
X369547Y171286D01*
X369326Y170804D01*
X369094Y170328D01*
X368850Y169858D01*
X368594Y169393D01*
X368327Y168936D01*
X368049Y168484D01*
X367760Y168040D01*
X367461Y167603D01*
X367150Y167174D01*
X366829Y166752D01*
X366498Y166338D01*
X366157Y165933D01*
X365806Y165536D01*
X365445Y165148D01*
X365075Y164769D01*
X364696Y164399D01*
X364308Y164038D01*
X363911Y163687D01*
X363506Y163346D01*
X363092Y163015D01*
X362670Y162694D01*
X362241Y162383D01*
X361804Y162084D01*
X361360Y161795D01*
X360908Y161517D01*
X360451Y161250D01*
X359986Y160994D01*
X359516Y160750D01*
X359040Y160518D01*
X358558Y160297D01*
X358071Y160088D01*
X357579Y159892D01*
X357082Y159707D01*
X356581Y159535D01*
X356076Y159375D01*
X355567Y159227D01*
X355055Y159092D01*
X354539Y158970D01*
X354021Y158860D01*
X353500Y158763D01*
X352977Y158679D01*
X352452Y158607D01*
X351925Y158549D01*
X351397Y158503D01*
X350868Y158471D01*
X350339Y158452D01*
X349809Y158445D01*
X349279Y158452D01*
X348750Y158471D01*
X348221Y158503D01*
X347693Y158549D01*
X347166Y158607D01*
X346641Y158679D01*
X346118Y158763D01*
X345597Y158860D01*
X345079Y158970D01*
X344563Y159092D01*
X344051Y159227D01*
X343542Y159375D01*
X343037Y159535D01*
X342536Y159707D01*
X342039Y159892D01*
X341547Y160088D01*
X341060Y160297D01*
X340578Y160518D01*
X340102Y160750D01*
X339632Y160994D01*
X339167Y161250D01*
X338710Y161517D01*
X338258Y161795D01*
X337814Y162084D01*
X337377Y162383D01*
X336948Y162694D01*
X336526Y163015D01*
X336112Y163346D01*
X335707Y163687D01*
X335310Y164038D01*
X334922Y164399D01*
X334543Y164769D01*
X334173Y165148D01*
X333812Y165536D01*
X333461Y165933D01*
X333120Y166338D01*
X332789Y166752D01*
X332468Y167174D01*
X332157Y167603D01*
X331858Y168040D01*
X331569Y168484D01*
X331291Y168936D01*
X331024Y169393D01*
X330768Y169858D01*
X330524Y170328D01*
X330292Y170804D01*
X330071Y171286D01*
X329862Y171773D01*
X329666Y172265D01*
X329481Y172762D01*
X329309Y173263D01*
X329149Y173768D01*
X329001Y174277D01*
X328866Y174789D01*
X328744Y175305D01*
X328634Y175823D01*
X328537Y176344D01*
X328453Y176867D01*
X328381Y177392D01*
X328323Y177919D01*
X328277Y178447D01*
X328245Y178976D01*
X328226Y179505D01*
X328219Y180035D01*
D12*
X324536Y160807D02*
X324536Y158267D01*
X324534Y158167D01*
X324528Y158068D01*
X324518Y157968D01*
X324505Y157870D01*
X324487Y157771D01*
X324466Y157674D01*
X324441Y157578D01*
X324412Y157482D01*
X324379Y157388D01*
X324343Y157295D01*
X324303Y157204D01*
X324259Y157114D01*
X324212Y157026D01*
X324162Y156940D01*
X324108Y156856D01*
X324051Y156774D01*
X323991Y156695D01*
X323927Y156617D01*
X323861Y156543D01*
X323792Y156471D01*
X323720Y156402D01*
X323646Y156336D01*
X323568Y156272D01*
X323489Y156212D01*
X323407Y156155D01*
X323323Y156101D01*
X323237Y156051D01*
X323149Y156004D01*
X323059Y155960D01*
X322968Y155920D01*
X322875Y155884D01*
X322781Y155851D01*
X322685Y155822D01*
X322589Y155797D01*
X322492Y155776D01*
X322393Y155758D01*
X322295Y155745D01*
X322195Y155735D01*
X322096Y155729D01*
X321996Y155727D01*
X315646Y155727D01*
X315546Y155729D01*
X315447Y155735D01*
X315347Y155745D01*
X315249Y155758D01*
X315150Y155776D01*
X315053Y155797D01*
X314957Y155822D01*
X314861Y155851D01*
X314767Y155884D01*
X314674Y155920D01*
X314583Y155960D01*
X314493Y156004D01*
X314405Y156051D01*
X314319Y156101D01*
X314235Y156155D01*
X314153Y156212D01*
X314074Y156272D01*
X313996Y156336D01*
X313922Y156402D01*
X313850Y156471D01*
X313781Y156543D01*
X313715Y156617D01*
X313651Y156695D01*
X313591Y156774D01*
X313534Y156856D01*
X313480Y156940D01*
X313430Y157026D01*
X313383Y157114D01*
X313339Y157204D01*
X313299Y157295D01*
X313263Y157388D01*
X313230Y157482D01*
X313201Y157578D01*
X313176Y157674D01*
X313155Y157771D01*
X313137Y157870D01*
X313124Y157968D01*
X313114Y158068D01*
X313108Y158167D01*
X313106Y158267D01*
X313106Y160807D01*
X315646Y165290D02*
X313106Y168465D01*
X324536Y168465D01*
X324536Y165290D02*
X324536Y171640D01*
X318821Y176720D02*
X318596Y176723D01*
X318371Y176731D01*
X318147Y176744D01*
X317923Y176763D01*
X317699Y176787D01*
X317476Y176816D01*
X317254Y176851D01*
X317033Y176891D01*
X316813Y176937D01*
X316594Y176987D01*
X316376Y177043D01*
X316159Y177104D01*
X315944Y177170D01*
X315731Y177241D01*
X315520Y177318D01*
X315310Y177399D01*
X315102Y177485D01*
X314897Y177576D01*
X314694Y177672D01*
X314693Y177672D02*
X314605Y177704D01*
X314518Y177740D01*
X314432Y177779D01*
X314348Y177822D01*
X314266Y177868D01*
X314186Y177917D01*
X314108Y177969D01*
X314032Y178025D01*
X313958Y178083D01*
X313887Y178145D01*
X313818Y178209D01*
X313752Y178276D01*
X313689Y178345D01*
X313628Y178417D01*
X313570Y178491D01*
X313516Y178568D01*
X313464Y178646D01*
X313416Y178727D01*
X313371Y178809D01*
X313329Y178894D01*
X313291Y178980D01*
X313256Y179067D01*
X313224Y179155D01*
X313197Y179245D01*
X313172Y179336D01*
X313152Y179428D01*
X313135Y179520D01*
X313122Y179614D01*
X313113Y179707D01*
X313107Y179801D01*
X313105Y179895D01*
X313107Y179989D01*
X313113Y180083D01*
X313122Y180176D01*
X313135Y180270D01*
X313152Y180362D01*
X313172Y180454D01*
X313197Y180545D01*
X313224Y180635D01*
X313256Y180723D01*
X313291Y180810D01*
X313329Y180896D01*
X313371Y180981D01*
X313416Y181063D01*
X313464Y181144D01*
X313516Y181222D01*
X313570Y181299D01*
X313628Y181373D01*
X313689Y181445D01*
X313752Y181514D01*
X313818Y181581D01*
X313887Y181645D01*
X313958Y181707D01*
X314032Y181765D01*
X314108Y181821D01*
X314186Y181873D01*
X314266Y181922D01*
X314348Y181968D01*
X314432Y182011D01*
X314518Y182050D01*
X314605Y182086D01*
X314693Y182118D01*
X314694Y182118D02*
X314897Y182214D01*
X315102Y182305D01*
X315310Y182391D01*
X315520Y182472D01*
X315731Y182549D01*
X315944Y182620D01*
X316159Y182686D01*
X316376Y182747D01*
X316594Y182803D01*
X316813Y182853D01*
X317033Y182899D01*
X317254Y182939D01*
X317476Y182974D01*
X317699Y183003D01*
X317923Y183027D01*
X318147Y183046D01*
X318371Y183059D01*
X318596Y183067D01*
X318821Y183070D01*
X318821Y176720D02*
X319046Y176723D01*
X319271Y176731D01*
X319495Y176744D01*
X319719Y176763D01*
X319943Y176787D01*
X320166Y176816D01*
X320388Y176851D01*
X320609Y176891D01*
X320829Y176937D01*
X321048Y176987D01*
X321266Y177043D01*
X321483Y177104D01*
X321698Y177170D01*
X321911Y177241D01*
X322122Y177318D01*
X322332Y177399D01*
X322540Y177485D01*
X322745Y177576D01*
X322948Y177672D01*
X323036Y177704D01*
X323123Y177740D01*
X323209Y177779D01*
X323293Y177822D01*
X323375Y177868D01*
X323455Y177917D01*
X323533Y177969D01*
X323609Y178025D01*
X323683Y178083D01*
X323754Y178145D01*
X323823Y178209D01*
X323889Y178276D01*
X323952Y178345D01*
X324013Y178417D01*
X324071Y178491D01*
X324125Y178568D01*
X324177Y178646D01*
X324225Y178727D01*
X324270Y178809D01*
X324312Y178894D01*
X324350Y178980D01*
X324385Y179067D01*
X324417Y179155D01*
X324444Y179245D01*
X324469Y179336D01*
X324489Y179428D01*
X324506Y179520D01*
X324519Y179614D01*
X324528Y179707D01*
X324534Y179801D01*
X324536Y179895D01*
X322948Y182118D02*
X322745Y182214D01*
X322540Y182305D01*
X322332Y182391D01*
X322122Y182472D01*
X321911Y182549D01*
X321698Y182620D01*
X321483Y182686D01*
X321266Y182747D01*
X321048Y182803D01*
X320829Y182853D01*
X320609Y182899D01*
X320388Y182939D01*
X320166Y182974D01*
X319943Y183003D01*
X319719Y183027D01*
X319495Y183046D01*
X319271Y183059D01*
X319046Y183067D01*
X318821Y183070D01*
X322948Y182118D02*
X323036Y182086D01*
X323123Y182050D01*
X323209Y182011D01*
X323293Y181968D01*
X323375Y181922D01*
X323455Y181873D01*
X323533Y181821D01*
X323609Y181765D01*
X323683Y181707D01*
X323754Y181645D01*
X323823Y181581D01*
X323889Y181514D01*
X323952Y181445D01*
X324013Y181373D01*
X324071Y181299D01*
X324125Y181222D01*
X324177Y181144D01*
X324225Y181063D01*
X324270Y180981D01*
X324312Y180896D01*
X324350Y180810D01*
X324385Y180723D01*
X324417Y180635D01*
X324444Y180545D01*
X324469Y180454D01*
X324489Y180362D01*
X324506Y180270D01*
X324519Y180176D01*
X324528Y180083D01*
X324534Y179989D01*
X324536Y179895D01*
X321996Y177355D02*
X315646Y182435D01*
D10*
X401117Y543052D02*
X401117Y548132D01*
X398577Y545592D02*
X403657Y545592D01*
X401117Y536702D02*
X401117Y531622D01*
X364287Y540512D02*
X364294Y541042D01*
X364313Y541571D01*
X364345Y542100D01*
X364391Y542628D01*
X364449Y543155D01*
X364521Y543680D01*
X364605Y544203D01*
X364702Y544724D01*
X364812Y545242D01*
X364934Y545758D01*
X365069Y546270D01*
X365217Y546779D01*
X365377Y547284D01*
X365549Y547785D01*
X365734Y548282D01*
X365930Y548774D01*
X366139Y549261D01*
X366360Y549743D01*
X366592Y550219D01*
X366836Y550689D01*
X367092Y551154D01*
X367359Y551611D01*
X367637Y552063D01*
X367926Y552507D01*
X368225Y552944D01*
X368536Y553373D01*
X368857Y553795D01*
X369188Y554209D01*
X369529Y554614D01*
X369880Y555011D01*
X370241Y555399D01*
X370611Y555778D01*
X370990Y556148D01*
X371378Y556509D01*
X371775Y556860D01*
X372180Y557201D01*
X372594Y557532D01*
X373016Y557853D01*
X373445Y558164D01*
X373882Y558463D01*
X374326Y558752D01*
X374778Y559030D01*
X375235Y559297D01*
X375700Y559553D01*
X376170Y559797D01*
X376646Y560029D01*
X377128Y560250D01*
X377615Y560459D01*
X378107Y560655D01*
X378604Y560840D01*
X379105Y561012D01*
X379610Y561172D01*
X380119Y561320D01*
X380631Y561455D01*
X381147Y561577D01*
X381665Y561687D01*
X382186Y561784D01*
X382709Y561868D01*
X383234Y561940D01*
X383761Y561998D01*
X384289Y562044D01*
X384818Y562076D01*
X385347Y562095D01*
X385877Y562102D01*
X386407Y562095D01*
X386936Y562076D01*
X387465Y562044D01*
X387993Y561998D01*
X388520Y561940D01*
X389045Y561868D01*
X389568Y561784D01*
X390089Y561687D01*
X390607Y561577D01*
X391123Y561455D01*
X391635Y561320D01*
X392144Y561172D01*
X392649Y561012D01*
X393150Y560840D01*
X393647Y560655D01*
X394139Y560459D01*
X394626Y560250D01*
X395108Y560029D01*
X395584Y559797D01*
X396054Y559553D01*
X396519Y559297D01*
X396976Y559030D01*
X397428Y558752D01*
X397872Y558463D01*
X398309Y558164D01*
X398738Y557853D01*
X399160Y557532D01*
X399574Y557201D01*
X399979Y556860D01*
X400376Y556509D01*
X400764Y556148D01*
X401143Y555778D01*
X401513Y555399D01*
X401874Y555011D01*
X402225Y554614D01*
X402566Y554209D01*
X402897Y553795D01*
X403218Y553373D01*
X403529Y552944D01*
X403828Y552507D01*
X404117Y552063D01*
X404395Y551611D01*
X404662Y551154D01*
X404918Y550689D01*
X405162Y550219D01*
X405394Y549743D01*
X405615Y549261D01*
X405824Y548774D01*
X406020Y548282D01*
X406205Y547785D01*
X406377Y547284D01*
X406537Y546779D01*
X406685Y546270D01*
X406820Y545758D01*
X406942Y545242D01*
X407052Y544724D01*
X407149Y544203D01*
X407233Y543680D01*
X407305Y543155D01*
X407363Y542628D01*
X407409Y542100D01*
X407441Y541571D01*
X407460Y541042D01*
X407467Y540512D01*
X407460Y539982D01*
X407441Y539453D01*
X407409Y538924D01*
X407363Y538396D01*
X407305Y537869D01*
X407233Y537344D01*
X407149Y536821D01*
X407052Y536300D01*
X406942Y535782D01*
X406820Y535266D01*
X406685Y534754D01*
X406537Y534245D01*
X406377Y533740D01*
X406205Y533239D01*
X406020Y532742D01*
X405824Y532250D01*
X405615Y531763D01*
X405394Y531281D01*
X405162Y530805D01*
X404918Y530335D01*
X404662Y529870D01*
X404395Y529413D01*
X404117Y528961D01*
X403828Y528517D01*
X403529Y528080D01*
X403218Y527651D01*
X402897Y527229D01*
X402566Y526815D01*
X402225Y526410D01*
X401874Y526013D01*
X401513Y525625D01*
X401143Y525246D01*
X400764Y524876D01*
X400376Y524515D01*
X399979Y524164D01*
X399574Y523823D01*
X399160Y523492D01*
X398738Y523171D01*
X398309Y522860D01*
X397872Y522561D01*
X397428Y522272D01*
X396976Y521994D01*
X396519Y521727D01*
X396054Y521471D01*
X395584Y521227D01*
X395108Y520995D01*
X394626Y520774D01*
X394139Y520565D01*
X393647Y520369D01*
X393150Y520184D01*
X392649Y520012D01*
X392144Y519852D01*
X391635Y519704D01*
X391123Y519569D01*
X390607Y519447D01*
X390089Y519337D01*
X389568Y519240D01*
X389045Y519156D01*
X388520Y519084D01*
X387993Y519026D01*
X387465Y518980D01*
X386936Y518948D01*
X386407Y518929D01*
X385877Y518922D01*
X385347Y518929D01*
X384818Y518948D01*
X384289Y518980D01*
X383761Y519026D01*
X383234Y519084D01*
X382709Y519156D01*
X382186Y519240D01*
X381665Y519337D01*
X381147Y519447D01*
X380631Y519569D01*
X380119Y519704D01*
X379610Y519852D01*
X379105Y520012D01*
X378604Y520184D01*
X378107Y520369D01*
X377615Y520565D01*
X377128Y520774D01*
X376646Y520995D01*
X376170Y521227D01*
X375700Y521471D01*
X375235Y521727D01*
X374778Y521994D01*
X374326Y522272D01*
X373882Y522561D01*
X373445Y522860D01*
X373016Y523171D01*
X372594Y523492D01*
X372180Y523823D01*
X371775Y524164D01*
X371378Y524515D01*
X370990Y524876D01*
X370611Y525246D01*
X370241Y525625D01*
X369880Y526013D01*
X369529Y526410D01*
X369188Y526815D01*
X368857Y527229D01*
X368536Y527651D01*
X368225Y528080D01*
X367926Y528517D01*
X367637Y528961D01*
X367359Y529413D01*
X367092Y529870D01*
X366836Y530335D01*
X366592Y530805D01*
X366360Y531281D01*
X366139Y531763D01*
X365930Y532250D01*
X365734Y532742D01*
X365549Y533239D01*
X365377Y533740D01*
X365217Y534245D01*
X365069Y534754D01*
X364934Y535266D01*
X364812Y535782D01*
X364702Y536300D01*
X364605Y536821D01*
X364521Y537344D01*
X364449Y537869D01*
X364391Y538396D01*
X364345Y538924D01*
X364313Y539453D01*
X364294Y539982D01*
X364287Y540512D01*
D12*
X406832Y496025D02*
X406832Y493485D01*
X406830Y493385D01*
X406824Y493286D01*
X406814Y493186D01*
X406801Y493088D01*
X406783Y492989D01*
X406762Y492892D01*
X406737Y492796D01*
X406708Y492700D01*
X406675Y492606D01*
X406639Y492513D01*
X406599Y492422D01*
X406555Y492332D01*
X406508Y492244D01*
X406458Y492158D01*
X406404Y492074D01*
X406347Y491992D01*
X406287Y491913D01*
X406223Y491835D01*
X406157Y491761D01*
X406088Y491689D01*
X406016Y491620D01*
X405942Y491554D01*
X405864Y491490D01*
X405785Y491430D01*
X405703Y491373D01*
X405619Y491319D01*
X405533Y491269D01*
X405445Y491222D01*
X405355Y491178D01*
X405264Y491138D01*
X405171Y491102D01*
X405077Y491069D01*
X404981Y491040D01*
X404885Y491015D01*
X404788Y490994D01*
X404689Y490976D01*
X404591Y490963D01*
X404491Y490953D01*
X404392Y490947D01*
X404292Y490945D01*
X397942Y490945D01*
X397842Y490947D01*
X397743Y490953D01*
X397643Y490963D01*
X397545Y490976D01*
X397446Y490994D01*
X397349Y491015D01*
X397253Y491040D01*
X397157Y491069D01*
X397063Y491102D01*
X396970Y491138D01*
X396879Y491178D01*
X396789Y491222D01*
X396701Y491269D01*
X396615Y491319D01*
X396531Y491373D01*
X396449Y491430D01*
X396370Y491490D01*
X396292Y491554D01*
X396218Y491620D01*
X396146Y491689D01*
X396077Y491761D01*
X396011Y491835D01*
X395947Y491913D01*
X395887Y491992D01*
X395830Y492074D01*
X395776Y492158D01*
X395726Y492244D01*
X395679Y492332D01*
X395635Y492422D01*
X395595Y492513D01*
X395559Y492606D01*
X395526Y492700D01*
X395497Y492796D01*
X395472Y492892D01*
X395451Y492989D01*
X395433Y493088D01*
X395420Y493186D01*
X395410Y493286D01*
X395404Y493385D01*
X395402Y493485D01*
X395402Y496025D01*
X397942Y500507D02*
X395402Y503682D01*
X406832Y503682D01*
X406832Y500507D02*
X406832Y506857D01*
X397942Y511937D02*
X395402Y515112D01*
X406832Y515112D01*
X406832Y511937D02*
X406832Y518287D01*
M02*
